<?xml version="1.0" encoding="utf-8"?>
<!-- Generator: Adobe Illustrator 22.1.0, SVG Export Plug-In . SVG Version: 6.00 Build 0)  -->
<svg version="1.1" id="Layer_1" xmlns="http://www.w3.org/2000/svg" xmlns:xlink="http://www.w3.org/1999/xlink" x="0px" y="0px"
	 width="80px" height="35px" viewBox="0 0 80 35" enable-background="new 0 0 80 35" xml:space="preserve">
<g>
	<g>
		<path fill="#0F141E" d="M33.8320923,12.4161987c3.7998047-9.4523315-3.3101807-12.0137329-7.9512939-12.0126343H10.5339966
			c1.2805176,0.8875122,1.0679321,2.0564575,0.8187866,2.7781982L2.4116821,31.9689941
			C2.052124,33.1083984,0.7185059,34.3040161,0,34.4923096l12.4268188-0.0028076
			c-0.6829224-0.1260376-1.6639404-1.1025391-1.3101196-2.4400024l3.2471924-10.4124146
			C14.3638916,21.637085,29.3084717,23.6690674,33.8320923,12.4161987z M24.9799194,11.8391724
			c-3.0477905,9.0074463-9.7955322,7.1542358-9.7955322,7.1542358l4.9724121-15.9523315h1.6019897
			C23.3779297,3.0410767,27.8826904,3.2589111,24.9799194,11.8391724z M43.9169922,29.2662964
			c1.2734985-1.4022217,2.8479004-3.1594849,3.1340332-6.7401123h-4.335022c0,0,0.833374,0.4794922,0.833374,1.5037842
			c0,0.9487305-0.3739624,2.2543945-1.1073608,3.1810303c-1.267334-1.8952026-2.6257935-4.0588989-3.1004028-7.2285767
			c1.6951904-0.8562012,4.0880127-1.7749023,5.9896851-3.4500122c1.7996826-1.5905151,2.2166138-3.0880127,2.2449951-4.0657349
			v-0.1253662c0-1.0202026-0.3970947-1.9832153-1.1279907-2.7134399c-1.2539063-1.2546997-3.239624-1.7652588-5.3126831-1.3737793
			c-1.6712036,0.3178101-3.0947266,1.2108765-3.8074951,1.8787842c-2.5290527,2.3770142-2.852417,6.3099365-2.852417,8.0842285
			c0,0.4335938,0.0180664,0.7614746,0.0352173,0.9528198l-0.4040527,0.1576538
			c-1.8399658,0.6804199-6.762146,2.0082397-8.5261841,6.0823975c-0.2251587,0.5151978-0.5437622,1.6313477-0.5437622,2.9342041
			c0,1.1190186,0.2345581,2.3673096,0.954895,3.5073242c1.2410889,1.949707,3.3512573,3.1867065,6.7180786,3.1287842
			c3.6654053-0.0612183,7.2717896-2.5823975,7.9196167-3.0430908c0.6377563,0.5941162,2.2772827,2.1466064,3.1355591,2.5557251
			l8.3536377-0.003418C49.4448242,33.6264038,45.4876709,31.0808716,43.9169922,29.2662964z M34.6019287,31.5393677
			c-1.6837158,0.1572266-4.4865112-0.5004883-4.479126-3.9022827c0.0020142-2.9046631,3.1411743-5.0285645,4.8347778-5.7661743
			c0.7053223,2.8167114,2.2476196,5.9914551,3.8980103,8.1936646C38.3629761,30.375,36.4274292,31.3634644,34.6019287,31.5393677z
			 M40.1436768,11.6535645c0.8480225-1.3147583,1.9669189-1.8963623,2.876709-1.5785522
			c0.723938,0.2496948,0.8110352,0.930603,0.743042,1.6557617c-0.4341431,2.7457886-3.958313,5.5109253-4.8216553,5.8876953
			C38.7888794,16.0750732,38.8555908,13.644165,40.1436768,11.6535645z M67.4083252,19.8132935L63.574707,32.1273193
			c-0.5119019,0.1031494-11.2399902,2.7979736-5.2344971-16.1124268c1.2962646-4.0588989,4.9158936-11.5064697,10.8255005-12.939209
			c4.9650879-1.1967773,9.0634155,2.7145996,9.4312134,2.9824219l1.4220581-4.5429077
			C78.0516968,0.9210815,63.8012695-3.9406738,53.7340698,7.645813c-6.18927,7.1253052-7.7089844,21.7225952,0.1451416,25.6378784
			c8.4133911,4.1859741,17.6931152-0.6445923,18.3759766-0.9810791l3.8447876-12.3121948
			c0.4125977-1.4884033,1.3527222-2.4598999,3.008606-3.0778198H65.7584229
			C67.7094116,17.7296753,67.565979,19.210083,67.4083252,19.8132935z"/>
	</g>
</g>
</svg>
