<?xml version="1.0" encoding="utf-8"?>
<!-- Generator: Adobe Illustrator 22.1.0, SVG Export Plug-In . SVG Version: 6.00 Build 0)  -->
<svg version="1.1" id="Layer_1" xmlns="http://www.w3.org/2000/svg" xmlns:xlink="http://www.w3.org/1999/xlink" x="0px" y="0px"
	 width="140px" height="53px" viewBox="0 0 140 53" enable-background="new 0 0 140 53" xml:space="preserve">
<g>
	<g>
		<path fill="#0F141E" d="M138.2312012,2.2663574C136.6157837,0.6638794,134.6049805,0,132.2615967,0H7.6447754
			C5.2977295,0,3.3325806,0.6638794,1.7225952,2.2663574C0.109314,3.869873,0,5.6646729,0,7.9237061v28.477356
			c0,2.3344116,0.109314,4.1184082,1.7225952,5.7209473c1.6099854,1.6051636,3.5751343,2.2232056,5.9221802,2.2232056h2.7906494
			C8.7813721,48.234375,7.078125,51.149292,6.7244873,51.8823853c-0.2446899,0.5100708-0.0333862,1.1162109,0.6875,1.1162109
			c0.2780151,0,0.6321411-0.0897217,1.0649414-0.3104248c2.8031616-1.4328003,8.9140015-4.4537964,14.1504517-8.3429565h109.6342163
			c2.3433838,0,4.354187-0.618042,5.9696045-2.2232056c1.6091919-1.6025391,1.7689209-3.3865356,1.7689209-5.7209473V7.9237061
			C140.0001221,5.6646729,139.8403931,3.869873,138.2312012,2.2663574z M137.6539917,36.401062
			c0,2.2090454-0.1635742,3.1572266-1.0809937,4.0690308c-1.0723877,1.0662842-2.4019165,1.5405884-4.3114014,1.5405884H21.8477173
			l-0.6243286,0.4642334c-3.4212646,2.5420532-7.2561035,4.7130737-10.237793,6.2905884
			c0.5098267-1.0367432,1.0617065-2.2203979,1.6110229-3.5107422l1.3789063-3.2440796H7.6447754
			c-1.8798828,0-3.194458-0.4738159-4.2648926-1.5405884c-0.8839722-0.8778076-1.0335083-1.7857056-1.0335083-4.0690308V7.9237061
			c0-2.2340088,0.1499023-3.1266479,1.0354004-4.0084229c1.0999146-1.0939941,2.4142456-1.5814209,4.2630005-1.5814209h124.6168213
			c1.8516846,0,3.22229,0.5039063,4.3093262,1.5809326c0.932373,0.9299927,1.0830688,1.9439697,1.0830688,4.0089111V36.401062z
			 M120.7752075,7.6831055h-12.0905151c-1.7918091,0-3.333374,0.6361084-4.5814209,1.8912964
			c-1.244873,1.2522583-1.8771973,2.7918091-1.8771973,4.5751953v7.5184937c0,1.7841187,0.6323242,3.3223877,1.8771973,4.574707
			c1.2480469,1.255188,2.7896118,1.890686,4.5814209,1.890686h12.0905151c1.7929688,0,3.333313-0.635498,4.5814209-1.890686
			c1.244873-1.2523193,1.8773804-2.7905884,1.8773804-4.574707v-7.5184937c0-1.7833862-0.6325073-3.322937-1.8773804-4.5751953
			C124.1085205,8.3192139,122.5681763,7.6831055,120.7752075,7.6831055z M123.4932251,21.6680908
			c0,0.7813721-0.2606201,1.4185791-0.7958984,1.9492188c-0.536438,0.5350952-1.1634521,0.7937622-1.9221191,0.7937622h-12.0905151
			c-0.756897,0-1.385498-0.258667-1.921875-0.7937622c-0.5345459-0.5306396-0.7957153-1.1678467-0.7957153-1.9492188v-7.5184937
			c0-0.7819214,0.2611694-1.4197388,0.7957153-1.949707c0.536377-0.5350952,1.164978-0.7944336,1.921875-0.7944336h12.0905151
			c0.758667,0,1.3856812,0.2593384,1.9221191,0.7944336c0.5352783,0.5299683,0.7958984,1.1677856,0.7958984,1.949707V21.6680908z
			 M93.3317261,14.1745605h-3.7250977c-1.5390015,0-3.0811157,0.6327515-4.5905151,1.8805542
			c-1.5336304-1.2478027-3.0880127-1.8805542-4.6260376-1.8805542h-3.6829834c-1.7927856,0-3.3408203,0.635498-4.6004639,1.8890381
			c-1.2603149,1.2533569-1.8986206,2.7780762-1.8986206,4.5321045v14.1047974h3.7391968V20.5957031
			c0-0.7490234,0.262207-1.3738403,0.7999878-1.9083252c0.5339355-0.5333862,1.1737061-0.7926636,1.9598999-0.7926636h3.6829834
			c0.7856445,0,1.4260254,0.2592773,1.9614258,0.7932739c0.5375977,0.5350952,0.7979736,1.1591797,0.7979736,1.9077148v14.1047974
			h3.7412109V20.5957031c0-0.7490234,0.2603149-1.3738403,0.7980347-1.9083252
			c0.5338745-0.5333862,1.1604004-0.7926636,1.9179077-0.7926636h3.7250977c0.756897,0,1.3924561,0.2598877,1.9436646,0.7984009
			c0.5487061,0.5310669,0.8145142,1.1552734,0.8145142,1.9025879v14.1047974h3.7423706V20.5957031
			c0-1.7528076-0.6400757-3.2781372-1.9016724-4.5321045C96.671814,14.8100586,95.1234741,14.1745605,93.3317261,14.1745605z
			 M44.0892944,30.3062134c-0.536377-0.5322266-0.7960205-1.1712036-0.7960205-1.951416V17.6790771h-3.8341675v10.6757202
			c0,1.7828979,0.6408691,3.3217773,1.9016724,4.574707c1.2603149,1.2545776,2.8085327,1.8911743,4.5997314,1.8911743h4.4716187
			v-3.7211914h-4.3813477C45.2661743,31.0994873,44.6248169,30.84021,44.0892944,30.3062134z M16.9226074,15.9931641
			c-1.2597046,1.2540283-1.8986206,2.7788086-1.8986206,4.5316162v17.5786133h3.7427979v-10.197998h17.2247925v-3.7207031
			H18.7667847v-3.6599121c0-0.7507935,0.2601929-1.3743896,0.7955933-1.9071655
			c0.5375977-0.5345459,1.1794434-0.9470215,1.9614258-0.9470215h14.4677734v-3.5668945H21.5238037
			C19.7319946,14.1036987,18.1838989,14.7385864,16.9226074,15.9931641z M54.1848755,3.7529907h-3.7409668v6.8812866h-4.6300049
			v3.5657959h4.6300049v7.4680176c0,1.7841187,0.6309204,3.3223877,1.8775635,4.574707
			c1.2471313,1.255188,2.7878418,1.890686,4.5787354,1.890686h10.7871704v-3.7224121H56.9002075
			c-0.7565918,0-1.3843994-0.258667-1.9199829-0.7937622c-0.5354004-0.5306396-0.7953491-1.1678467-0.7953491-1.9492188v-7.4680176
			h13.5025024v-3.5657959H54.1848755V3.7529907z M43.2932739,7.2841797h-3.8341675v3.5679932h3.8341675V7.2841797z"/>
	</g>
</g>
</svg>
