<?xml version="1.0" encoding="utf-8"?>
<!-- Generator: Adobe Illustrator 23.0.1, SVG Export Plug-In . SVG Version: 6.00 Build 0)  -->
<svg version="1.1" id="Layer_1" xmlns="http://www.w3.org/2000/svg" xmlns:xlink="http://www.w3.org/1999/xlink" x="0px" y="0px"
	 width="180px" height="31px" viewBox="0 0 180 31" enable-background="new 0 0 180 31" xml:space="preserve">
<g>
	<g>
		<path d="M65.0299072,14.7323608c-1.255127-0.6168823-2.1091309-1.1802979-2.6431274-1.6881714
			c-0.5612793-0.5629272-0.7744751-1.1530151-0.8012695-1.8231201c0-0.8840942,0.3203125-1.6621094,0.9348755-2.2515869
			c0.6138306-0.5889893,1.3884888-0.9373779,2.2692871-0.9373779c0.8007202,0,1.5750122,0.2944946,2.2164307,0.8306885
			c0.640686,0.5357056,1.0946045,1.2603149,1.2810669,2.0910034c0.0537109,0.2406006,0.1340332,0.2406006,0.4273071,0.2406006
			c0.3479004,0,0.4006958-0.0534058,0.3738403-0.1605835c-0.0801392-1.2597046-0.1329956-2.0910034-0.2400513-3.350708
			c-1.5218506-0.3739014-2.4835815-0.5350952-3.5513916-0.5350952c-1.708374,0-3.1240845,0.5083618-4.1655884,1.3935547
			c-1.0141602,0.8847046-1.5476685,2.0638428-1.5476685,3.5112915c0,1.3925171,0.5869751,2.4655151,1.7619019,3.4035034
			c0.6674805,0.5090332,1.414856,1.017395,3.3910522,2.0099487c1.2546997,0.6439819,2.0820313,1.1801758,2.5898438,1.769165
			c0.5340576,0.5629272,0.7475586,1.2064209,0.7475586,2.0093384c0,0.8845825-0.3468628,1.6619873-0.9875488,2.2521973
			c-0.6414185,0.5894775-1.4684448,0.9112549-2.4570313,0.9112549c-0.8276978,0-1.6019897-0.1878052-2.3231201-0.5895996
			c-1.1749878-0.6428833-2.02948-1.7692871-2.2963867-3.1094971c-0.0524902-0.1878662-0.0797119-0.2144775-0.2399902-0.2144775
			c-0.1602173,0-0.3469849,0.0266113-0.427124,0.053894c-0.1072998,0.0532837-0.0802612,0.1878052-0.0802612,0.2150269
			c0.0267944,0.5350952,0.1339722,1.7686768,0.1604004,3.1611938v0.1344604
			c0.3469849,0.2412109,0.8007813,0.4023438,1.1745605,0.5357056c0.9611206,0.402832,2.2432251,0.7246094,3.5780029,0.7246094
			c1.8688965,0,3.4713135-0.6696167,4.6193237-1.8225708c0.9077148-0.9380493,1.3881226-2.0644531,1.3881226-3.2702026
			c0-1.0991211-0.3203125-2.0371094-1.0409546-2.8143921C68.3942261,16.5549927,67.0595703,15.6969604,65.0299072,14.7323608z
			 M87.4672241,24.1671143c-0.6140137-0.0539551-1.0146484-0.269043-1.4153442-0.8313599
			c-0.3203125-0.4561768-0.6674805-1.1523438-1.0678711-2.2242432c-1.9494019-5.1461182-1.9494019-5.3334351-5.1000977-13.937439
			c-0.800415,0.5361938-1.2545166,0.7780151-1.7891235,0.96521c0.0267944,0.1351318,0.0267944,0.1873169,0.0267944,0.2678223
			c0,0.3217773-0.293457,1.2869873-1.1480713,3.645752c-1.0142212,2.8939209-2.0826416,5.7629395-3.1777954,8.6296387
			c-0.4534912,1.1802979-0.7209473,1.7692871-0.9876099,2.1970825c-0.480896,0.6973877-1.281311,1.1796875-1.9495239,1.2608032
			c-0.2398071,0.0267334-0.2937012,0.0534058-0.2937012,0.2944946c0,0.295105,0.0270386,0.4017944,0.1334229,0.4017944
			c1.0151978-0.0266724,1.7362061-0.0266724,2.5908203-0.0266724c0.6135864,0,2.2694702,0.0266724,2.9101563,0.0266724
			c0.2131348,0.0267334,0.2131348-0.0266724,0.2131348-0.375061c0-0.2678223-0.0795288-0.2678223-0.3471069-0.2678223
			c-1.0410156,0-1.6281128-0.5361938-1.6281128-1.4741821c0-0.4284058,0.1060181-1.0718994,0.5603027-2.3583374
			c0,0,0.4807739-1.4475098,0.774292-2.331604h5.527832c0.3200684,0.8840942,0.8006592,2.1705322,1.2276001,3.350708
			c0.2941895,0.8030396,0.4541016,1.4191895,0.4541016,1.7147827c0,0.8835449-0.7478027,1.0719604-1.4954224,1.0719604
			c-0.239624,0-0.2670898,0.0266724-0.2670898,0.3756714c0,0.3206177,0.0274658,0.3477783,0.2940674,0.3477783
			c0.8011475-0.0271606,1.5754395-0.053894,2.3494873-0.0805664c1.1484375-0.026123,2.2698364,0.0266724,3.4438477,0.0534058
			c0.3212891,0,0.3479004-0.0267334,0.3479004-0.4017944C87.6541138,24.1937866,87.6005859,24.1671143,87.4672241,24.1671143z
			 M76.0383911,17.2789917c0.8546143-2.4127197,1.7095947-4.7977295,2.5106812-7.2092896
			c0.8013306,2.3850098,1.6817017,4.7965698,2.4559937,7.2092896H76.0383911z M91.9237671,7.6831055
			c-1.0144653,0-2.243042-0.0533447-2.6434937-0.0533447c-0.2407837,0-0.2669067,0.0266113-0.2669067,0.4023438
			c0,0.2677612,0.026123,0.321106,0.1867065,0.3483887c0.6144409,0.0800171,1.3881226,0.0532837,1.7092285,0.6694946
			c0.1865234,0.3485107,0.2399902,0.8312988,0.2399902,2.3049927c0,3.2973022,0.0267944,6.5936279,0,9.8630981
			c0,1.661499-0.1071777,2.1437988-0.4807739,2.4934082c-0.3738403,0.3477783-1.0679321,0.4016724-1.5489502,0.4016724
			c-0.1327515,0-0.1864624,0.0539551-0.1864624,0.3484497c0,0.4017944,0.0267944,0.4289551,0.5614624,0.4289551
			c0.5335083-0.0271606,2.5895996-0.0805664,2.9627075-0.0805664c1.2554321-0.026123,2.5101929,0.0534058,3.7390137,0.0534058
			c0.2667236,0,0.293335-0.0795288,0.293335-0.5090332c0-0.2139893-0.0266113-0.2678833-0.1604004-0.2678833
			c-1.3617554-0.0532837-2.5097046-0.0532837-2.6694336-1.5275269c-0.0803223-0.8045654-0.1337891-1.9303589-0.1071777-4.1013794
			v-2.1710205c0.9350586,0,0.506897,0,1.281311,0c1.0957642,0,2.0026855,0,2.7236938,0.0533447
			c0.8010864,0.053894,1.4416504,0.348999,1.8162842,1.0196533c0.159668,0.2678223,0.2399902,0.5890503,0.2399902,0.937439
			c0.0267944,0.1878052,0.0537109,0.2406006,0.3737793,0.2406006c0.2937012,0,0.3470459-0.0527954,0.3470459-0.1856079
			c0-0.7246094-0.0267334-0.8051758-0.0533447-1.9581909c0-1.4470215,0.0533447-1.9559326,0.079895-2.9484253
			c0-0.1867065-0.079895-0.2133789-0.3202515-0.2133789c-0.2408447,0-0.3468018,0.0540161-0.3468018,0.2133789
			c-0.0535278,0.3745117-0.1606445,0.7241211-0.3479004,1.019104c-0.4534302,0.8306885-1.2811279,0.9379883-2.1357422,0.9647217
			c-0.9885864,0.0271606-1.067749,0.0271606-2.3766479,0.0271606c-0.1330566,0-1.0413208-0.0271606-1.3079224-0.0271606V8.5415649
			c0.5601196,0,2.5629883-0.0265503,3.1242676-0.0265503c0.9605103-0.0267334,2.2963257-0.0812378,3.1499023,0.4277954
			c1.0421143,0.6161499,1.2286377,1.394165,1.4686279,2.3060913c0.0275879,0.1060791,0.1069946,0.1326904,0.2678223,0.1326904
			c0.3203735,0,0.4006958,0,0.4006958-0.1326904c0-0.7502441,0.0265503-2.359436,0.0523071-3.5925293
			c-0.9876099,0-2.6433105,0.0267334-3.951355,0.0267334H91.9237671z M117.5908203,20.5213013
			c-0.3735962-0.0794067-0.3995361-0.0533447-0.4800415,0.1072998c-0.5877075,1.3935547-1.1480713,2.2509766-1.8421631,2.7071533
			c-0.6939087,0.4562378-1.7092285,0.6429443-3.1509399,0.6429443c-1.1212769,0-3.2583008,0.0805664-3.6585693-1.2590942
			c-0.1599121-0.4551392-0.1328125-0.991333-0.1863403-3.4307251c-0.0271606-1.4208984-0.0271606-1.7153931-0.0271606-3.2429199
			c1.1483765,0,0.9353027,0,2.083313,0c1.5477905,0,2.2963867,0.0266113,2.6969604,0.1339111
			c0.9072876,0.1867065,1.3078003,0.991333,1.3078003,1.9014893c0,0.1883545,0.0535278,0.2156372,0.4273071,0.2156372
			c0.2937012,0,0.3471069,0,0.3471069-0.2406006c-0.0267944-0.8851929-0.0267944-1.7164917-0.0267944-2.4655151
			c0-0.8034668,0-1.5825806,0.0267944-2.3322144c0.0269165-0.1878052-0.0534058-0.2144775-0.3471069-0.2144775
			c-0.2935181,0-0.3201904,0.053894-0.3469849,0.2144775c-0.0532837,0.4818115-0.1873169,0.9647217-0.5076294,1.3670044
			c-0.4805908,0.5623169-0.9342041,0.5895386-2.2965698,0.5895386h-3.390686V8.5689087
			c0.3735962-0.0273438,2.6969604-0.053894,3.6575928-0.053894c1.5230103-0.0267334,2.2705078,0.1338501,2.9110718,0.4810791
			c0.7747192,0.4567871,1.2808838,1.2335815,1.414917,2.1715698c0.0269165,0.1873169,0.0269165,0.1873169,0.3203735,0.1873169
			c0.3203125,0,0.3469238,0,0.3203125-0.2944946c-0.026062-1.1791992-0.026062-2.2515869-0.026062-3.4041138
			c-1.4684448,0-7.4501343,0.0267334-8.9185181,0.0267334c-1.2821045,0.0271606-2.536438-0.0533447-3.7918091-0.0783081
			c-0.2664185,0-0.2935181,0.0249634-0.2935181,0.4273071c-0.0266113,0.321106,0,0.321106,0.2399902,0.321106
			c0.5874023,0,1.3088989,0.053894,1.5756226,0.6689453c0.1340332,0.348999,0.1340332,0.8864136,0.1873169,2.8151245
			c0.0258179,1.1536255,0.0258179,5.1204834,0.0258179,6.2730103c0,2.2238159,0,2.331604-0.0258179,3.1077881
			c0,1.4215088-0.0801392,1.8499146-0.3209229,2.2789307c-0.2669067,0.4550781-0.8012695,0.670105-1.6282959,0.670105
			c-0.2932739,0-0.347168,0-0.347168,0.2944946v0.1333618c0,0.3223267,0.053894,0.348938,0.3205566,0.348938
			c0.5603027,0,1.1213989-0.0266113,1.6817017-0.0533447c1.6022339-0.053894,4.0057373-0.0805664,5.7141113-0.0805664
			c1.9226074,0,3.8182983,0.1072998,5.7139282,0.0805664c0.0532837,0,0.0805664,0,0.1340942-0.2133789
			c0.239563-1.4752808,0.3466797-1.9309082,0.6939087-3.9135742
			C117.8051147,20.6018677,117.7783203,20.5751953,117.5908203,20.5213013z M135.4016113,6.9602051
			c-0.1340332-0.027832-0.1599121-0.027832-0.2935181,0.0799561c-0.1605835,0.1078491-0.2675781,0.2416992-0.7210083,0.4023438
			c-0.5341797,0.1622925-1.255188,0.2406006-2.322876,0.2406006c-4.3798218,0-1.8693237,0-6.2753296,0h-3.0975952
			c-0.7744751,0-1.6011963-0.1055908-2.1090088-0.6702271c-0.0795898-0.1071777-0.1071777-0.1339111-0.293457-0.1071777
			c-0.2131958,0-0.2400513,0.0545044-0.2400513,0.1616821c-0.0276489,0.6702271-0.1337891,1.6348267-0.293457,2.5183105
			c-0.1337891,0.7785034-0.1875,1.1264038-0.2410278,1.3413696c-0.1069946,0.5350952-0.0800781,0.5350952,0.3203125,0.562439
			c0.2410278,0.0266113,0.2935181,0,0.3482056-0.1867065c0.2666016-1.0458374,0.8267212-1.7703857,1.6547241-2.1983032
			c0.4799805-0.2416992,1.1213989-0.4022827,1.8956909-0.4556274c0.6416016-0.0272827,1.5218506-0.053894,2.6434937-0.053894
			c0.0266113,8.0405273,0.0266113,4.2608032,0,12.3013916c0,1.9031982-0.1607056,2.626709-1.0151978,3.001709
			c-0.3731079,0.1611938-1.0413208,0.1884155-1.3881226,0.1884155c-0.3203125-0.0272217-0.347168,0.0266724-0.347168,0.3751221
			c0,0.4017944,0.0268555,0.4017944,0.2937012,0.4017944c1.0420532,0,2.8571777-0.0795288,3.8716431-0.0534058
			c2.1367188,0,2.1367188,0.0534058,3.7115479,0.0534058c0.2675781,0.0271606,0.2941895-0.0267334,0.2941895-0.5090332
			c0-0.2678833-0.0535278-0.295105-0.1875-0.295105c-0.4002075,0-0.8276978,0.0272217-1.2276001-0.053894
			c-0.6143799-0.1072998-1.0150146-0.4017944-1.2282104-0.9641113c-0.1875-0.4822998-0.2678223-1.2057495-0.2678223-3.6723633
			c-0.0267944-3.4035034-0.0267944-7.3704834-0.0267944-10.7739258c0.6418457,0,2.9912109-0.026062,3.8984985,0.1605225
			c1.5223389,0.348999,1.9227295,1.0985718,2.0031128,2.5473022c0.0267944,0.1867065,0.0267944,0.1867065,0.293396,0.1867065
			c0.347229,0,0.4006958,0,0.4006958-0.1867065c0-0.2689819,0.0266113-0.1884155,0.2141113-4.1019897
			C135.6691895,7.0673828,135.642395,7.0401611,135.4016113,6.9602051z M143.9733887,24.0864868
			c-0.7478027-0.0532837-1.175293-0.2678223-1.3884888-0.7774048c-0.1871338-0.3756104-0.267395-0.9384766-0.267395-1.7692261
			c-0.0527344-6.8609009,0-0.2950439-0.0527344-8.8445435c-0.0268555-2.1966553,0.1329956-3.3241577,0.3730469-3.6992188
			c0.2138672-0.321106,0.4805908-0.5355835,0.9884033-0.5623169c0.453186-0.0266724,0.4807739-0.0532837,0.4807739-0.4284058
			c0-0.295105-0.0275879-0.3756104-0.2410278-0.3756104c-0.9338989,0.0533447-1.8153687,0.0805054-2.7237549,0.0805054
			c-1.0140991-0.0271606-2.0284424-0.0805054-3.0428467-0.0805054c-0.1872559,0-0.2407837,0.0533447-0.2668457,0.3484497
			c0,0.3483887,0,0.375,0.3463745,0.4022827c0.774292,0.0800171,1.2283936,0.2683716,1.4157104,0.6972656
			c0.1594849,0.3485107,0.2398071,0.911438,0.2398071,1.7687378c-0.0535278,3.8858643-0.0266113,3.3768921-0.0266113,9.0592041
			c0,2.4381714-0.0537109,2.8938599-0.2669067,3.37677c-0.2407227,0.5889893-0.8546143,0.7767944-1.5228271,0.7767944
			c-0.3200684,0-0.3461914,0.0272217-0.3461914,0.4023438c0,0.3483887,0.0537109,0.4017944,0.3742065,0.375061
			c0.9874268,0,1.9750366-0.0266724,2.9631958-0.0266724c0.9342041,0,1.8424072,0.0266724,2.8041992,0.0534058
			c0.5065918,0,0.5335083-0.0267334,0.5335083-0.4812012C144.3469849,24.1403809,144.2937012,24.1131592,143.9733887,24.0864868z
			 M162.4768677,20.307373c-0.2666016-0.0266724-0.3202515,0-0.3737793,0.2139282
			c-0.3466797,1.2069702-1.3880005,2.4934082-2.3765869,3.0822754c-1.1481323,0.6702271-2.5899048,0.8312988-3.9511108,0.6968994
			c-4.1397095-0.4290161-6.6760864-4.5020752-6.6760864-8.5223999c0-3.9407959,2.4561157-7.7727051,6.7830811-7.7727051
			c2.2952881,0,4.4855347,1.5009155,5.4465332,3.4841309c0.2138672,0.4016724,0.3202515,0.8311768,0.4001465,1.1256714
			c0.0273438,0.1072998,0.0807495,0.1340332,0.2680054,0.1340332c0.1060181,0,0.2398071,0,0.2924194-0.0267334
			c0.0814209,0,0.1072998-0.0271606,0.1072998-0.1072998c0-0.4016724-0.0258789-0.8306885-0.0258789-1.2335815
			c-0.0535889-1.3391113-0.0535889-1.3391113-0.0814209-2.9744873c-0.7467041,0.0811768-1.6813965-0.1326904-2.2954102-0.375
			c-1.4693604-0.5090332-2.6166992-0.8580322-4.0054932-0.8580322c-5.4207153,0-9.5059204,3.8325195-9.5059204,9.3275146
			c0,5.2000122,4.1121216,8.8179932,9.5059204,8.8179932c2.1890869,0,3.9522095-0.4829102,6.4349365-1.6080933
			c0.1068726-1.1791992,0.2665405-2.4127808,0.3468628-3.1901855
			C162.7973022,20.3612671,162.7703857,20.307373,162.4768677,20.307373z M170.6748657,14.7323608
			c-1.2542725-0.6168823-2.1099854-1.1802979-2.6434937-1.6881714c-0.5600586-0.5629272-0.7732544-1.1530151-0.8012695-1.8231201
			c0-0.8840942,0.3203125-1.6621094,0.9351196-2.2515869c0.6137695-0.5889893,1.3882446-0.9373779,2.2696533-0.9373779
			c0.8009033,0,1.5756226,0.2944946,2.2158203,0.8306885c0.640686,0.5357056,1.0947876,1.2603149,1.2822876,2.0910034
			c0.0524902,0.2406006,0.1328125,0.2406006,0.4273071,0.2406006c0.3461914,0,0.3999023-0.0534058,0.3729858-0.1605835
			c-0.0794678-1.2597046-0.1329956-2.0910034-0.2401733-3.350708c-1.5220947-0.3739014-2.482605-0.5350952-3.5516357-0.5350952
			c-1.708374,0-3.123291,0.5083618-4.1653442,1.3935547c-1.0140381,0.8847046-1.5475464,2.0638428-1.5475464,3.5112915
			c0,1.3925171,0.5870361,2.4655151,1.7617188,3.4035034c0.6672974,0.5090332,1.4151001,1.017395,3.3908691,2.0099487
			c1.2554321,0.6439819,2.0834351,1.1801758,2.5898438,1.769165c0.534668,0.5629272,0.7478638,1.2064209,0.7478638,2.0093384
			c0,0.8845825-0.347168,1.6619873-0.9874878,2.2521973c-0.6417847,0.5894775-1.4683838,0.9112549-2.4572144,0.9112549
			c-0.8278809,0-1.6021729-0.1878052-2.3219604-0.5895996c-1.1760864-0.6428833-2.0297241-1.7692871-2.2965088-3.1094971
			c-0.0535278-0.1878662-0.0803223-0.2144775-0.2407837-0.2144775c-0.1604004,0-0.347229,0.0266113-0.4275513,0.053894
			c-0.1070557,0.0532837-0.0802612,0.1878052-0.0802612,0.2150269c0.0269775,0.5350952,0.1339722,1.7686768,0.1605835,3.1611938
			v0.1344604c0.347229,0.2412109,0.8010864,0.4023438,1.1749878,0.5357056
			c0.9609375,0.402832,2.243042,0.7246094,3.5773926,0.7246094c1.8699951,0,3.4713135-0.6696167,4.619751-1.8225708
			c0.9080811-0.9380493,1.3880615-2.0644531,1.3880615-3.2702026c0-1.0991211-0.3203125-2.0371094-1.0412598-2.8143921
			C174.0391846,16.5549927,172.7044067,15.6969604,170.6748657,14.7323608z M178.9262695,9.4313965
			c-0.0028687-0.055603-0.0044556-0.1083984-0.0044556-0.1567383V9.12146c0-0.1054688-0.0385132-0.2126465-0.1133423-0.3244629
			c-0.0758667-0.1090088-0.1952515-0.178833-0.357666-0.2053833c0.128418-0.0193481,0.2280884-0.0539551,0.3006592-0.0999146
			c0.1353149-0.0891113,0.2032471-0.2258911,0.2032471-0.4130859c0-0.2644043-0.1079102-0.4403076-0.3228149-0.5306396
			c-0.1206055-0.0509644-0.3106079-0.0759888-0.5690918-0.0759888h-0.7299194v2.0933228h0.3676147V8.7418823h0.289917
			c0.194458,0,0.3308716,0.0227051,0.4084473,0.0670166c0.1311035,0.0783081,0.1964111,0.2388916,0.1964111,0.4799805v0.1652222
			l0.0082397,0.0668945c0.0012817,0.0084839,0.0032959,0.0175781,0.005188,0.0233154
			c0.00177,0.0067749,0.0032959,0.0146484,0.0053101,0.0209961h0.3433838l-0.0123901-0.026123
			C178.9359741,9.5221558,178.9295654,9.4863892,178.9262695,9.4313965z M178.3826904,8.4354858
			c-0.0772095,0.031189-0.194519,0.0471191-0.3504028,0.0471191h-0.3317871V7.723877h0.3139038
			c0.2045898,0,0.352417,0.0267334,0.4442139,0.0778198c0.0928955,0.0532837,0.1391602,0.1549072,0.1391602,0.3070068
			C178.5977783,8.2692871,178.5266113,8.3781738,178.3826904,8.4354858z M179.4434814,7.1791992
			c-0.369873-0.3710938-0.8187866-0.555542-1.3442993-0.555542c-0.5227661,0-0.9689941,0.1844482-1.3380737,0.555542
			c-0.3705444,0.3717041-0.5560913,0.8204956-0.5560913,1.3453979c0,0.5288086,0.18396,0.9799805,0.5513916,1.3521729
			c0.3685913,0.3745117,0.8162842,0.5612183,1.3427734,0.5612183c0.5255127,0,0.9744263-0.1867065,1.3442993-0.5612183
			c0.3710938-0.3739014,0.5570068-0.8250732,0.5570068-1.3521729
			C180.0004883,7.9985962,179.8145752,7.5496826,179.4434814,7.1791992z M179.2553711,9.6947021
			c-0.3173828,0.3222656-0.703064,0.4833984-1.156189,0.4833984c-0.4541626,0-0.8394775-0.1611328-1.1572876-0.4833984
			c-0.3145752-0.321228-0.4725952-0.7105103-0.4725952-1.1672974c0-0.4539185,0.1586914-0.8409424,0.475769-1.1604004
			c0.3191528-0.3228149,0.7036133-0.4846191,1.1541138-0.4846191c0.4515991,0,0.836792,0.1618042,1.156189,0.4846191
			c0.3168335,0.319458,0.4755249,0.7064819,0.4755249,1.1604004C179.730896,8.9841919,179.5722046,9.3734741,179.2553711,9.6947021z
			 M36.2000732,0c-3.9944458,0-7.6344604,1.5219116-10.3768921,4.0202637C23.0812988,1.5219116,19.440918,0,15.4467773,0
			C6.9158936,0,0,6.9419556,0,15.5045776c0,8.5632324,6.9158936,15.5046997,15.4467773,15.5046997
			c3.9941406,0,7.6345215-1.5236206,10.3764038-4.020874c2.7424316,2.4972534,6.3824463,4.020874,10.3768921,4.020874
			c8.5311279,0,15.4467163-6.9414673,15.4467163-15.5046997C51.6467896,6.9419556,44.7312012,0,36.2000732,0z M20.005127,25.0880737
			c-1.5085449,1.513916-3.6127319,2.3939819-6.067749,2.3939819c-1.7539063,0-3.4368896-0.4227905-4.699707-0.9509888
			c-0.491272-0.175354-1.0875854-0.3864746-1.543396-0.703064v-0.1765137
			c-0.0352783-1.8305054-0.1754761-3.4500122-0.2102661-4.1547241c0-0.0351563-0.0350342-0.2099609,0.1049805-0.2814941
			c0.1052856-0.0339966,0.3508911-0.0697632,0.5610962-0.0697632c0.2106934,0,0.2459106,0.0357666,0.3162842,0.2814941
			c0.3503418,1.7601929,1.4728394,3.2388916,3.0157471,4.0838013c0.9472046,0.52771,1.9645996,0.7733765,3.0517578,0.7733765
			c1.2974243,0,2.3850098-0.4215698,3.2266235-1.196106c0.8419189-0.7739868,1.2977905-1.7954102,1.2977905-2.9569092
			c0-1.0565796-0.2807617-1.901001-0.9823608-2.6397705c-0.6663208-0.7756348-1.75354-1.4793091-3.4022217-2.324707
			c-2.5952759-1.3023071-3.5773926-1.9713135-4.4542236-2.6398315c-1.5429077-1.2323608-2.3147583-2.6407471-2.3147583-4.4718628
			c0-1.8997803,0.7016602-3.4495239,2.0344849-4.6121216c1.3674927-1.1615601,3.2263794-1.8299561,5.4713745-1.8299561
			c1.4031372,0,2.6653442,0.2104492,4.6647339,0.7035522c0.1403809,1.6558228,0.2103882,2.7463989,0.3157959,4.3999023
			c0.0349121,0.1419067-0.0354004,0.2116089-0.4912109,0.2116089c-0.3856812,0-0.4910889,0-0.5612793-0.315979
			c-0.2457275-1.0911865-0.842041-2.0422363-1.6832275-2.7463989c-0.8416748-0.7036133-1.859314-1.0911865-2.9110718-1.0911865
			c-1.1576538,0-2.1750488,0.4578857-2.9811401,1.2324829c-0.8070068,0.7739868-1.2279663,1.7954102-1.2279663,2.9562988
			c0.0351563,0.8806763,0.3153687,1.6552124,1.0523682,2.3952026c0.7011108,0.6677856,1.8239136,1.4083862,3.4719849,2.2174683
			c2.6659546,1.2670898,4.4196167,2.394043,5.4014282,3.5204468c0.9468994,1.0213623,1.3677979,2.2532959,1.3677979,3.6973877
			C21.8287964,22.3773804,21.1975098,23.8555908,20.005127,25.0880737z M36.1818237,15.3757935H24.4945068v-0.6378174
			l9.0610962-1.925293l2.0083008-9.2390137h0.6179199V15.3757935z M48.2272949,16.4204712l-9.0847778,1.9259033
			l-1.9846191,9.2384033h-0.6174927v-11.802063h11.6868896V16.4204712z"/>
	</g>
</g>
</svg>
