<?xml version="1.0" encoding="utf-8"?>
<!-- Generator: Adobe Illustrator 22.1.0, SVG Export Plug-In . SVG Version: 6.00 Build 0)  -->
<svg version="1.1" id="Layer_1" xmlns="http://www.w3.org/2000/svg" xmlns:xlink="http://www.w3.org/1999/xlink" x="0px" y="0px"
	 width="154px" height="38px" viewBox="0 0 154 38" enable-background="new 0 0 154 38" xml:space="preserve">
<g>
	<g>
		<path fill="#0F141E" d="M101.0001831,19.0006104v2.0001831h2v-2.0001831H101.0001831z M108.0003052,30.0003052h2v-1.9991455h-2
			V30.0003052z M97.0001831,37.0001831h1.999939v-1.9995728h-1.999939V37.0001831z M93.0003052,36.0003662h1.9998779v-2.0001831
			h-1.9998779V36.0003662z M121.0001831,17.0014648h2v-2.0007935h-2V17.0014648z M125.0001221,2.0007935h-1.999939v1.9989624
			h1.999939V2.0007935z M128.0003052,3.9997559h-2.0001221v2.0008545h2.0001221V3.9997559z M132.0001831,0h-2.9997559v3.0010986
			h2.9997559V0z M100.0004272,33.0003662h2.9997559v-3.000061h-2.9997559V33.0003662z M125.5001221,7.0003662l-2.499939,2.5007324
			l2.499939,2.4989624l2.5001831-2.4989624L125.5001221,7.0003662z M122.0003052,6.0006104l-2-2.0008545l-1.9998779,2.0008545
			l1.9998779,1.9996948L122.0003052,6.0006104z M96.0001221,28.0011597l-1.9998169,1.9991455l1.9998169,2.0001831L98,30.0003052
			L96.0001221,28.0011597z M88.0001221,36.5003052L89.5,38.0006104l1.5001221-1.5003052L89.5,35.0006104L88.0001221,36.5003052z
			 M10.871582,22.1964111c-0.3997803-0.6151123-0.791687-1.1882324-1.1756592-1.7160034
			c-0.383728-0.5281982-0.7279053-0.9754028-1.0321045-1.3436279c2.223999-0.8001099,3.3364868-2.3276978,3.3364868-4.5844116
			c0-1.8084106-0.6362305-3.1520996-1.9082031-4.0315552C8.8201904,9.640686,6.9841919,9.2008667,4.5842285,9.2008667
			c-0.65625,0-1.4004517,0.0273438-2.2318115,0.0840454C1.5197754,9.3410645,0.7355957,9.4489136,0,9.6088867v16.3916016h3.0241699
			v-6.2883911h1.9200439c0.1593628,0,0.3513794-0.0073242,0.5759888-0.0238037
			c0.303772,0.383606,0.631897,0.8204956,0.9838257,1.3078613c0.3517456,0.4880371,0.7080688,1.0084229,1.0680542,1.5599365
			c0.3596191,0.552063,0.7155151,1.1212769,1.0678101,1.7045898c0.3519897,0.5839233,0.6801147,1.1633301,0.984314,1.7398071
			h3.3839111c-0.2880249-0.6242065-0.616333-1.2597046-0.9841309-1.9077759
			C11.6560059,23.4436035,11.2717285,22.8120117,10.871582,22.1964111z M8.5441895,15.8723145
			c-0.1920166,0.352356-0.4765015,0.6326904-0.8521118,0.8397827c-0.3760986,0.208313-0.8442993,0.352417-1.4043579,0.432373
			c-0.5599365,0.0806274-1.2080078,0.1203003-1.9437256,0.1203003H3.0241699v-5.3764648
			c0.5436401-0.0476074,1.1356201-0.0715332,1.7759399-0.0715332c0.5917969,0,1.1356201,0.0443115,1.6317139,0.1322021
			c0.4959717,0.0880127,0.9245605,0.236084,1.2841797,0.4437866c0.3599854,0.2077026,0.6361694,0.4880371,0.828186,0.8398438
			c0.1918945,0.3518066,0.2877808,0.7835693,0.2877808,1.2954102C8.8319702,15.0728149,8.736084,15.5210571,8.5441895,15.8723145z
			 M19.1519775,13.1366577c-0.7356567,0-1.4560547,0.1401367-2.15979,0.4205322
			c-0.7044067,0.2791138-1.3284912,0.6950684-1.8717041,1.2471924c-0.5443726,0.552124-0.9807739,1.2443848-1.3084106,2.0756836
			c-0.328064,0.8323975-0.4921875,1.8010254-0.4921875,2.9047241c0,0.9436035,0.1281128,1.8117676,0.3845215,2.6044922
			c0.2559204,0.7910156,0.6477661,1.4799194,1.1757202,2.0637817c0.5281982,0.583313,1.2001953,1.0401001,2.0162964,1.3674927
			c0.8155518,0.3274536,1.7757568,0.4920044,2.8797607,0.4920044c0.4319458,0,0.8557129-0.0232544,1.2720947-0.0720825
			c0.4158325-0.0476685,0.8040161-0.1083984,1.1640015-0.1798706c0.3597412-0.0720215,0.6794434-0.1520996,0.9597168-0.2400513
			c0.2797852-0.0879517,0.5-0.171875,0.6602783-0.2524414l-0.3843994-2.3759155
			c-0.3357544,0.144165-0.7955933,0.2802734-1.3798828,0.4085693c-0.5839844,0.1276855-1.2279663,0.1918335-1.9321899,0.1918335
			c-1.199585,0-2.1157227-0.2758179-2.7473755-0.8279419c-0.6321411-0.5515747-0.9882202-1.3317871-1.0682983-2.3400879h8.2801514
			c0.015625-0.1599731,0.0276489-0.3399048,0.0358276-0.5396729c0.0083008-0.2003174,0.012207-0.380127,0.012207-0.5402222
			c0-2.1278076-0.4841309-3.7279663-1.4522095-4.7998657C22.227478,13.6734619,20.8803101,13.1366577,19.1519775,13.1366577z
			 M16.343811,18.4887085c0.048584-0.3682251,0.1359863-0.7280273,0.2642822-1.0792236
			c0.1279907-0.3530273,0.3081055-0.6655884,0.539917-0.9368896c0.2321167-0.2712402,0.5164185-0.4924927,0.8522949-0.6593018
			c0.3358765-0.1680298,0.7279663-0.2531128,1.1759033-0.2531128c0.4320679,0,0.8040161,0.0765991,1.1159058,0.2286987
			c0.3121948,0.1520996,0.5761108,0.3596802,0.7921753,0.6229858c0.2155151,0.2650146,0.3798218,0.5760498,0.4921265,0.9368896
			c0.1113892,0.3597412,0.1679688,0.7393188,0.1679688,1.1399536H16.343811z M34.6920166,14.5042114
			c-0.3919067-0.4318237-0.9158936-0.7677002-1.5718994-1.0078125c-0.6560059-0.2399902-1.4639282-0.3597412-2.4243164-0.3597412
			c-0.8001099,0-1.5518188,0.0641479-2.2554932,0.1918335c-0.7042236,0.1281738-1.2404785,0.2559204-1.6082153,0.383606
			l0.3602295,2.3526001c0.3511963-0.1282959,0.8074951-0.2401123,1.367981-0.3359985
			c0.5593872-0.0964355,1.1757202-0.1447144,1.8477173-0.1447144c0.4958496,0,0.907959,0.064209,1.236084,0.1923828
			c0.3278809,0.1282349,0.5919189,0.3093262,0.7921753,0.5402222c0.199707,0.2321167,0.3392334,0.5004883,0.4199219,0.8040771
			c0.0795288,0.3041382,0.1201782,0.6241455,0.1201782,0.960144v0.4799805
			c-0.4006958-0.0964966-0.7763672-0.1640015-1.1286011-0.2042847c-0.3520508-0.0397339-0.6878662-0.0595093-1.0076904-0.0595093
			c-0.6881104,0-1.3482056,0.0675049-1.9798584,0.203064c-0.6325073,0.1367188-1.1879272,0.3603516-1.6679077,0.6724243
			c-0.4802246,0.3120728-0.8605347,0.7155151-1.1403198,1.2114868c-0.2799072,0.496521-0.4199219,1.104187-0.4199219,1.8248901
			c0,0.7524414,0.1240234,1.3839111,0.3721924,1.8952026c0.2480469,0.5130005,0.5917358,0.9283447,1.0314331,1.2484131
			c0.4401245,0.3206177,0.9721069,0.5526123,1.5963745,0.6967773c0.6241455,0.1435547,1.3118286,0.2150269,2.0637207,0.2150269
			c1.1358032,0,2.1558838-0.0681152,3.0604858-0.2036743c0.9036255-0.1362305,1.5800171-0.2531128,2.0275879-0.3478394v-7.6081543
			c0-0.7360229-0.0840454-1.4118042-0.2520752-2.0275269C35.3640747,15.4608765,35.0841064,14.9371948,34.6920166,14.5042114z
			 M32.9763794,23.8164063c-0.4643555,0.0958862-1.1447754,0.144104-2.039978,0.144104
			c-0.7363281,0-1.3203735-0.1322021-1.7520142-0.3955078c-0.4320679-0.2650146-0.6485596-0.7405396-0.6485596-1.4282227
			c0-0.352417,0.079895-0.6439819,0.2403564-0.876709c0.1593018-0.2315063,0.3717041-0.4119873,0.6362305-0.5390625
			c0.2636719-0.1276245,0.5592651-0.2167358,0.8873901-0.2644043c0.3278809-0.0482178,0.6520996-0.0726318,0.9724731-0.0726318
			c0.3674316,0,0.7036133,0.0244141,1.0078125,0.0726318c0.3034058,0.0476685,0.5361938,0.0952759,0.6962891,0.144104V23.8164063z
			 M41.3756104,23.2523804c-0.144104-0.1679688-0.2440186-0.3717041-0.2999268-0.6116943
			c-0.0559692-0.2412109-0.0838013-0.5363159-0.0838013-0.8881226V7.3765869l-2.9042969,0.4801025v14.4481201
			c0,0.6240845,0.0679321,1.1796875,0.2040405,1.6681519c0.1358032,0.4880371,0.3720703,0.8954468,0.7080688,1.2234497
			c0.3358765,0.3273926,0.7880859,0.5804443,1.3560181,0.7557983c0.567688,0.1764526,1.2841797,0.2717896,2.1477661,0.288269
			l0.4084473-2.3997192c-0.3839111-0.0481567-0.7003174-0.1157837-0.9483032-0.2042847
			C41.7155762,23.548584,41.5197754,23.4197998,41.3756104,23.2523804z M50.3400879,23.6245728
			c-0.4082642,0.1118164-0.8757935,0.1680298-1.4038696,0.1680298c-0.7680054,0-1.312439-0.2156982-1.6323242-0.6486206
			c-0.3203125-0.4312744-0.4799805-1.1513062-0.4799805-2.159668v-5.1119995h4.4638672v-2.4230347h-4.4638672V9.6565552
			l-2.9039307,0.4801025v10.871521c0,0.8323975,0.0718994,1.5723267,0.2160034,2.2208862
			c0.144043,0.6480103,0.3919067,1.199646,0.7442017,1.6547241c0.3514404,0.4572754,0.8279419,0.8051147,1.4274902,1.045166
			c0.6002197,0.2394409,1.3482056,0.3603516,2.2444458,0.3603516c0.7357788,0,1.3757935-0.0765991,1.9197998-0.2286987
			c0.5437622-0.1520996,0.9842529-0.3002319,1.3203735-0.4437256L51.3120728,23.3125
			C51.0720825,23.4089966,50.748291,23.5122681,50.3400879,23.6245728z M62.2800293,14.9371948
			c-0.5276489-0.5770874-1.1640015-1.0209351-1.9081421-1.3323975c-0.7439575-0.3121338-1.5562744-0.4681396-2.4361572-0.4681396
			c-0.8796997,0-1.6880493,0.1560059-2.4238281,0.4681396c-0.7359009,0.3114624-1.3721313,0.7553101-1.9077148,1.3323975
			c-0.5365601,0.5758667-0.9519653,1.2669678-1.2479858,2.0750732c-0.2965088,0.8085938-0.444519,1.7084961-0.444519,2.6998291
			c0,0.9918823,0.1480103,1.8963623,0.444519,2.711792c0.2960205,0.8170776,0.7080688,1.512207,1.2359009,2.0886841
			c0.52771,0.5759888,1.1596069,1.024292,1.895874,1.3442993c0.7358398,0.3189087,1.5519409,0.4794922,2.4477539,0.4794922
			c0.8959961,0,1.7163696-0.1605835,2.4606934-0.4794922c0.7432861-0.3200073,1.3796997-0.7683105,1.9072876-1.3442993
			c0.5280762-0.5764771,0.9360962-1.2716064,1.2243042-2.0886841c0.2880859-0.8154297,0.4321899-1.7199097,0.4321899-2.711792
			c0-0.991333-0.1483765-1.8912354-0.4445801-2.6998291C63.2199707,16.2041626,62.8078003,15.5130615,62.2800293,14.9371948z
			 M60.1798706,22.7127075c-0.5359497,0.7359619-1.2837524,1.1036987-2.2441406,1.1036987
			c-0.960022,0-1.7080078-0.3677368-2.2437134-1.1036987c-0.5366211-0.7359009-0.8041992-1.7363281-0.8041992-3.0006104
			c0-1.2478027,0.2675781-2.2362061,0.8041992-2.9631348c0.5357056-0.7279663,1.2836914-1.0935059,2.2437134-1.0935059
			c0.9603882,0,1.7081909,0.3655396,2.2441406,1.0935059c0.5362549,0.7269287,0.8044434,1.715332,0.8044434,2.9631348
			C60.984314,20.9763794,60.7161255,21.9768066,60.1798706,22.7127075z M72.0961304,13.315979
			c-0.2565308-0.0391846-0.5123291-0.0720825-0.7684326-0.0952759c-0.2562256-0.0244141-0.4796143-0.0363159-0.6715698-0.0363159
			c-1.0246582,0-1.9562378,0.0924072-2.7960205,0.2763062c-0.8403931,0.1837769-1.5407104,0.380188-2.1000977,0.5883789v11.951416
			h2.9038696V15.944397c0.1437988-0.0477295,0.3956299-0.1033325,0.7557983-0.1680298
			c0.3602295-0.0640869,0.699646-0.0958862,1.0198975-0.0958862c0.5599976,0,1.0524292,0.0443115,1.4761963,0.1328125
			c0.4238281,0.0874023,0.7557983,0.1707764,0.9960327,0.2514038l0.5039063-2.4473877
			c-0.1439209-0.0488281-0.3359375-0.1004028-0.5759277-0.1566162
			C72.5996094,13.4050903,72.3519287,13.3568726,72.0961304,13.315979z M90.4434814,17.1557617
			c0.343689-0.6950684,0.5158081-1.5314941,0.5158081-2.5075073c0-1.8713989-0.6444702-3.2479858-1.9318848-4.1274414
			c-1.2879028-0.880127-3.1403809-1.3199463-5.5567017-1.3199463c-0.7185059,0-1.5076904,0.0273438-2.3632813,0.0840454
			c-0.8554077,0.0561523-1.6362305,0.1640015-2.3397217,0.3239746v16.3916016h3.0236816v-5.8560181h1.5114136
			c1.2166748,0,2.296875-0.1037598,3.2404175-0.3120728c0.944458-0.2076416,1.7439575-0.5317383,2.4005737-0.9719849
			C89.5996094,18.420105,90.0996704,17.8532104,90.4434814,17.1557617z M86.6154175,16.9407959
			c-0.7839966,0.407959-1.9042969,0.6116943-3.359314,0.6116943h-1.4647217v-5.6641846
			c0.4960327-0.0476074,1.1288452-0.0715332,1.8963013-0.0715332c0.5762939,0,1.1152344,0.0443115,1.6203003,0.1322021
			c0.5039063,0.0880127,0.9393921,0.236084,1.3074341,0.4437866c0.3682861,0.2077026,0.656189,0.4959106,0.864502,0.8636475
			c0.2077026,0.3682861,0.3112793,0.8244629,0.3112793,1.368103C87.7911987,15.7611084,87.3986206,16.5333862,86.6154175,16.9407959
			z M95.3029785,13.4492798h-2.9042969v12.5512085h2.9042969V13.4492798z M93.8392944,11.5523682
			c0.479187,0,0.8952026-0.1599731,1.2476807-0.4794922c0.3516235-0.3206177,0.5284424-0.7523804,0.5284424-1.2960205
			c0-0.5600586-0.1768188-0.9992676-0.5284424-1.3203735c-0.352478-0.319519-0.7684937-0.4801025-1.2476807-0.4801025
			c-0.4962769,0-0.9210815,0.1605835-1.272522,0.4801025c-0.3518677,0.321106-0.5274658,0.7603149-0.5274658,1.3203735
			c0,0.5436401,0.1755981,0.9754028,0.5274658,1.2960205C92.9182129,11.392395,93.3430176,11.5523682,93.8392944,11.5523682z
			 M132.4475098,12.824585c-0.7352295,0-1.4552002,0.1401978-2.1589966,0.4193115
			c-0.7042847,0.2808838-1.3292236,0.6967773-1.8721924,1.2484131c-0.5449219,0.5526733-0.9805908,1.2443848-1.3087158,2.0761719
			c-0.3278809,0.8319092-0.4923096,1.7999268-0.4923096,2.9041748c0,0.9442139,0.1290283,1.8118286,0.3847046,2.6039429
			c0.2562256,0.7915649,0.6484985,1.4793701,1.1757202,2.0643921c0.5288086,0.5839233,1.2003784,1.0394897,2.0158691,1.3668823
			c0.8165283,0.3286133,1.7763062,0.4926147,2.8812256,0.4926147c0.4312134,0,0.8551636-0.0239258,1.2711792-0.0715332
			c0.4158325-0.0482788,0.8048096-0.1083984,1.1640015-0.180481c0.3596191-0.0725708,0.6799316-0.1519775,0.960022-0.2406006
			c0.2800903-0.086792,0.5-0.1707764,0.6600952-0.2512817l-0.3839111-2.3759155
			c-0.3356934,0.1436157-0.7966919,0.2803345-1.3804932,0.4074097c-0.5842896,0.1282959-1.2276001,0.1923828-1.9318848,0.1923828
			c-1.1992188,0-2.1152954-0.2757568-2.7479248-0.8278809c-0.631897-0.5515747-0.9882202-1.3322754-1.0687866-2.3400879h8.2816162
			c0.0157471-0.1600342,0.0273438-0.3405151,0.0351563-0.5408325c0.0078125-0.1986084,0.0117188-0.3789673,0.0117188-0.5390015
			c0-2.128479-0.4835205-3.7286987-1.4511108-4.7999878C135.5236206,13.3607788,134.1759033,12.824585,132.4475098,12.824585z
			 M129.6397705,18.1754761c0.0479126-0.3676758,0.1358032-0.7263184,0.2647095-1.0786743
			c0.1271362-0.3529053,0.3074951-0.6639404,0.5392456-0.9362183c0.2323608-0.2717896,0.5162964-0.4926147,0.8526001-0.6599731
			c0.3354492-0.1679077,0.727356-0.2525024,1.1756592-0.2525024c0.4326172,0,0.8035889,0.0760498,1.1160278,0.2276001
			c0.3126831,0.1531982,0.5764771,0.3602905,0.7921753,0.6253052c0.2156372,0.2637939,0.3796387,0.5758667,0.4921875,0.9350586
			c0.1113281,0.3602905,0.1678467,0.7405396,0.1678467,1.1394043H129.6397705z M143.0560303,22.9403076
			c-0.1438599-0.1680298-0.2441406-0.3717041-0.2999268-0.6116943c-0.0565796-0.2400513-0.0841064-0.5368042-0.0841064-0.8881226
			V7.0645752l-2.9041138,0.4799805v14.4481201c0,0.6229858,0.0682983,1.1796875,0.2042236,1.6682129
			c0.1356201,0.4879761,0.3718872,0.8959961,0.7077637,1.2229004c0.3359375,0.3284912,0.788208,0.5809937,1.3554077,0.7562866
			c0.5682983,0.175415,1.2852173,0.2723999,2.1483154,0.2888794l0.4086304-2.4002686
			c-0.3839111-0.0482178-0.7003174-0.116272-0.9483032-0.2042847
			C143.3956909,23.2365112,143.1992798,23.1081543,143.0560303,22.9403076z M153.7844238,20.9127808
			c-0.1433105-0.4000244-0.3722534-0.7564087-0.6846313-1.0684204c-0.3114014-0.3115845-0.7072144-0.5918579-1.1875-0.8399048
			c-0.4804077-0.2478638-1.0645142-0.4998779-1.7520142-0.7562866c-0.4159546-0.1435547-0.7674561-0.2825928-1.0568848-0.4199829
			c-0.2868042-0.1356201-0.5192871-0.2717896-0.6948853-0.4074097c-0.1757813-0.1356201-0.3010864-0.2843018-0.3721924-0.4436646
			c-0.0720215-0.1600342-0.1086426-0.3439331-0.1086426-0.5527344c0-0.4154053,0.1838379-0.723999,0.5530396-0.9237671
			c0.3671875-0.199707,0.8475952-0.3001099,1.4393921-0.3001099c0.656189,0,1.2324829,0.0600586,1.7283936,0.1798096
			c0.4954224,0.1203003,0.9036255,0.2519531,1.2238159,0.3960571l0.5281982-2.3519897
			c-0.3359375-0.1282959-0.8397827-0.2598877-1.5115967-0.3961182c-0.6727295-0.1349487-1.3770142-0.2036743-2.1133423-0.2036743
			c-1.4549561,0-2.6072998,0.3319092-3.454895,0.9953003c-0.8487549,0.6638794-1.272583,1.5723267-1.272583,2.7236938
			c0,0.5928955,0.0917969,1.0933838,0.2761841,1.5007935c0.1838379,0.4086304,0.435791,0.7559204,0.7562256,1.0441284
			c0.3203125,0.288269,0.6992188,0.5396729,1.1405029,0.7558594c0.4395142,0.2167358,0.9237671,0.4204102,1.4511108,0.6122437
			c0.8640747,0.3200073,1.4842529,0.6156616,1.8601685,0.8874512c0.3760376,0.2723999,0.5635376,0.6162109,0.5635376,1.0327148
			c0,0.4476929-0.1755981,0.7637939-0.5273438,0.9476318c-0.352356,0.1849976-0.9118652,0.2763672-1.6795654,0.2763672
			c-0.7686157,0-1.4534302-0.0799561-2.0530396-0.2406006c-0.5993042-0.1594849-1.1147461-0.3273926-1.5475464-0.5039063
			l-0.5039063,2.4241333c0.2714844,0.1123047,0.7428589,0.2592773,1.4160767,0.4442749
			c0.6716919,0.1832886,1.5595703,0.2758179,2.6629028,0.2758179c1.6484985,0,2.9160156-0.3082275,3.8049927-0.9238281
			c0.8883057-0.6156616,1.3319092-1.5241699,1.3319092-2.7236938
			C154.0003052,21.7918091,153.9281006,21.3128662,153.7844238,20.9127808z M122.0003052,12.6112061l-2.3046875-2.305542
			l-0.0003052,0.0003052l-2.3054199-2.3056641l-6.3895874,6.3898926l-6.3895874-6.3898926l-2.3054199,2.3057251
			l-0.0004272-0.0003662l-2.3044434,2.305542l6.3892822,6.3894043l-6.3892822,6.3892822l2.3044434,2.3060913l0.0007935-0.0007935
			l2.3050537,2.3051147l6.3895874-6.3898926l6.3895874,6.3898926l2.3049927-2.3049927l0.0007324,0.0006714l2.3046875-2.3060913
			l-6.3895874-6.3892822L122.0003052,12.6112061z M112.0001831,20.0014648l-0.9998779,2.9984131l-1-2.9995117l-2.9998779-0.9997559
			h0.0019531L107.0004272,19l2.9998779-0.9998169l1-2.9995117l0.9998779,2.9995117l3,1.0004272L112.0001831,20.0014648z"/>
	</g>
</g>
</svg>
