<?xml version="1.0" encoding="utf-8"?>
<!-- Generator: Adobe Illustrator 22.1.0, SVG Export Plug-In . SVG Version: 6.00 Build 0)  -->
<svg version="1.1" id="Layer_1" xmlns="http://www.w3.org/2000/svg" xmlns:xlink="http://www.w3.org/1999/xlink" x="0px" y="0px"
	 width="160px" height="27px" viewBox="0 0 160 27" enable-background="new 0 0 160 27" xml:space="preserve">
<g>
	<g>
		<path fill="#0F141E" d="M101.3931885,0.6801758l0.0291138,0.0366211h-13.605835v19.1096802
			c0,3.6351929,2.927002,6.5820313,6.5378418,6.5820313h7.0388794c7.0570068-0.0046997,12.7738037-5.7681274,12.769104-12.8728027
			C114.1574707,6.4378052,108.4434204,0.6848755,101.3931885,0.6801758z M99.9807129,20.9454956
			c-0.1392822,0.0043945-0.2787476,0.00354-0.4180298,0h-4.4819946V6.1798096h4.4384155
			c4.0499878-0.1282959,7.4365234,3.0730591,7.5639648,7.1504517
			C107.2105103,17.4077148,104.0307007,20.8170776,99.9807129,20.9454956z M23.3179932,0.7094116l-7.6563721,17.1717529
			L9.5596924,4.1906128C8.6157837,2.0731812,6.5256958,0.7105103,4.22052,0.7094116H0l9.7266846,21.8230591
			c1.0531006,2.3818359,3.4034424,3.9133301,5.993042,3.9053345h4.1333008L31.3231201,0.7094116H23.3179932z
			 M116.2556763,19.8264771c0,3.6351929,2.927002,6.5820313,6.5378418,6.5820313h0.7263794V0.7167969h-7.2642212V19.8264771z
			 M43.9699707,0c-8.0994873,0-14.6662598,6.0408936-14.6662598,13.5004883s6.5376587,13.5003662,14.6662598,13.5003662
			s14.6664429-6.0407715,14.6664429-13.5003662S52.0695801,0,43.9699707,0z M43.9699707,21.5012817v0.0073242
			c-4.0751953,0-7.3730469-3.5834961-7.3730469-8.0081177s3.276062-8.0081177,7.3730469-8.0081177
			c4.0970459,0,7.3731079,3.5834961,7.3731079,8.0081177S48.0452271,21.5012817,43.9699707,21.5012817z M146.0532837,14.9558105
			c-0.651062-0.7064209-1.4870605-1.2133179-2.4116821-1.4626465c1.0147095-0.2218018,1.9523926-0.7114868,2.7167969-1.4187622
			c0.7529907-0.7463379,1.3875122-1.6046143,1.8814087-2.545105l4.8815918-8.776001h-4.9468994
			c-1.9761963-0.0010986-3.8009033,1.0654907-4.7799072,2.7937012l-2.1791992,3.890686
			c-0.5452271,1.0775146-1.3129883,2.0250854-2.2518921,2.7791138c-0.8018188,0.5778809-1.7672119,0.8803711-2.7531128,0.8629761
			h-2.9057007V0.7167969h-7.3513184v19.1096802c0,3.6351929,2.927002,6.5820313,6.5377197,6.5820313h0.7263794V16.1112671h2.9057007
			c0.9943237-0.0263672,1.9662476,0.2998047,2.7459106,0.9215088c0.90271,0.7855835,1.6687012,1.7175293,2.2664185,2.7572021
			l2.5859985,4.0881348c1.0109253,1.5960693,2.7615967,2.5614624,4.6417847,2.5596924h5.2955933l-5.4262695-8.7907104
			C147.6016846,16.6756592,146.8712769,15.7736816,146.0532837,14.9558105z M81.4312744,16.7915039
			c-0.5512695-0.5908203-1.2227783-1.0548096-1.9685669-1.3602905c4.0200806-0.3605347,6.9887085-3.9336548,6.6306763-7.980957
			c-0.3336792-3.7722778-3.4573975-6.6732788-7.2191162-6.7042847H60.5178223v19.1098022
			c0,3.6351318,2.927002,6.5820313,6.5376587,6.5820313h0.7264404v-9.7706299h2.9057007
			c1.7821045,0,3.2906494,0.9750366,4.5255737,2.925293l2.7167969,4.2783203
			c1.0112305,1.5911255,2.7583008,2.5532227,4.6345215,2.5523682h5.2519531l-4.2930908-6.8526001
			C82.9141235,18.5802002,82.2136841,17.6497803,81.4312744,16.7915039z M76.1937866,11.5844116h-8.3754883V6.1798096h8.3754883
			c1.4824219,0,2.6842041,1.2098999,2.6842041,2.7022705C78.8779907,10.3745117,77.6762085,11.5844116,76.1937866,11.5844116z
			 M154.3853149,1.0969849h0.9298096l-0.0072021,2.7498779h0.3994751V1.0969849h0.9370728V0.7605591h-2.2591553V1.0969849z
			 M159.8189087,0.7313843h-0.5012207l-0.5447998,1.4627075c-0.1307983,0.3875732-0.2396851,0.7313232-0.3195801,1.0383911
			c-0.0726929-0.3070679-0.1817017-0.6582031-0.3051147-1.0383911l-0.5230713-1.4627075h-0.5012207l-0.2106934,3.0789185h0.3778076
			l0.079895-1.3164063c0.0581055-0.4606934,0.0581055-0.9800415,0.0581055-1.3602905
			c0.0871582,0.3583984,0.2106934,0.7605591,0.355896,1.1920776l0.4939575,1.4627075h0.3196411l0.5375977-1.4627075
			c0.1524658-0.4387817,0.2832642-0.8118286,0.3850098-1.170105c-0.0073242,0.3876343,0.0435791,0.8995361,0.0435791,1.3309937
			l0.0581055,1.3237305h0.3850098L159.8189087,0.7313843z"/>
	</g>
</g>
</svg>
