<?xml version="1.0" encoding="utf-8"?>
<!-- Generator: Adobe Illustrator 22.1.0, SVG Export Plug-In . SVG Version: 6.00 Build 0)  -->
<svg version="1.1" id="Layer_1" xmlns="http://www.w3.org/2000/svg" xmlns:xlink="http://www.w3.org/1999/xlink" x="0px" y="0px"
	 width="130px" height="42px" viewBox="0 0 130 42" enable-background="new 0 0 130 42" xml:space="preserve">
<g>
	<g>
		<path fill="#0F141E" d="M109.4749146,0C98.1384888,0,88.9486084,9.4017944,88.9486084,21.0001831
			c0,11.5977783,9.1898804,21.0003052,20.5263062,21.0003052c11.3359985,0,20.5258789-9.4025269,20.5258789-21.0003052
			C130.0007935,9.4017944,120.8109131,0,109.4749146,0z M94.2316895,23.0423584c0,0-1.0625-1.7879639-1.0625-5.5471802
			c0-10.3948975,8.9287109-13.8427124,8.9287109-13.8427124s-3.1099243,2.8547974-3.1099243,4.8391113l8.6470337,3.2106323
			c0,0,0.9483643-3.9210205,4.7251587-3.9210205c2.3161011,0,3.7921143,1.6580811,3.7921143,3.2791748
			c0,3.0579224-2.2095947,4.8431396-10.1309814,6.6702271C98.0775757,19.5628662,94.2316895,23.0423584,94.2316895,23.0423584z
			 M119.5396729,36.8731079l1.1119385-3.2072144l-8.0067139-3.1787109l-1.2015991,2.7634277l-9.1917725-3.0471191
			c0,0,3.3652954-3.1271973,12.2071533-4.8618164c8.378418-1.6438599,10.3544922-6.3745728,10.3544922-6.3745728
			s1.041626,2.1981812,1.041626,5.5267944C125.8547974,32.7818604,119.5396729,36.8731079,119.5396729,36.8731079z
			 M24.3353882,5.2470093c-0.9349976,0-1.7074585,0.3120728-2.3167725,0.9351807
			c-0.6097412,0.6235962-0.9141235,1.3555908-0.9141235,2.1953735c0,0.8421021,0.3043823,1.5740967,0.9141235,2.1971436
			c0.609314,0.6246948,1.3817749,0.9350586,2.3167725,0.9350586c0.9353027,0,1.7211914-0.2978516,2.3587036-0.8919678
			c0.6381836-0.5935059,0.9564819-1.3408203,0.9564819-2.2402344c0-0.8970947-0.3182983-1.6438599-0.9564819-2.2384644
			C26.0565796,5.5448608,25.2706909,5.2470093,24.3353882,5.2470093z M21.2322998,38.9981079h6.1337891V16.4351807
			l-6.1337891-2.2844849V38.9981079z M78.0640259,16.5889893c-1.0569458-1.1320801-2.3086548-1.9871826-3.7572021-2.5626221
			c-1.4485474-0.5753784-3.0241089-0.8624878-4.7284546-0.8624878c-1.8394775,0-3.5519409,0.3223267-5.1362915,0.9675293
			c-1.5846558,0.6456909-2.956604,1.5513916-4.1148071,2.7196655c-1.1589966,1.168396-2.0699463,2.5795898-2.7346802,4.2359009
			c-0.6646118,1.6558228-0.9967651,3.4954224-0.9967651,5.5172119c0,2.0563965,0.3321533,3.8955078,0.9967651,5.5166016
			c0.6647339,1.6212158,1.5845337,2.9898071,2.760437,4.1054077c1.1754761,1.1162109,2.5632935,1.9786987,4.1658936,2.5874634
			c1.6012573,0.6100464,3.3555908,0.9153442,5.2646484,0.9153442c4.2451172,0,7.5588379-1.4282227,9.9472046-4.2778931
			l-5.5445557-2.0643311c-0.1851196,0.1237183-0.3706055,0.2462158-0.5696411,0.3552246
			c-1.0562744,0.5753784-2.3509521,0.8630981-3.8841553,0.8630981c-0.8867188,0-1.737915-0.1578369-2.555603-0.4710083
			c-0.8184204-0.3137817-1.5510254-0.7399902-2.1981201-1.2807007c-0.647583-0.5413818-1.1677246-1.1854248-1.559021-1.9349976
			c-0.3922729-0.7490234-0.6220093-1.5773926-0.6900635-2.4841919h18.6571045
			c0.0333862-0.2781372,0.0506592-0.5567017,0.0506592-0.8375244v-0.8358765c0-2.2658081-0.2987061-4.2449951-0.8938599-5.9354248
			C79.9464722,19.1350098,79.1203003,17.7221069,78.0640259,16.5889893z M62.7296143,23.9367065
			c0.1359863-1.779541,0.8430786-3.2327271,2.12146-4.3670044c1.2776489-1.1326294,2.8363037-1.6989136,4.6765137-1.6989136
			c0.9884033,0,1.8485107,0.1651001,2.5820923,0.4959106c0.7315063,0.3319702,1.3363037,0.7768555,1.8143921,1.3334961
			c0.4765015,0.5578003,0.8258057,1.2030029,1.0473022,1.9354858c0.2213135,0.732605,0.3326416,1.4992065,0.3326416,2.3010254
			H62.7296143z M51.8297729,16.3017578c-0.7331543-0.9407959-1.6698608-1.6999512-2.8114624-2.2753906
			c-1.1420898-0.5753784-2.5130005-0.8624878-4.1146851-0.8624878c-5.6917114,0-7.7181396,4.7590942-7.7181396,4.7590942v-1.5853882
			l-5.8270874-2.1699219v24.8304443h6.133606V25.991394c0-3.9028931,2.7451172-7.5980225,5.7247925-7.5980225
			c0.9879761,0,1.7803955,0.2094116,2.3768921,0.6270142c0.5958862,0.4199219,1.0646362,0.9498901,1.4060059,1.5957031
			c0.3400879,0.6456909,0.5618286,1.3685913,0.6643066,2.1693115c0.1022949,0.8023071,0.1535034,1.569458,0.1535034,2.3015137
			v13.9111938h6.1329956V23.3096924c0-1.2897949-0.1702881-2.5449829-0.510498-3.7661133
			C53.098877,18.3241577,52.5625,17.2437744,51.8297729,16.3017578z M6.4403076,30.9439697c0-6.3359985,0-25.3446045,0-25.3446045
			L0,3.201355c0,0,0,23.4056396,0,31.8922119c0,2.3015137,1.2700195,3.904541,3.8375244,3.904541
			c3.8953857,0,14.4308472,0,14.4308472,0v-5.857605c0,0-7.4043579,0-9.6256714,0
			C7.4545898,33.1405029,6.4403076,32.2155762,6.4403076,30.9439697z"/>
	</g>
</g>
</svg>
