<?xml version="1.0" encoding="utf-8"?>
<!-- Generator: Adobe Illustrator 22.1.0, SVG Export Plug-In . SVG Version: 6.00 Build 0)  -->
<svg version="1.1" id="Layer_1" xmlns="http://www.w3.org/2000/svg" xmlns:xlink="http://www.w3.org/1999/xlink" x="0px" y="0px"
	 width="210px" height="29px" viewBox="0 0 210 29" enable-background="new 0 0 210 29" xml:space="preserve">
<g>
	<g>
		<path fill="#0F141E" d="M41.1206055,3.2767944h-2.604126V23.928894h12.3293457v-2.2911377h-9.7252197V3.2767944z
			 M55.4260254,3.7103882c-0.8786011,0-1.6002197,0.7116089-1.6002197,1.5787964s0.7216187,1.5479736,1.6002197,1.5479736
			c0.8780518,0,1.5686035-0.6807861,1.5686035-1.5479736S56.3040771,3.7103882,55.4260254,3.7103882z M54.2338867,23.928894
			h2.3530273V8.9737549h-2.3530273V23.928894z M66.6256104,21.2349854L61.6060181,8.9737549h-2.5723877l6.3056641,14.9551392
			h2.5725098l6.3057861-14.9551392h-2.5407104L66.6256104,21.2349854z M83.2528076,8.6022949
			c-4.3291016,0-7.4667358,3.4989014-7.4667358,7.8336182c0,4.675354,3.2316284,7.8643799,7.7491455,7.8643799
			c2.4470825,0,4.486084-0.8359375,6.0234985-2.3223267l-1.1293335-1.5167847
			c-1.2237549,1.2382202-2.9494019,1.9196167-4.7060547,1.9196167c-3.2629395,0-5.2389526-2.3532104-5.427124-5.1711426H90.531311
			v-0.5879517C90.531311,12.131958,87.8331299,8.6022949,83.2528076,8.6022949z M78.2645264,15.4758911
			c0.1257935-2.2601929,1.7254639-4.9541016,4.9571533-4.9541016c3.4505005,0,4.956604,2.7559204,4.987915,4.9541016H78.2645264z
			 M99.9113159,3.2767944l-8.0625,20.6520996h5.0506592l1.3174438-3.4990234h8.9729004l1.3173828,3.4990234h5.0507813
			l-8.0620117-20.6520996H99.9113159z M99.4407959,16.5595703l3.2628784-8.8858643l3.2628174,8.8858643H99.4407959z
			 M124.6945801,8.6022949c-2.4465942,0-4.3296509,1.1765747-5.3012695,2.2910767V8.9737549h-3.9849854V23.928894h3.9849854
			V13.8348999c0.68927-0.8670044,1.882019-1.7337036,3.4511108-1.7337036c1.6936646,0,2.7911987,0.7121582,2.7911987,2.7866821
			v9.0410156h4.015686V13.3706055C129.6513062,10.4597778,128.0515137,8.6022949,124.6945801,8.6022949z M136.6157837,13.1535034
			c0-0.8356934,0.9421387-1.4551392,2.3853149-1.4551392c1.8502808,0,3.5758057,0.8049927,4.4862061,1.7338257l1.5996094-2.7861938
			c-1.5054932-1.177002-3.545105-2.0437012-6.0858154-2.0437012c-4.015686,0-6.211792,2.1981812-6.211792,4.7062988
			c0,5.8826904,8.9724731,3.8703003,8.9724731,6.3162842c0,0.9291992-0.8164063,1.5792847-2.5418701,1.5792847
			c-1.882019,0-4.1098022-1.0220947-5.2390137-2.0744629l-1.7254028,2.8482666
			c1.5996094,1.4551392,4.1414795,2.3223267,6.7761841,2.3223267c4.2039185,0,6.5881348-2.0123901,6.5881348-4.7683105
			C145.619812,13.4942017,136.6157837,15.3521729,136.6157837,13.1535034z M163.7230835,19.0368042l-3.3262939-10.0630493h-3.545166
			l-3.3251343,10.0630493l-2.8230591-10.0630493h-4.1415405l4.6121216,14.9551392h4.2661743l3.2004395-10.1868286
			l3.1994629,10.1868286h4.267334l4.6109009-14.9551392h-4.1721191L163.7230835,19.0368042z M179.5648193,8.6022949
			c-4.5803223,0-7.8432007,3.4989014-7.8432007,7.8336182c0,4.7990723,3.4827881,7.8643799,8.0947876,7.8643799
			c2.352478,0,4.7368164-0.7120972,6.2434692-2.0745239l-1.7890015-2.6008911
			c-0.9726563,0.9291992-2.7288818,1.4552002-4.015686,1.4552002c-2.5723877,0-4.0780029-1.5167847-4.3602905-3.3438721h11.2625122
			v-0.928833C187.1574097,11.946167,184.114502,8.6022949,179.5648193,8.6022949z M175.8632202,15.0114746
			c0.1574707-1.4863892,1.2232666-3.1889038,3.7015991-3.1889038c2.6358643,0,3.6392822,1.7645264,3.7650757,3.1889038H175.8632202z
			 M194.02771,10.9862061V8.9737549h-3.9849854V23.928894h3.9849854v-9.8773804
			c0.6586914-0.9594116,2.414917-1.7030029,3.7335205-1.7030029c0.4703979,0,0.8150635,0.03125,1.09729,0.0928955V8.6022949
			C196.9766235,8.6022949,195.1251831,9.6859741,194.02771,10.9862061z M208.2313843,8.3338623
			c0-0.6969604-0.6433105-1.1463013-1.2868042-1.1463013h-1.5548706v3.7640381h0.5822144V9.4645996h0.6116943l0.9879761,1.4869995
			h0.7069092l-1.0198975-1.5021362C207.477478,9.4494629,208.2313843,9.1704102,208.2313843,8.3338623z M205.9719238,8.9688721
			V7.6676636h0.9726563c0.3294067,0,0.6904907,0.2478027,0.6904907,0.6661987c0,0.387207-0.361084,0.6350098-0.6904907,0.6350098
			H205.9719238z M206.6776733,5.7783813c-1.8371582,0-3.3274536,1.4556885-3.3274536,3.2833862
			c0,1.8127441,1.4902954,3.2841187,3.3274536,3.2841187c1.852417,0,3.3274536-1.4713745,3.3274536-3.2841187
			C210.005127,7.2340698,208.5300903,5.7783813,206.6776733,5.7783813z M206.6776733,11.8037109
			c-1.5384521,0-2.7781982-1.2391968-2.7781982-2.7419434c0-1.5333862,1.2397461-2.741272,2.7781982-2.741272
			c1.5372314,0,2.7781372,1.2078857,2.7781372,2.741272C209.4558105,10.5645142,208.2149048,11.8037109,206.6776733,11.8037109z
			 M25.210083,0C20.6348877,0,4.5285034,0.0692139,4.5285034,0.0692139S0,0,0,4.607605v11.0581055
			c0,4.4693604,7.1895752,4.3772583,7.1895752,4.3772583S5.229187,18.6390991,5.229187,16.8864746
			c0-1.197998,0.0928955-9.8139038,0.0928955-9.8139038s0.0032959-1.8889771,2.0775146-1.8889771h15.4761963
			c1.6290283,0,1.5762329,1.5148926,1.5762329,1.5148926s-0.0356445,10.2803955-0.0356445,11.6627197
			c0,1.68927-1.4472046,1.6817627-1.4472046,1.6817627H7.1895752v8.9387207l5.6954956-3.3865967l12.3950195,0.0230103
			c0,0,4.4818115,0.1045532,4.4818115-4.4692993c0-3.0410156,0.0933228-16.1957397,0.0933228-16.1957397S29.8552246,0,25.210083,0z"
			/>
	</g>
</g>
</svg>
