<?xml version="1.0" encoding="utf-8"?>
<!-- Generator: Adobe Illustrator 22.1.0, SVG Export Plug-In . SVG Version: 6.00 Build 0)  -->
<svg version="1.1" id="Layer_1" xmlns="http://www.w3.org/2000/svg" xmlns:xlink="http://www.w3.org/1999/xlink" x="0px" y="0px"
	 width="90px" height="40px" viewBox="0 0 90 40" enable-background="new 0 0 90 40" xml:space="preserve">
<path fill="#0F141E" d="M26.9371986,22.6233006c-0.6445999-0.6140003-1.4078999-1.0951004-2.2448997-1.4150009
	c-1.2838001-0.4699993-1.6030998-0.4699993-4.9703999-0.4699993h-5.612299v13.3534012h4.9703999
	c4.6493988,0,5.2912998-0.1567001,6.8942986-1.1000023c1.6031017-0.9417,2.7255001-3.1416988,2.7255001-5.5
	C28.6997986,25.4500008,28.0595989,23.7233009,26.9371986,22.6233006 M25.8146992,5.6567001
	c-0.6418991-0.6300001-1.4433994-1.0999999-2.2448997-1.2584C22.4473991,4.085,21.8055,4.085,18.5993996,4.085h-4.4897995
	v12.2533007h5.4510002c2.2448997,0,4.0074997-0.3133011,5.1316986-0.7850008
	c1.7625999-0.7849998,2.8868008-2.8282995,2.8868008-5.3415995c0-1.8850002-0.641901-3.4567003-1.7660999-4.5567002
	 M35.7555008,33.7766991c-0.6419029,1.2565994-1.7644005,2.3566017-3.046402,3.1432991
	c-1.4433994,0.7850037-2.8867989,1.2567024-4.4898987,1.4133034H0V34.25h3.2059999c0.9629002,0,1.6048002,0,2.0853-0.1582985
	c0.3210001-0.1567001,0.6419001-0.4717026,0.8014998-0.7849998c0.1597004-0.4717026,0.3210001-0.7867012,0.3210001-1.2567024V6.4417
	c0-0.4717002-0.1612997-0.7866998-0.3210001-1.2567C5.6122999,4.3983002,4.9703999,4.085,3.2059999,4.085H0V0h22.7682991
	c4.1688995,0.1567,7.2152996,0.9433,9.7811012,2.6700001c2.4045982,1.7283001,3.6865997,4.085,3.6865997,7.0699997
	c0,2.5132999-0.8015022,4.5566998-2.725399,6.1267004c-1.4434013,1.2582998-2.4046021,1.7282991-4.9704018,2.5150003
	c2.7255001,0.6282997,3.3673,0.9415989,4.9704018,1.8832989c2.4044991,1.4183006,3.8478966,4.401701,3.8478966,7.8583012
	c-0.1595993,2.0417004-0.6418991,3.9284-1.6029968,5.6550007 M39.2229996,38.3333015v-4.1865997h3.6746979
	c1.0018997,0,1.5046005,0,2.0038033-0.1617012c0.3344994-0.1599998,0.502697-0.4832993,0.6690979-0.8050003
	S45.905098,32.375,45.905098,31.8917007v-17.875h-6.8484993v-3.8617001c5.5121002,0,7.3493996-1.1282997,8.6859016-5.1532998
	h5.1774979v26.893301c0,0.321701,0.1664009,0.803299,0.3344994,1.2867012
	c0.332901,0.8049965,1.0018997,0.9665985,2.8393021,0.9665985h3.3401985v4.1850014H39.2229996z M89.3546982,32.4883003
	C88.7093964,37.4432983,85.6459961,40,80.8080978,40c-2.7424011,0-5.0009003-0.7999992-10.161499-3.196701
	c-1.4502029-0.7999992-2.4180984-0.9582977-3.0634003-0.9582977c-1.6131973,0-2.5811005,0.9582977-2.5811005,2.7166977v0.7999992
	h-3.8699989v-1.2799988c0-2.0766983,0.3225975-3.8349991,1.1292-5.7533989c1.2905998-3.1966,3.3861008-5.2733002,8.223999-7.5116005
	c2.0971985-1.1166992,3.7104034-1.7567005,4.5169983-2.2367001c1.2905045-0.6399994,2.2584991-1.4382992,3.2247009-2.2383003
	c1.1292038-1.1166992,1.9357986-3.0349998,1.9357986-4.6334c0-3.8365993-2.7424011-6.2332993-7.4189987-6.2332993
	c-3.8716965,0-6.1285019,1.4382992-6.9350967,4.4749994c0.8065948-0.8000002,1.2904968-0.9582996,1.9357986-0.9582996
	c2.0954971,0,3.7087021,1.5965996,3.7087021,3.9949999c0,2.7166004-1.7728043,4.4750004-4.3540039,4.4750004
	c-3.2263985,0-5.4848976-2.3984013-5.4848976-6.0734005c0-2.7166004,1.2905998-5.4333,3.549099-7.1915998
	C67.5848999,5.9583001,70.4852982,5,74.8408966,5c8.0626984,0,13.3845978,4.4750004,13.3845978,11.0266991
	c0,5.4333-3.0634003,8.4716015-10.4824982,10.5500011c-6.9350967,1.9165993-7.5803986,2.0765991-9.998497,3.9932995
	c-1.1292038,0.960001-1.6131973,1.5999985-2.0970993,3.3567009c1.774498-1.4384003,2.9037018-1.9167023,5.3218002-1.9167023
	c0.6453018,0,1.4518967,0,2.0971985,0.1583023l4.8395996,0.7999992c1.1276016,0.1599998,2.0954971,0.3199997,3.0634003,0.3199997
	c3.7087021,0,5.3218994-1.6000004,5.4832001-5.9132996H90C89.6773987,29.9316998,89.6773987,30.7299995,89.3546982,32.4883003"/>
</svg>
