<?xml version="1.0" encoding="utf-8"?>
<!-- Generator: Adobe Illustrator 22.1.0, SVG Export Plug-In . SVG Version: 6.00 Build 0)  -->
<svg version="1.1" id="Layer_1" xmlns="http://www.w3.org/2000/svg" xmlns:xlink="http://www.w3.org/1999/xlink" x="0px" y="0px"
	 width="94px" height="94px" viewBox="0 0 94 94" enable-background="new 0 0 94 94" xml:space="preserve">
<g>
	<g>
		<path fill="#0F141E" d="M44.7078857,42.2088013c-2.8324585,0-4.5799561,1.5921631-4.5799561,4.2017822v3.1481934
			c0,2.6085205,1.7474976,4.2023926,4.5799561,4.2023926c2.9335327,0,4.4800415-1.9122925,4.4800415-3.4255981
			c0-0.3591919-0.2208252-0.5980835-0.5630493-0.5980835h-1.5062866c-0.3812866,0-0.5825195,0.1793213-0.5825195,0.5379028
			c0,0.5776978-0.482666,1.3947754-1.828186,1.3947754c-1.2249146,0-1.9082031-0.6768799-1.9082031-2.1914063v-1.015686h5.8251953
			c0.3422241,0,0.6227417-0.2797852,0.6227417-0.6173706v-1.4351196
			C49.2476196,43.8009644,47.5001221,42.2088013,44.7078857,42.2088013z M46.5968018,46.75l-3.8170776,0.0600586v-0.2791748
			c0-1.4946289,0.7032471-2.2310791,1.9281616-2.2310791c1.2457275,0,1.888916,0.756897,1.888916,2.1907959V46.75z
			 M9.0197754,49.7374878v-3.5050049c0-2.6306763-1.024353-4.0236816-3.6761475-4.0236816
			c-1.1245117,0-2.2095337,0.5770874-2.8527222,1.2539673l-0.039917-0.4381104
			c-0.0604858-0.3386841-0.3814697-0.6178589-0.742981-0.6178589H0.6430054C0.3018188,42.4067993,0,42.6859741,0,43.0440063
			v12.8684082c0,0.3585815,0.3018188,0.6382446,0.6430054,0.6382446h1.3864136c0.361084,0,0.6425781-0.2796631,0.6425781-0.6382446
			v-3.2265015c0.6228027,0.6173706,1.6472778,1.0752563,2.6716309,1.0752563
			C7.9954224,53.7611694,9.0197754,52.3670044,9.0197754,49.7374878z M2.6719971,50.5142822v-5.0592041
			c0.5021973-0.5776978,1.3259277-1.0559692,2.0894775-1.0559692c1.1647949,0,1.5866089,0.6172485,1.5866089,2.0324707v3.1066895
			c0,1.4147339-0.421814,2.0325928-1.5866089,2.0325928C3.9979248,51.5708618,3.1741943,51.0925903,2.6719971,50.5142822z
			 M35.7302246,42.4067993h-2.3300171c-0.3417358,0-0.5831299,0.2399902-0.5831299,0.578186v0.7763062
			c0,0.3392944,0.2010498,0.5980835,0.5428467,0.5980835l0.3413696,0.0198364v8.2062988
			c0,1.2359009-0.5025024,1.8736572-1.4263916,2.1130981c-0.4620972,0.1582642-0.6428223,0.3574829-0.6428223,0.8363647v0.6757813
			c0,0.319519,0.3214111,0.4994507,0.6428223,0.4994507c2.3303223,0,4.0979004-1.513916,4.0979004-3.9255371v-9.7406616
			C36.3728027,42.6859741,36.0913696,42.4067993,35.7302246,42.4067993z M34.9265137,38.4835815
			c-0.9038086,0-1.506897,0.3779297-1.506897,1.3743286c0,0.9765015,0.6030884,1.3339844,1.506897,1.3339844
			c0.944458,0,1.5670776-0.3574829,1.5670776-1.3339844C36.4935913,38.8615112,35.8709717,38.4835815,34.9265137,38.4835815z
			 M29.8666992,49.5587769v-3.1481934c0-2.6096191-1.7474976-4.2017822-4.5394287-4.2017822
			c-2.8328857,0-4.5802002,1.5921631-4.5802002,4.2017822v3.1481934c0,2.6085205,1.7473145,4.2023926,4.5802002,4.2023926
			C28.1192017,53.7611694,29.8666992,52.1672974,29.8666992,49.5587769z M23.418396,49.338562v-2.708374
			c0-1.5145264,0.6828003-2.3106079,1.9088745-2.3106079c1.2053223,0,1.868103,0.7960815,1.868103,2.3106079v2.708374
			c0,1.5145264-0.6627808,2.3117065-1.868103,2.3117065C24.1011963,51.6502686,23.418396,50.8530884,23.418396,49.338562z
			 M15.3248901,43.7016602l-0.0803833-0.677002c-0.0603027-0.3386841-0.3616333-0.6178589-0.7432251-0.6178589h-1.0241089
			c-0.3417969,0-0.6435547,0.2791748-0.6435547,0.637207v9.8814087c0,0.3579712,0.3017578,0.6360474,0.6435547,0.6360474h1.385437
			c0.3618774,0,0.6427612-0.2780762,0.6427612-0.6360474v-7.1724243c0.5222168-0.7960815,1.4666138-1.2545776,2.3306274-1.2545776
			c0.3012085,0,0.5222168-0.178833,0.5222168-0.4971313v-1.2954712c0-0.3182983-0.1810303-0.4970093-0.5021973-0.4970093
			C17.0523071,42.2088013,15.8875122,42.8453979,15.3248901,43.7016602z M70.9185181,51.6298828
			c-0.2817383,0.0402832-0.5829468,0.0596313-0.8638306,0.0596313c-1.145813,0-1.6478882-0.5969238-1.6478882-1.9123535v-5.3780518
			h2.2498169c0.3616943,0,0.6433716-0.2792358,0.6433716-0.6378174v-0.7172852c0-0.3580322-0.2816772-0.637207-0.6433716-0.637207
			h-2.2498169v-2.1506348c0-0.3585815-0.281311-0.6377563-0.6422119-0.6377563h-0.9846802
			c-0.3616943,0-0.6835327,0.2791748-0.7236938,0.6377563l-0.2000122,2.1506348h-0.5631104
			c-0.3413696,0-0.6226807,0.2791748-0.6226807,0.637207v0.7172852c0,0.3585815,0.281311,0.6378174,0.6226807,0.6378174h0.4423828
			v5.3979492c0,2.6096191,1.2051392,3.9833984,3.8569336,3.9833984c0.4011841,0,0.8433838-0.0192871,1.2650146-0.0793457
			c0.3618774-0.0409546,0.6435547-0.3780518,0.6435547-0.7167358v-0.8573608
			C71.5009766,51.8086548,71.2597046,51.5895996,70.9185181,51.6298828z M75.5568848,50.8933716
			c-0.9042969,0-1.5072632,0.4573364-1.5072632,1.453186c0,0.9567261,0.6029663,1.4146118,1.5072632,1.4146118
			c0.9434204,0,1.565918-0.4578857,1.565918-1.4146118C77.1228027,51.350708,76.5003052,50.8933716,75.5568848,50.8933716z
			 M75.5568848,42.2088013c-0.9042969,0-1.5072632,0.4572754-1.5072632,1.4729614
			c0,0.9567261,0.6029663,1.3948364,1.5072632,1.3948364c0.9434204,0,1.565918-0.4381104,1.565918-1.3948364
			C77.1228027,42.6660767,76.5003052,42.2088013,75.5568848,42.2088013z M61.9412842,50.0172729
			c0-0.3591919-0.2608643-0.617981-0.6228638-0.617981h-1.4257202c-0.3823242,0-0.6030884,0.2388916-0.6030884,0.617981
			c0,0.8959351-0.5629272,1.6126099-1.8486938,1.6126099c-1.2247314,0-1.9082031-0.7966919-1.9082031-2.3099976v-2.6691895
			c0-1.5145264,0.6834717-2.3112183,1.9082031-2.3112183c1.2661743,0,1.8486938,0.6967773,1.8486938,1.6138306
			c0,0.3772583,0.2207642,0.6173706,0.6030884,0.6173706h1.4454956c0.3422241,0,0.6030884-0.2797852,0.6030884-0.6173706
			c0-2.2106934-1.6473999-3.7258301-4.5003662-3.7258301c-2.8320923,0-4.5795898,1.5734863-4.5795898,4.1831055v3.1481934
			c0,2.6085205,1.7474976,4.1824951,4.5795898,4.1824951C60.2938843,53.741272,61.9412842,52.1480103,61.9412842,50.0172729z
			 M8.4589844,27.9768677l-1.2160645-0.6292725l-0.2020264-0.4589844l2.1339111-0.2730103l0.6864014-1.303894l-3.1019897,0.5435791
			L5.656311,23.2467651l-0.6895142,1.31073l1.0413818,2.1511841l-1.7080688-0.8834839l-0.5601807,1.0634155l4.1599731,2.151062
			L8.4589844,27.9768677z M12.4060059,21.623291l-0.3862305-0.5952148l1.1470947-1.4395752l0.6729126,0.2354736l0.8511963-1.0673828
			l-4.7756958-1.5109863l-0.9454956,1.187561l2.585022,4.2575073L12.4060059,21.623291z M10.382019,18.571106l1.7514038,0.6258545
			l-0.7366333,0.9260254L10.382019,18.571106z M16.2661133,12.270813l0.25,3.3001709l0.6325073,0.7207031l2.7470093-2.3746948
			l-0.6936035-0.7893066l-1.5475464,1.338501l-0.2507935-3.3092041l-0.6279907-0.7144165l-2.708374,2.3423462l0.6923828,0.7875977
			L16.2661133,12.270813z M24.1904907,10.9668579l-2.5144043-3.9277954L20.656311,7.6824951l2.5136108,3.9273071
			L24.1904907,10.9668579z M28.9135742,8.4491577l-1.1906738-2.8388672l2.2888794,2.3865967l0.4924316-0.203125
			l-0.0991821-3.2894897L31.59552,7.3432007l1.1168823-0.4595947l-1.8002319-4.2949219l-1.5522461,0.638916l0.0911865,2.7423706
			l-1.9024048-1.9962158l-1.5527344,0.6418457l1.8005981,4.2943115L28.9135742,8.4491577z M36.8989258,1.0020752
			l-1.180603,0.2609863l1.0217896,4.5395508l1.1809082-0.2610474L36.8989258,1.0020752z M45.4624023,4.6411133L45.390625,3.5975952
			l-2.2242432,0.1502686l-0.0548096-0.786377l2.175354-0.147583l-0.0718384-1.0435181L43.039978,1.9168091l-0.0501709-0.7235107
			l2.2244873-0.1498413L45.1425171,0l-3.4313354,0.232666l0.3196411,4.6405029L45.4624023,4.6411133z M52.0582275,5.0115967
			l1.3769531,0.15271L52.678772,3.3615112c0.4572144-0.1050415,0.996521-0.4783325,1.086853-1.2824097
			c0.0979614-0.8596191-0.4119263-1.6036377-1.4458008-1.7199097l-2.3345947-0.2615967L49.4584961,4.718811l1.2022095,0.1361694
			l0.1765747-1.5531006l0.6158447,0.0692749L52.0582275,5.0115967z M51.0687256,1.2716675l0.9503784,0.1066284
			c0.3214111,0.0363159,0.5617676,0.2384033,0.5247192,0.5567017c-0.0374146,0.3262939-0.31604,0.4697876-0.6376343,0.4345703
			l-0.9501953-0.1077881L51.0687256,1.2716675z M60.9539795,5.9915771l-1.9655762-0.5872803l2.6928101-1.9700928
			l0.2749023-0.9078979l-3.4401245-1.0294189l-0.303894,1.0020752l1.9121094,0.5720215L57.439209,5.0371704l-0.2764893,0.9141235
			l3.4869995,1.0429077L60.9539795,5.9915771z M71.4116821,8.6444092c-0.4082031-0.2599487-0.9414673-0.1436157-1.2033081,0.2614746
			c-0.2570801,0.3994751-0.1402588,0.9284058,0.2677002,1.1865845c0.4089355,0.2598267,0.9424438,0.1429443,1.1992188-0.2559814
			C71.9359741,9.4324951,71.819519,8.9036865,71.4116821,8.6444092z M79.8355103,17.7177124l-0.5206299,2.0710449
			l0.9755249,1.107605l0.6179199-3.0617676l2.850769-0.0709839l-0.9805908-1.1139526l-2.4000244,0.1799316l1.451416-1.2573853
			l-0.7962646-0.902832l-3.5324097,3.059021l0.7955933,0.9033813l1.0327148-0.8942871L79.8355103,17.7177124z
			 M82.8344116,24.6018066l0.6992188-0.1396484l0.9343872,1.5843506l-0.4667358,0.5355835l0.6921997,1.1751709l3.1588135-3.8596802
			l-0.770813-1.307373l-4.9403076,0.8375854L82.8344116,24.6018066z M86.4373169,23.8453979l-1.2258911,1.3884888
			l-0.6000366-1.0167847L86.4373169,23.8453979z M87.022522,30.5813599l-0.9058228,0.326355l1.2434082,3.3955688
			l0.9915771-0.3569946l-0.7005005-1.9144897l3.2029419,0.9628906l0.8984985-0.3245239l-1.2259521-3.3496094l-0.9916992,0.3569336
			l0.6819458,1.8605957L87.022522,30.5813599z M88.5908813,39.3540039l4.6014404-0.9067993l-0.2354126-1.1774292
			l-4.6016846,0.9078979L88.5908813,39.3540039z M89.2446899,44.6209106l3.1008911-0.0657959l-3.0751953,1.2443848
			l0.0107422,0.5282593l3.1264648,1.105896l-3.100769,0.0664063l0.0264893,1.1990356l4.6903076-0.0993042l-0.0372314-1.666626
			l-2.607605-0.9146729l2.5664063-1.0299072l-0.0361938-1.6677246l-4.6903076,0.0994263L89.2446899,44.6209106z
			 M88.6920166,54.0040894l4.6364746,0.7097778l0.1843872-1.1858521l-4.6367798-0.7087402L88.6920166,54.0040894z
			 M86.8079834,61.289978l1.0062256,0.3103027l0.6647949-2.1107788l0.7579956,0.2359619l-0.649292,2.0632324l1.0073853,0.3109741
			l0.6489258-2.0631714l0.6981812,0.2155762l-0.6635742,2.1109009l1.0072021,0.3109131l1.0246582-3.2537231l-4.4787598-1.3867798
			L86.8079834,61.289978z M84.7133789,66.0473022l1.3965454,0.7240601l-0.2874146,0.5442505l-1.7615356-0.0324097
			l-0.6421509,1.2165527l1.9690552-0.0481567c-0.0675049,0.4613037,0.0905151,1.0939941,0.8123169,1.4690552
			c0.7734985,0.401123,1.65802,0.1991577,2.140625-0.7143555l1.0895996-2.0649414l-4.156311-2.1568604L84.7133789,66.0473022z
			 M86.5999756,68.0963135l0.4434204-0.8398438l0.8914185,0.4642334l-0.4434204,0.8386841
			c-0.1500244,0.28479-0.4265747,0.4329224-0.7125854,0.2836914C86.4854126,68.690979,86.4500122,68.3811646,86.5999756,68.0963135z
			 M82.9873047,75.418457l-0.8776245-3.1917725l-0.7601929-0.5878296l-2.2415771,2.8479004l0.831665,0.644104l1.263855-1.6064453
			l0.8776855,3.2014771l0.755188,0.5855713l2.2122803-2.8104858l-0.8314819-0.6445923L82.9873047,75.418457z M72.6334839,82.4359741
			c-0.392395,0.2825928-0.477478,0.817688-0.196106,1.2019043c0.2852173,0.3887329,0.8259277,0.4738159,1.2178955,0.1901245
			c0.3922119-0.2832031,0.4776001-0.8189087,0.1924438-1.2076416C73.565979,82.2373657,73.0258789,82.1522827,72.6334839,82.4359741
			z M61.7666016,86.5595703l0.4699097,1.2784424l-0.1636353,0.4743652L60.3125,87.0838623l-1.3944702,0.5032959l2.6585693,1.6757202
			l-0.9620972,2.6629028l1.4022827-0.5056152l0.6956177-2.2838745l0.6588745,1.7941895l1.1364136-0.4096069l-1.6043091-4.371582
			L61.7666016,86.5595703z M54.3942261,89.3070679l-1.8271484,0.291687L52.230896,88.97229l-1.3544922,0.2167969
			l2.4890137,4.3148193l1.5072021-0.2418213l0.9962769-4.8703003l-1.354126,0.2161865L54.3942261,89.3070679z M53.9254761,92.211792
			l-0.8639526-1.633606l1.1738892-0.1884155L53.9254761,92.211792z M43.72052,90.3131714l2.0527954,0.0516357l-2.0704956,2.6062622
			l-0.0233154,0.9487305l3.5932007,0.0891113l0.0264893-1.046936l-1.9987183-0.0499878l2.0654297-2.5988159l0.0233154-0.9561768
			l-3.6422119-0.09021L43.72052,90.3131714z M37.7263184,93.142395l1.1908569,0.2105103l0.8220215-4.5797119l-1.1904907-0.2106323
			L37.7263184,93.142395z M32.2827148,90.1411743l-0.0557251-3.2927856l-0.501709-0.1804199l-2.171875,2.4882202
			l1.0615234-2.8900146l-1.1364136-0.411377l-1.6054077,4.3720703l1.5791626,0.5697021l1.8041382-2.0802002l0.0390625,2.7470093
			l1.5800171,0.5697021l1.6052246-4.3704224l-1.1368408-0.4102783L32.2827148,90.1411743z M22.4138794,87.3988037
			l1.0488281,0.5986938l2.3388672-4.0333862l-1.0489502-0.5980225L22.4138794,87.3988037z M17.9182739,79.800293
			l1.7442017,1.3776855l-0.4951782,0.6157227l-1.7052002-1.3471069l-0.6574097,0.817688l1.7056274,1.3475952l-0.4559937,0.5662842
			l-1.7442017-1.3770752l-0.6575928,0.8192749l2.6900635,2.1240234l2.9232178-3.6389771l-2.6898804-2.1234131L17.9182739,79.800293z
			 M14.8687134,75.3272095l-1.1888428,1.0269775l-0.4057617-0.4630127l0.6712036-1.6159668l-0.9099121-1.0356445
			l-0.6713257,1.836792c-0.4082642-0.230957-1.0603027-0.3148804-1.6750488,0.2156372
			c-0.6581421,0.5686035-0.7904053,1.4588623-0.1072388,2.2384644l1.5425415,1.7563477l3.5384521-3.0551147L14.8687134,75.3272095z
			 M12.1256104,77.6950684l-0.6279907-0.7160645c-0.2120972-0.2416992-0.2506104-0.5510254-0.0064087-0.7609253
			c0.2493896-0.2161865,0.5534668-0.1356812,0.7651978,0.1071777l0.628418,0.7150269L12.1256104,77.6950684z M10.8417969,70.1845093
			L8.982605,67.0788574L8.0750122,67.612915l1.0482788,1.7504883L5.7957764,69.010498l-0.8227539,0.4840088l1.8344727,3.0646973
			l0.9072266-0.5339355l-1.0197144-1.7034912l3.3178101,0.350708L10.8417969,70.1845093z"/>
	</g>
</g>
</svg>
