<?xml version="1.0" encoding="utf-8"?>
<!-- Generator: Adobe Illustrator 22.1.0, SVG Export Plug-In . SVG Version: 6.00 Build 0)  -->
<svg version="1.1" id="Layer_1" xmlns="http://www.w3.org/2000/svg" xmlns:xlink="http://www.w3.org/1999/xlink" x="0px" y="0px"
	 width="180px" height="15px" viewBox="0 0 180 15" enable-background="new 0 0 180 15" xml:space="preserve">
<g>
	<g>
		<path fill="#0F141E" d="M9.4298706,0.3410034L6.2930908,10.4078979H6.2540894L3.156189,0.3410034H0L4.5202026,14.659668h3.4483032
			l4.6176147-14.3186646H9.4298706z M15.6245728,0.3410034L10.3444214,14.659668h3.0979614l1.0909424-3.1900635h5.2021484
			l1.0518188,3.1900635h3.1760254L18.7611084,0.3410034H15.6245728z M15.3320923,9.1242676l1.8118286-5.2537842h0.0390625
			l1.753418,5.2537842H15.3320923z M34.0543213,9.9459839h-0.0391235l-5.8059692-9.6049805h-3.0392456V14.659668h2.8640137
			V5.0739746h0.0388794l5.7863159,9.5856934h3.059082V0.3410034h-2.8639526V9.9459839z M45.6063843,0.3410034h-6.0009766V14.659668
			h6.0009766c4.2471924,0,6.3125-3.088562,6.3125-7.2398682C51.9188843,2.6668701,49.2108765,0.3410034,45.6063843,0.3410034z
			 M45.3920288,12.0125732h-2.7275391V2.9880981h2.1820068c3.0393066,0,4.0133057,1.8452759,4.0133057,4.7323608
			C48.8598022,10.8890991,47.1652222,12.0125732,45.3920288,12.0125732z M57.1000977,8.5023804h6.7410889V6.0556641h-6.7410889
			V2.9880981h7.3450317V0.3410034H54.0413818V14.659668h10.5596313v-2.6470947h-7.5009155V8.5023804z M69.723877,0.3410034
			h-3.0586548V14.659668h9.8388062v-2.6470947H69.723877V0.3410034z M82.0164185,0.3410034L76.7363892,14.659668h3.0979004
			l1.0913086-3.1900635h5.2017822l1.0522461,3.1900635h3.1755981L85.1533813,0.3410034H82.0164185z M81.7243042,9.1242676
			l1.8117065-5.2537842h0.0390625l1.75354,5.2537842H81.7243042z M94.7962036,5.9960938l-3.253418-5.6550903h-3.4486694
			l5.1243896,8.7435913v5.5750732h3.0582886V9.1646118l5.163208-8.8236084h-3.4094238L94.7962036,5.9960938z M114.0244141,0.3410034
			h-6.0006104V14.659668h6.0006104c4.2473145,0,6.312561-3.088562,6.312561-7.2398682
			C120.3369751,2.6668701,117.6287231,0.3410034,114.0244141,0.3410034z M113.8098755,12.0125732h-2.7272949V2.9880981h2.1818237
			c3.0394897,0,4.0136719,1.8452759,4.0136719,4.7323608C117.2780762,10.8890991,115.5831299,12.0125732,113.8098755,12.0125732z
			 M125.5181885,8.5023804h6.7412109V6.0556641h-6.7412109V2.9880981h7.3449097V0.3410034h-10.4036255V14.659668h10.5596313
			v-2.6470947h-7.5009155V8.5023804z M141.7854004,6.2366943c-3.4874268-0.9227295-4.1500854-1.0623169-4.1500854-2.1658936
			c0-1.2030029,1.130188-1.6240234,2.1043701-1.6240234c1.4609985,0,2.6497192,0.4403076,2.7470093,2.1658936h2.9614868
			C145.4481812,1.3034058,142.7788086,0,139.8757935,0c-2.5131836,0-5.2019653,1.4038086-5.2019653,4.3311768
			c0,2.6879883,2.0849609,3.5101929,4.1500854,4.0714111c2.0457764,0.5612183,4.1304932,0.8222046,4.1304932,2.3666992
			c0,1.463501-1.6367798,1.7841187-2.7084351,1.7841187c-1.6362915,0-3.078186-0.7416992-3.078186-2.6470947h-2.9614868
			c-0.0386963,3.5293579,2.8446045,5.0938721,5.9232178,5.0938721c3.7792969,0,5.7861938-1.9650879,5.7861938-4.5922852
			C145.9157104,7.1593018,142.7984009,6.4976807,141.7854004,6.2366943z M147.7261963,14.659668h3.0587769V0.3410034h-3.0587769
			V14.659668z M159.9417725,9.2650757h3.0782471c-0.175293,1.9849243-1.3248901,3.0880127-3.3121948,3.0880127
			c-2.7470093,0-3.779541-2.4071045-3.779541-4.7932129c0-2.5062866,1.0325317-4.9127808,3.779541-4.9127808
			c1.4418945,0,2.5913696,0.8222046,2.9417725,2.4064941h2.9226074C165.2410278,1.8049927,162.5521851,0,159.7078247,0
			c-4.305603,0-6.838501,3.3086548-6.838501,7.5598755c0,4.1320801,2.5328979,7.4403076,6.838501,7.4403076
			c1.3444824,0,2.7473755-0.5407715,3.8187866-1.9650879l0.3120117,1.6245728h1.947998V6.9193115h-5.8448486V9.2650757z
			 M177.1436157,0.3410034v9.6049805h-0.0391235l-5.8059082-9.6049805h-3.0393066V14.659668h2.8641357V5.0739746h0.0390625
			l5.786438,9.5856934h3.05896V0.3410034H177.1436157z"/>
	</g>
</g>
</svg>
