<?xml version="1.0" standalone="no"?>
<!DOCTYPE svg PUBLIC "-//W3C//DTD SVG 20010904//EN"
 "http://www.w3.org/TR/2001/REC-SVG-20010904/DTD/svg10.dtd">
<svg version="1.0" xmlns="http://www.w3.org/2000/svg"
 width="700.000000pt" height="700.000000pt" viewBox="0 0 700.000000 700.000000"
 preserveAspectRatio="xMidYMid meet">
<metadata>
Created by potrace 1.11, written by Peter Selinger 2001-2013
</metadata>
<g transform="translate(0.000000,700.000000) scale(0.100000,-0.100000)"
fill="#000000" stroke="none">
<path d="M3278 6995 c-1 -2 -42 -6 -90 -9 -127 -9 -273 -30 -443 -65 -95 -19
-320 -82 -403 -112 -364 -132 -669 -295 -950 -506 -643 -483 -1107 -1174
-1296 -1929 -82 -331 -94 -441 -94 -869 0 -370 2 -405 43 -652 53 -329 228
-798 414 -1110 62 -106 151 -245 161 -253 3 -3 23 -30 44 -60 169 -240 460
-533 732 -738 347 -261 780 -468 1215 -581 118 -31 304 -67 394 -77 28 -3 55
-7 62 -9 57 -19 560 -26 723 -12 103 10 122 12 275 38 1021 168 1911 783 2447
1692 145 246 315 660 363 887 2 8 11 45 19 82 27 111 47 227 62 343 4 33 8 69
10 80 21 167 20 636 -2 750 -2 11 -9 57 -14 102 -16 124 -56 314 -95 453 -20
69 -38 132 -40 140 -21 84 -137 362 -207 498 -316 615 -778 1104 -1373 1452
-336 196 -726 340 -1110 410 -128 23 -135 24 -235 35 -36 4 -78 9 -95 12 -35
5 -511 13 -517 8z m392 -460 c63 -3 126 -7 140 -9 14 -2 50 -7 80 -10 857
-110 1643 -602 2128 -1333 124 -186 238 -402 298 -566 57 -155 98 -281 119
-367 16 -64 55 -265 60 -310 3 -30 8 -62 10 -70 10 -40 19 -212 19 -365 0
-155 -10 -360 -18 -374 -2 -3 -7 -31 -10 -62 -4 -31 -9 -67 -11 -80 -3 -13 -7
-35 -10 -49 -12 -61 -15 -78 -26 -125 -13 -61 -43 -167 -72 -255 -12 -36 -21
-67 -22 -70 -5 -43 -166 -388 -237 -508 -79 -135 -219 -339 -273 -398 -5 -6
-30 -35 -55 -65 -47 -57 -214 -226 -291 -295 -114 -103 -304 -243 -459 -336
-64 -39 -250 -135 -355 -184 -96 -44 -360 -133 -475 -160 -42 -9 -159 -34
-185 -38 -16 -3 -39 -8 -50 -10 -11 -2 -49 -7 -85 -11 -36 -4 -74 -9 -85 -11
-29 -6 -261 -17 -335 -17 -82 0 -281 12 -329 19 -56 8 -223 34 -254 40 -54 9
-293 74 -362 97 -468 162 -855 405 -1200 752 -433 436 -715 974 -831 1579 -9
43 -17 93 -19 110 -2 17 -10 74 -16 126 -14 108 -18 441 -6 574 6 79 30 256
41 311 147 719 515 1336 1066 1786 92 75 351 259 365 259 2 0 33 17 67 38 286
173 776 337 1103 369 28 2 56 7 64 9 8 3 85 7 170 11 86 3 157 7 159 8 1 1 17
1 35 -1 17 -1 84 -5 147 -9z"/>
<path d="M3454 4562 c-33 -5 -47 -26 -104 -167 -72 -179 -197 -481 -220 -535
-18 -42 -116 -279 -215 -520 -77 -189 -88 -211 -96 -203 -4 4 -23 64 -42 133
-52 186 -176 628 -264 940 -43 151 -86 286 -95 300 -18 24 -18 24 -212 25
-196 1 -216 -2 -228 -37 -4 -9 33 -148 82 -310 201 -667 256 -848 346 -1148
52 -173 110 -364 129 -425 19 -60 55 -180 81 -266 55 -186 65 -202 125 -202
75 -1 94 8 114 55 10 24 26 61 36 83 9 22 67 162 129 310 62 149 119 286 127
305 8 19 19 45 24 58 5 12 13 32 19 45 5 12 50 121 100 242 170 409 194 465
206 465 7 0 15 -12 19 -27 3 -15 15 -45 25 -68 10 -22 34 -80 54 -130 21 -49
43 -103 50 -120 8 -16 118 -282 246 -590 128 -308 241 -576 251 -596 18 -37
19 -37 77 -34 32 1 67 7 78 13 13 7 38 73 87 234 37 122 70 230 72 238 5 18
82 273 155 515 29 94 57 186 62 205 5 19 28 94 50 165 22 72 45 146 50 165 5
19 26 87 45 150 140 464 186 618 189 641 2 17 -4 33 -17 45 -18 16 -40 18
-206 19 -106 0 -195 -4 -206 -10 -20 -10 -24 -23 -252 -870 -103 -384 -135
-499 -141 -515 -7 -20 -17 0 -89 175 -31 77 -63 154 -70 170 -7 17 -57 136
-110 265 -53 129 -128 312 -167 405 -38 94 -91 220 -116 280 -25 61 -49 115
-54 122 -9 11 -67 13 -124 5z"/>
</g>
</svg>
