<?xml version="1.0" encoding="utf-8"?>
<!-- Generator: Adobe Illustrator 22.1.0, SVG Export Plug-In . SVG Version: 6.00 Build 0)  -->
<svg version="1.1" id="Layer_1" xmlns="http://www.w3.org/2000/svg" xmlns:xlink="http://www.w3.org/1999/xlink" x="0px" y="0px"
	 width="95px" height="74px" viewBox="0 0 95 74" enable-background="new 0 0 95 74" xml:space="preserve">
<path fill="#0F141E" d="M16.5052967,68.8153992h2.2684002c1.6805,0,2.8367004-0.4224014,3.6135006-1.3101959
	c0.7352009-0.826004,1.1345005-2.0306015,1.1345005-3.4260025c0-1.4804993-0.4619007-2.6215019-1.3654995-3.489502
	c-0.9027004-0.867897-1.8700008-1.1847-3.5071011-1.1847h-5.7770996V73.5112h3.6332989V68.8153992z M16.5052967,65.8759003
	v-3.5303001h1.2188015c1.3446999,0,1.9955997,0.5914993,1.9955997,1.7750969c0,1.2063065-0.6298008,1.7564011-2.0158997,1.7564011
	h-1.1975002L16.5052967,65.8759003z M33.1377983,59.4056015h-3.6332016V73.5112h3.6332016V59.4056015z M43.8098984,59.4056015
	h-3.6348991V73.5112h8.0011978v-3.1091995h-4.3681984V59.4056015H43.8098984z M60.8727989,58.9826012
	c-1.9528008,0-3.8015022,0.6352997-5.1240997,1.7762985c-1.6604004,1.4174995-2.6254997,3.4894981-2.6254997,5.6051979
	c0,4.3967056,3.2760963,7.6539993,7.6867981,7.6539993c2.0610008,0,3.780899-0.5920944,5.1884003-1.7756958
	c1.6808014-1.4169006,2.6255035-3.5111008,2.6255035-5.7522049c0-1.9459991-0.7130051-3.7642975-2.0159073-5.1391945
	c-1.490593-1.5861015-3.4030952-2.3684006-5.7335968-2.3684006H60.8727989z M60.8727989,62.5363007
	c2.1848984,0,3.9494972,1.7768021,3.9494972,3.9550018c0.0038986,2.192894-1.7598991,3.9725952-3.9376984,3.9748993
	c-0.0042992,0-0.0078011,0-0.0117989,0c-2.2046013,0-3.948101-1.7762985-3.948101-4.0168991
	C56.9246979,64.3136978,58.7099991,62.5363007,60.8727989,62.5363007L60.8727989,62.5363007z M80.145195,62.5153008h3.0258026
	v-3.1086006H73.5513v3.1086006h2.9605942V73.5112h3.6352997V62.5147018L80.145195,62.5153008z M38.2558975,3.0211
	C41.2124977,1.1075,44.7311974,0,48.5072975,0C59.0022964,0,67.510498,8.5668001,67.510498,19.1329002
	c0,10.5672989-8.5082016,19.1329994-19.0032005,19.1329994c-3.5334015,0.0056992-6.9986992-0.9843979-10.0014-2.8600006v9.9099007
	h-9.0013008V3.0211H38.2558975z M48.5072975,29.7070007c5.8008995,0,10.5015984-4.7333012,10.5015984-10.5741005
	c0-5.8402004-4.7006989-10.5735006-10.5015984-10.5735006c-5.8005981,0-10.5014,4.7333002-10.5014,10.5735006
	C38.0058975,24.9736996,42.7066994,29.7070007,48.5072975,29.7070007z M65.8147964,31.4685001L88.7480011,21.5597
	c0.744194-0.3195992,1.5184937-1.2187996,1.723793-1.9981995l3.5475006-13.4078999l-4.2746964,1.5969l-2.3139038,5.3270001
	c-0.2071991,0.5829992-0.7709961,1.191-1.3383942,1.4397001l-16.5347061,7.1861992
	C69.1393967,25.2213001,67.8522949,28.5790997,65.8147964,31.4685001L65.8147964,31.4685001z M69.6921997,20.0252991
	l15.8151016-6.8739986c0.1893997-0.0846004,0.461998-0.3769007,0.5312958-0.5745001l2.0415039-4.2133007l-18.7005005,6.9881001
	c0.2725983,1.5407,0.3769989,3.1080999,0.3125992,4.6726007V20.0252991z M68.8718948,13.1654997L94.7166977,3.5139
	l0.2580032-0.9741001C95.1685944,1.7995,94.6892014,1.3573,93.9031982,1.5571001L66.8697968,8.4520998
	c0.8536987,1.4833002,1.5251999,3.0665998,2.0002975,4.7123003L68.8718948,13.1654997z M27.5042973,30.7339993L6.2710977,21.5597
	c-0.7445002-0.3195992-1.5202999-1.2187996-1.7252002-1.9981995L0.9981976,6.1536002l4.2757001,1.5969l2.3130999,5.3270001
	c0.2070999,0.5829992,0.7704005,1.191,1.3379998,1.4397001l18.5792999,8.0733986V30.7339993z M27.5042973,20.9715996
	L9.5117979,13.1519003c-0.1906004-0.0840006-0.4636002-0.3758001-0.5325003-0.5739002L6.9391975,8.3641005l20.5650997,7.6857996
	V20.9715996z M27.5042973,13.6718998L0.2999976,3.5144999l-0.257-0.9735999c-0.1939-0.7402999,0.2863-1.183,1.0719-0.9821
	l26.3894005,6.7287006v5.3849993V13.6718998z"/>
</svg>
