<?xml version="1.0" encoding="utf-8"?>
<!-- Generator: Adobe Illustrator 22.1.0, SVG Export Plug-In . SVG Version: 6.00 Build 0)  -->
<svg version="1.1" id="Layer_1" xmlns="http://www.w3.org/2000/svg" xmlns:xlink="http://www.w3.org/1999/xlink" x="0px" y="0px"
	 width="180px" height="37px" viewBox="0 0 180 37" enable-background="new 0 0 180 37" xml:space="preserve">
<g>
	<g>
		<path fill-rule="evenodd" clip-rule="evenodd" fill="#0F141E" d="M20.7166138,15.4282227
			c-1.565918-1.5864868-4.1394653-2.3804321-7.72052-2.3804321c-3.581665,0-6.4431763,0.7939453-8.5853882,2.3804321
			c-2.1424561,1.5877075-3.5241089,4.1070557-4.1460571,7.5587769c-0.6220093,3.4512329-0.1473999,5.9711914,1.4228516,7.5582886
			c1.5709229,1.5870972,4.1463013,2.3810425,7.7280273,2.3810425c3.5811768,0,6.4406128-0.7939453,8.5783691-2.3810425
			c2.1375122-1.5870972,3.5172119-4.1070557,4.1392212-7.5582886
			C22.7546387,19.5352783,22.2825928,17.0159302,20.7166138,15.4282227z M17.0110474,22.9932861
			c-0.3796997,2.1080322-1.1222534,3.6912231-2.2275391,4.7523193c-1.105896,1.0598755-2.6795044,1.5899048-4.7214966,1.5899048
			c-2.0421143,0-3.427063-0.5300293-4.1550903-1.5899048c-0.7280884-1.0610962-0.9025879-2.6442871-0.522522-4.7523193
			c0.3792114-2.1074829,1.1246948-3.6939697,2.2354126-4.7579956c1.1109009-1.0650024,2.6875-1.59729,4.7294312-1.59729
			c2.0419922,0,3.4239502,0.5322876,4.1468506,1.59729C17.2191162,19.2993164,17.3908081,20.8858032,17.0110474,22.9932861z
			 M34.56604,17.6746826c-1.7166138-0.0090942-3.3720093,0.4874268-4.9667358,1.4884033l0.0720215-0.3977661
			c0.0429688-0.2388916,0.001709-0.4363403-0.1245117-0.5924072c-0.1257935-0.1549072-0.3109741-0.2321167-0.5554199-0.2321167
			h-2.6213989c-0.2356567,0-0.4464722,0.0772095-0.6329956,0.2321167c-0.1864014,0.1560669-0.3012695,0.3535156-0.3438721,0.5924072
			L22.255249,36.1838989c-0.0432129,0.2388916-0.0016479,0.4368896,0.1242676,0.5917969
			c0.1259766,0.1544189,0.3112793,0.2333374,0.555603,0.2333374h3.0426025c0.2355957,0,0.4465942-0.0789185,0.6328735-0.2333374
			c0.1863403-0.1560059,0.3011475-0.3535156,0.3446045-0.5917969l0.7354126-4.0844116
			c1.3850098,0.4534302,2.65271,0.6804199,3.8027344,0.6804199c2.1859741,0,4.0402832-0.6497803,5.5631714-1.9498291
			c1.5223999-1.3004761,2.5043945-3.1741943,2.9454956-5.6220703c0.4337158-2.4099121,0.1397095-4.2677002-0.8823853-5.5728149
			C38.0978394,18.3284302,36.5796509,17.6746826,34.56604,17.6746826z M35.3024292,25.2080078
			c-0.2745361,1.5223999-0.7338867,2.6282959-1.3792114,3.3184204C33.2781372,29.2164307,32.3356323,29.5625,31.0948486,29.5625
			c-0.796936,0-1.7466431-0.1815796-2.8491211-0.5441895l1.2481689-6.930603
			c1.4474487-0.7962036,2.5966187-1.1951294,3.447937-1.1951294c1.1046753,0,1.84198,0.3433228,2.2119751,1.0294189
			C35.5239258,22.6074219,35.5733032,23.7025757,35.3024292,25.2080078z M51.0839233,17.6746826
			c-2.4812012,0-4.5413818,0.6542969-6.1804199,1.9616089c-1.6390991,1.3074341-2.6795654,3.1879272-3.1210938,5.6409302
			c-0.4420776,2.4524536-0.0802002,4.3164673,1.0845947,5.5903931c1.1646118,1.2749634,2.9968872,1.9122925,5.4963379,1.9122925
			c4.951355,0.0084839,7.6531982-1.2410278,8.1051636-3.7496948c0.0457153-0.2542114,0.0043335-0.465332-0.1245117-0.6304321
			c-0.128479-0.1644897-0.3151855-0.2479858-0.5596924-0.2479858H53.760437
			c-0.6535034,0.0097046-1.2172852,0.2485962-1.6913452,0.7183838c-0.6047974,0.5947266-1.5457764,0.8920288-2.8227539,0.8920288
			c-1.131897,0-1.9301147-0.232605-2.3944092-0.6939087c-0.4647827-0.4624634-0.6506958-1.2030029-0.5582886-2.2192993h10.2279663
			c0.2443237,0,0.460022-0.0794067,0.6473389-0.2371826c0.1870728-0.1583252,0.3029785-0.3613892,0.3468628-0.6060181
			l0.1397095-0.7763062c0.4379883-2.4326172,0.0772095-4.2987671-1.0828857-5.6010742
			C55.4124146,18.3261108,53.5831299,17.6746826,51.0839233,17.6746826z M53.1262207,23.8314209h-6.315918
			c0.4855347-2.0922241,1.7310181-3.1379395,3.7372437-3.1379395
			C52.5527954,20.6934814,53.4125366,21.7391968,53.1262207,23.8314209z M70.9691162,17.6746826
			c-1.6121216,0-3.3123779,0.6429443-5.1010742,1.9282227l0.1506958-0.8375854
			c0.0432129-0.2388916,0.0015869-0.4363403-0.1242065-0.5924072c-0.1260986-0.1549072-0.3112183-0.2321167-0.5557251-0.2321167
			h-3.0426025c-0.2354736,0-0.4464111,0.0772095-0.6328735,0.2321167c-0.1862793,0.1560669-0.3010254,0.3535156-0.3442383,0.5924072
			l-2.3305664,12.937561c-0.0430298,0.2394409-0.0012207,0.4346313,0.1257935,0.5844116
			c0.126709,0.151001,0.3126221,0.2264404,0.5568848,0.2264404h3.0426025c0.2352905,0,0.4459229-0.0754395,0.6315308-0.2264404
			c0.1854858-0.1497803,0.2998657-0.3449707,0.3430786-0.5844116l1.6046753-8.9087524
			c1.5230103-1.2676392,2.850647-1.9015503,3.982605-1.9015503c1.7311401-0.0078735,2.4052124,1.0509033,2.0219116,3.1777344
			l-1.3746948,7.6325684c-0.0418091,0.2303467,0.0006104,0.4233398,0.1265869,0.5782471
			c0.1263428,0.1549072,0.3114014,0.232605,0.5559082,0.232605h3.0288086c0.2445068,0,0.4594116-0.0754395,0.6455078-0.2264404
			c0.1851807-0.1497803,0.2994995-0.3449707,0.3428955-0.5844116l1.3745728-7.6325684
			c0.3898315-2.1630859,0.126709-3.7695313-0.7890015-4.8198242C74.2927246,18.2001343,72.8796387,17.6746826,70.9691162,17.6746826
			z M90.3936157,13.4467163h-7.5927124c-0.3532104,0-0.6789551,0.1237183-0.977478,0.3723145
			c-0.2982178,0.2484741-0.4799805,0.5543823-0.5454102,0.9174805l-2.9821167,16.553772
			c-0.0621948,0.3462524,0.0123291,0.6361084,0.2235107,0.8710327c0.2116089,0.2354736,0.4935913,0.352417,0.8468018,0.352417
			h7.5927124c3.9298706,0,6.9273071-0.7666016,8.9918213-2.300415c2.0645752-1.5332031,3.3928833-3.9425049,3.984375-7.2263184
			c0.5914307-3.2843018,0.1315918-5.6953125-1.3796997-7.2335815
			C97.0440063,14.2155762,94.3234253,13.4467163,90.3936157,13.4467163z M94.8143311,22.9869995
			c-0.3790283,2.1047363-1.0883179,3.5925293-2.1276855,4.4611816c-1.0395508,0.8688354-2.7723999,1.3023071-5.1993408,1.3023071
			h-3.612793l2.0787354-11.5410767h3.6129761c2.435791,0,4.0140991,0.4368896,4.7351074,1.309082
			C95.0228271,19.392334,95.1936035,20.881897,94.8143311,22.9869995z M114.8200073,18.4736938
			c0.0405884-0.2265015-0.0045166-0.4165039-0.135376-0.5692139c-0.1309204-0.1531982-0.3186035-0.2297974-0.5632324-0.2297974
			c-1.385376,0-2.5338745,0.1549072-3.4455566,0.4659424c-0.911438,0.3108521-1.8876343,0.7886963-2.9273071,1.4360962
			l0.1483765-0.8244019c0.0424194-0.2355347,0.0001831-0.4296265-0.1259766-0.5822144
			c-0.1268311-0.1531982-0.3120117-0.2293091-0.5565186-0.2293091h-3.0426025c-0.2354736,0-0.4462891,0.0772095-0.6328125,0.2321167
			c-0.1864014,0.1560669-0.3009033,0.3535156-0.3442993,0.5924072l-2.3305664,12.937561
			c-0.0429077,0.2394409-0.0010986,0.4346313,0.1258545,0.5844116c0.1268311,0.151001,0.3125,0.2264404,0.5570068,0.2264404
			h3.0426025c0.2351074,0,0.4458008-0.0754395,0.6313477-0.2275391c0.1856689-0.1503906,0.300293-0.3461914,0.3440552-0.5872803
			l1.5372314-8.5360107c1.3512573-1.3181152,2.6380615-1.977478,3.8605957-1.977478
			c0.2445068,0,0.5999756,0.0130615,1.065979,0.0397949c0.4661865,0.0266113,0.8029175,0.0396729,1.0115967,0.0396729h0.4345093
			c0.2443848,0,0.4592285-0.0737915,0.6445313-0.2224731c0.1851807-0.1486206,0.2990723-0.3410034,0.3416748-0.5765381
			L114.8200073,18.4736938z M120.7106934,18.3453979h-3.0426025c-0.2355957,0-0.4458008,0.0748901-0.6312866,0.2252808
			c-0.1856079,0.1498413-0.2995605,0.3433228-0.3424683,0.581604l-2.2614136,12.5545044
			c-0.0430298,0.237793-0.0007324,0.4330444,0.1259155,0.5811157c0.1269531,0.1508789,0.3126831,0.2258301,0.5571899,0.2258301
			h3.0426025c0.2354736,0,0.4456787-0.0749512,0.6312866-0.2258301c0.1854858-0.1480713,0.2996826-0.3433228,0.3427124-0.5811157
			l2.2612915-12.5545044c0.0413818-0.229187-0.0012817-0.4209595-0.1273804-0.5753784
			C121.1403198,18.4226074,120.9551392,18.3453979,120.7106934,18.3453979z M120.961792,13.1812134h-1.684082
			c-0.4891968,0-0.8969727,0.140686-1.2238159,0.4215698c-0.3269043,0.2803345-0.5335693,0.6616211-0.6201782,1.1411133
			l-0.0830078,0.4630127c-0.0866089,0.4805908-0.0150146,0.8613892,0.2150879,1.1422729
			c0.2301025,0.2814331,0.5852051,0.4216309,1.0652466,0.4216309h1.684082c0.4890747,0,0.8967896-0.1401978,1.2236938-0.4216309
			c0.3267822-0.2808838,0.5335083-0.6616821,0.6201782-1.1422729l0.0831299-0.4630127
			c0.0883179-0.4885864,0.0170898-0.8709717-0.2139282-1.1484985
			C121.7975464,13.3190918,121.4420166,13.1812134,120.961792,13.1812134z M141.1763306,18.5922241
			c0.0299072-0.114624,0.0299072-0.2173462,0.0006104-0.3058472c-0.0580444-0.2297974-0.2455444-0.3455811-0.5625-0.3455811
			h-2.6213379c-0.3895874,0-0.7758789,0.1083984-1.1589966,0.3256836c-0.3833618,0.2174072-0.6785889,0.4988403-0.8858643,0.8444214
			l-5.1863403,8.2839966l-2.2163696-8.2839966c-0.0823364-0.3455811-0.276001-0.6270142-0.5809326-0.8444214
			c-0.3051758-0.2172852-0.6524048-0.3256836-1.0415039-0.3256836h-2.6078491c-0.3169556,0-0.5464478,0.1157837-0.6872559,0.3455811
			c-0.0614014,0.088501-0.102478,0.1912231-0.1226807,0.3058472c-0.0274048,0.1503906-0.0133667,0.3240967,0.0419922,0.5186768
			l3.6642456,12.2321777c0.100647,0.3467407,0.3035889,0.6282349,0.6085815,0.8449097
			c0.3048706,0.2178955,0.6430664,0.3257446,1.0144043,0.3257446h1.9967041c0.3713989,0,0.7508545-0.1078491,1.1386719-0.3257446
			c0.3873901-0.2166748,0.6940918-0.4981689,0.9194946-0.8449097l8.0710449-12.2321777
			C141.0753174,18.9248047,141.147522,18.7523193,141.1763306,18.5922241z M149.8307495,17.6746826
			c-2.4813232,0-4.541626,0.6542969-6.180542,1.9616089c-1.6391602,1.3074341-2.6792603,3.1879272-3.1212158,5.6409302
			c-0.4418945,2.4524536-0.0802612,4.3164673,1.0845337,5.5903931c1.1647949,1.2749634,2.9970703,1.9122925,5.4962769,1.9122925
			c4.9517212,0.0084839,7.6531372-1.2410278,8.1051025-3.7496948c0.0461426-0.2542114,0.0045166-0.465332-0.1239624-0.6304321
			c-0.1288452-0.1644897-0.3155518-0.2479858-0.5598145-0.2479858h-2.0239868
			c-0.6533203,0.0097046-1.2175293,0.2485962-1.6913452,0.7183838c-0.6052856,0.5947266-1.5459595,0.8920288-2.8226929,0.8920288
			c-1.1320801,0-1.9302979-0.232605-2.3946533-0.6939087c-0.4645386-0.4624634-0.6504517-1.2030029-0.5582275-2.2192993h10.2280273
			c0.2444458,0,0.460144-0.0794067,0.6472778-0.2371826c0.1873169-0.1583252,0.3029785-0.3613892,0.3468018-0.6060181
			l0.1397705-0.7763062c0.4380493-2.4326172,0.0772095-4.2987671-1.0828857-5.6010742
			C154.1593018,18.3261108,152.3297119,17.6746826,149.8307495,17.6746826z M151.8730469,23.8314209h-6.31604
			c0.4854126-2.0922241,1.730896-3.1379395,3.7366943-3.1379395
			C151.2993164,20.6934814,152.1593018,21.7391968,151.8730469,23.8314209z M156.6845093,5.0588989
			c-1.1560059-0.2752075-2.317688,0.4318237-2.5949097,1.5792236l-1.701355,7.0440674
			c-0.2769165,1.1478882,0.4353027,2.3010254,1.5912476,2.5756226c1.1559448,0.2758179,2.3180542-0.4307251,2.5951538-1.5786133
			l1.7009888-7.0440674C158.5530396,6.4877319,157.8408203,5.3341064,156.6845093,5.0588989z M178.3301392,5.0582886
			c-1.1561279-0.2752075-2.3178101,0.4324341-2.5950928,1.5792236l-1.7012329,7.0441895
			c-0.2774048,1.1478882,0.4351196,2.3009033,1.5913086,2.5761108c1.1558838,0.2752075,2.317688-0.4318237,2.5947266-1.5792236
			l1.7011719-7.0440674C180.1983032,6.4871216,179.4859009,5.3334961,178.3301392,5.0582886z M164.8027344,1.9544067
			c-1.1558228-0.2745972-2.317688,0.432373-2.5949097,1.5797729l-3.0288086,12.5403442
			c-0.2769165,1.1473999,0.4353027,2.3015747,1.5914307,2.5767822c1.1557617,0.2752075,2.317688-0.4329834,2.5945435-1.5797729
			l3.0290527-12.539856C166.6710205,3.3833008,165.9588013,2.2302246,164.8027344,1.9544067z M172.4044189,0.0592041
			c-1.1558838-0.2745972-2.3178101,0.4318237-2.5950928,1.5797729l-3.5252075,14.5950317
			c-0.2770996,1.1489868,0.4353027,2.302124,1.5911865,2.5772705c1.1558228,0.2752075,2.3179321-0.4317627,2.5947266-1.5797729
			l3.5256958-14.5955811C174.272644,1.4879761,173.5604248,0.3339233,172.4044189,0.0592041z"/>
	</g>
</g>
</svg>
