<?xml version="1.0" encoding="utf-8"?>
<!-- Generator: Adobe Illustrator 22.1.0, SVG Export Plug-In . SVG Version: 6.00 Build 0)  -->
<svg version="1.1" id="Layer_1" xmlns="http://www.w3.org/2000/svg" xmlns:xlink="http://www.w3.org/1999/xlink" x="0px" y="0px"
	 width="200px" height="37px" viewBox="0 0 200 37" enable-background="new 0 0 200 37" xml:space="preserve">
<g>
	<g>
		<path fill="#0F141E" d="M36.7698975,6.0789795L18.9509888,0L1.132019,6.0789795l3.8283691,1.9680786
			c4.7185059,2.4250488,9.3619385,3.6383057,13.9906006,3.6383057c4.6286011,0,9.2720947-1.2132568,13.9905396-3.6383057
			L36.7698975,6.0789795z M56.8978271,7.9918823h-7.8825073v20.7177734h2.397583v-6.5410767h5.4849243
			c5.1846924,0,8.1821899-2.6340942,8.1818848-7.2213745C65.0797119,10.5371704,62.0825195,7.9918823,56.8978271,7.9918823z
			 M56.8078003,19.8902588h-5.3948975v-9.6192627l5.3948975,0.0003052c3.776001,0,5.9642944,1.5977783,5.9641113,4.7351685
			C62.7719116,18.2329102,60.5841064,19.8902588,56.8078003,19.8902588z M81.2053223,22.9085693l-7.6724243-14.916687h-2.9674072
			v20.7177734h2.2783813V11.6323853l7.6118164,14.8873901h1.4384155l7.6428833-14.8873901l0.0297241,17.0772705H91.78479V7.9918823
			h-2.9373779L81.2053223,22.9085693z M115.9130859,14.9472046c0-4.4100342-3.0263672-6.9553223-8.2713623-6.9553223h-7.9729004
			v20.7177734h2.3981934v-6.5410767h5.574707c0.479187,0,0.9589844-0.0297241,1.4086914-0.0592651l4.345459,6.6003418h2.727356
			l-4.9153442-7.0439453C114.2348022,20.6889648,115.9130859,18.3800049,115.9130859,14.9472046z M107.6417236,19.8902588h-5.574707
			v-9.6192627l5.574707,0.0003052c3.8062744,0,5.9631958,1.597168,5.9631958,4.7351685
			C113.6049194,18.2318115,111.447998,19.8902588,107.6417236,19.8902588z M127.0665283,32.0941772h2.1322021V4.1887817h-2.1322021
			V32.0941772z M16.7634888,21.8167725c-0.4291992-1.2236938-0.9793091-2.319458-1.6668091-3.3269043
			c-2.1256714-3.1137085-5.6279907-5.4755859-10.9934082-8.2329102L0,8.1478882L3.2124023,27.791687l-0.0009155,0.0006104
			l14.8123169,9.2106934v-5.5471191c0-3.9970703-0.3729858-7.0914917-1.2675781-9.6358643L16.7634888,21.8167725z
			 M22.8131714,18.4945068c-0.6871948,1.0075073-1.2382813,2.1032715-1.6682739,3.3251953l0.0001831,0.000061
			c-0.8946533,2.5444946-1.2678833,5.638916-1.2678833,9.6361084v5.5471191l14.8129272-9.2106934L37.902771,8.1478882
			l-4.1032715,2.1090698C28.4447021,13.0089722,24.942688,15.3761597,22.8131714,18.4945068z M141.7177734,9.8886719
			l3.2330322,5.7474365h0.6110229l3.24646-5.7474365l0.0123901,6.5932007h0.9424438V8.4830933h-1.2474365l-3.2463989,5.7589722
			l-3.2589111-5.7589722h-1.2602539v7.9987793h0.9676514V9.8886719z M154.5247803,14.4594727h4.8630371l0.993103,2.0223999
			h1.1072998l-3.9841309-7.9987793h-1.0567017l-3.9970093,7.9987793h1.0820313L154.5247803,14.4594727z M156.9436035,9.5230713
			l2.0115967,4.0562134h-3.9970703L156.9436035,9.5230713z M169.9926147,16.4818726h1.1578979l-2.0874023-2.7193604
			c1.2855835-0.3773193,1.9984741-1.2685547,1.9984741-2.5940552c0-1.7026978-1.2855835-2.6853638-3.5130615-2.6853638h-3.3865967
			v7.9987793h1.0183716V13.956604h2.3682251c0.2036743,0,0.4072876-0.0115967,0.5980835-0.022644L169.9926147,16.4818726z
			 M165.1802979,13.0764771V9.362915h2.3682251c1.6164551,0,2.532959,0.6171875,2.532959,1.8282471
			c0,1.2458496-0.9165039,1.8853149-2.532959,1.8853149H165.1802979z M180.6734009,16.4818726h1.2479858l-3.793396-4.5249634
			l3.526123-3.4738159h-1.2097168l-4.786499,4.6051025V8.4830933h-1.0183105v7.9987793h1.0183105v-2.0910034l1.7313232-1.7026978
			L180.6734009,16.4818726z M191.0239258,15.6134033h-5.1938477v-2.7421265h4.4938354v-0.8800659h-4.4938354V9.362915h5.0283203
			V8.4830933h-6.0466919v7.9987793h6.2122192V15.6134033z M193.1630859,8.4830933V9.362915h2.9020996v7.1189575h1.0184326V9.362915
			h2.9157104V8.4830933H193.1630859z M141.6176758,25.074585h4.2084351v-0.880127h-4.2084351v-2.6282959h4.7088013v-0.8794556
			h-5.6623535v7.9985962h5.8171997v-0.8685913h-4.8636475V25.074585z M155.6962891,20.6867065h-1.1209106l-2.3239746,3.085083
			l-2.3004761-3.085083h-1.1208496l2.8491211,3.8850708l-3.0634155,4.1135254h1.1202393l2.5153809-3.3479004l2.5388794,3.3479004
			h1.1444092l-3.0758057-4.1595459L155.6962891,20.6867065z M161.8713989,20.6867065h-3.1351929v7.9985962h0.9536133v-2.5253906
			h2.1815796c2.0626831,0,3.2540894-1.0167236,3.2540894-2.7880249
			C165.1254883,21.6691895,163.934082,20.6867065,161.8713989,20.6867065z M161.8361206,25.2797852h-2.1463013v-3.713623h2.1463013
			c1.501709,0,2.3717041,0.6174927,2.3717041,1.8283081C164.2078247,24.6403809,163.3378296,25.2797852,161.8361206,25.2797852z
			 M168.8565063,25.074585h4.208374v-0.880127h-4.208374v-2.6282959h4.7088013v-0.8794556h-5.6624146v7.9985962h5.8171997
			v-0.8685913h-4.8635864V25.074585z M183.3165283,23.3718872c0-1.7026978-1.2039185-2.6851807-3.2901001-2.6851807h-3.1711426
			v7.9985962h0.9536133v-2.5253906h2.2175293c0.1906738,0,0.3814697-0.0116577,0.5603638-0.022644l1.7283936,2.5480347h1.0848999
			l-1.9549561-2.7195435C182.6489258,25.588501,183.3165283,24.6972656,183.3165283,23.3718872z M180.0264282,25.2797852h-2.2175293
			v-3.713623h2.2175293c1.5140991,0,2.3723755,0.6174927,2.3723755,1.8283081
			C182.3988037,24.6403809,181.5405273,25.2797852,180.0264282,25.2797852z M185.5339966,21.5661621h2.7177734v7.1191406h0.9537354
			v-7.1191406h2.7296753v-0.8794556h-6.4011841V21.5661621z M195.1539917,22.640564
			c0-0.6743774,0.7034302-1.0626831,1.776001-1.0626831c0.6674805,0,1.5499268,0.1940918,2.3005371,0.6743774l0.4055786-0.8574829
			c-0.6917114-0.4453125-1.6807251-0.7423706-2.6461182-0.7423706c-1.7288818,0-2.8850098,0.8109741-2.8850098,2.0678101
			c0,2.8682861,4.6968994,1.7486572,4.6846313,3.8512573c0,0.765686-0.7506104,1.2336426-1.9550171,1.2336426
			c-0.9418945,0-2.0026855-0.4110107-2.7772827-1.1307373l-0.4291382,0.8226318
			c0.7870483,0.7196655,1.9785156,1.2224731,3.1947021,1.2224731c1.7883301,0,3.0157471-0.8568115,3.0157471-2.1939087
			C199.8508911,23.6229858,195.1539917,24.6972656,195.1539917,22.640564z"/>
	</g>
</g>
</svg>
