<?xml version="1.0" encoding="utf-8"?>
<!-- Generator: Adobe Illustrator 22.1.0, SVG Export Plug-In . SVG Version: 6.00 Build 0)  -->
<svg version="1.1" id="Layer_1" xmlns="http://www.w3.org/2000/svg" xmlns:xlink="http://www.w3.org/1999/xlink" x="0px" y="0px"
	 width="200px" height="34px" viewBox="0 0 200 34" enable-background="new 0 0 200 34" xml:space="preserve">
<g>
	<g>
		<path fill="#0F141E" d="M136.8009033,5.3302612c-2.9381714,0-5.3632202,2.4522095-5.3632202,5.4226074
			c0,4.8254395,5.0957031,7.374939,6.2687378,8.6760864c0.9552612,1.0587158,1.5952759,1.9659424,1.4725952,3.8196411
			c-0.0845947,1.2796631-1.0726318,2.4046021-2.3781128,2.4046021c-1.3059082,0-2.3786011-1.0844116-2.3786011-2.4046021v-1.6032104
			c0-0.4244995-0.3262939-0.7545166-0.7462769-0.7545166h-1.4922485c-0.4197998,0-0.7460938,0.3300171-0.7460938,0.7545166
			v1.6032104c0,2.9707031,2.4250488,5.4223633,5.3632202,5.4223633c2.9376831,0,5.362915-2.3111572,5.362915-5.4223633
			c0-2.1254883-0.5306396-3.5117188-1.3092041-4.7264404c-2.0214233-3.1552734-6.432312-4.0670776-6.432312-7.7692871
			c0-1.3201904,1.0726929-2.4049072,2.3786011-2.4049072c1.305481,0,2.3781128,1.0847168,2.3781128,2.4049072v1.6030884
			c0,0.4244385,0.3269043,0.7545166,0.7462158,0.7545166h1.4926758c0.4194946,0,0.7459106-0.3300781,0.7459106-0.7545166v-1.6030884
			C142.1638184,7.7824707,139.7385864,5.3302612,136.8009033,5.3302612z M67.0327759,5.3302612
			c-2.9379883,0-5.3630981,2.4522095-5.3630981,5.4226074c0,4.8254395,5.09552,7.374939,6.2687988,8.6760864
			c0.9552002,1.0587158,1.5953369,1.9659424,1.4726563,3.8196411c-0.0846558,1.2796631-1.0727539,2.4046021-2.3783569,2.4046021
			c-1.305542,0-2.3783569-1.0844116-2.3783569-2.4046021v-1.6032104c0-0.4244995-0.3265991-0.7545166-0.7462158-0.7545166
			h-1.4923706c-0.4197998,0-0.7461548,0.3300171-0.7461548,0.7545166v1.6032104
			c0,2.9707031,2.4251099,5.4223633,5.3630981,5.4223633c2.9380493,0,5.3630981-2.3111572,5.3630981-5.4223633
			c0-2.1254883-0.5304565-3.5117188-1.309082-4.7264404c-2.0216064-3.1552734-6.432373-4.0670776-6.432373-7.7692871
			c0-1.3201904,1.0728149-2.4049072,2.3783569-2.4049072c1.305603,0,2.3783569,1.0847168,2.3783569,2.4049072v1.6030884
			c0,0.4244385,0.3266602,0.7545166,0.7463989,0.7545166h1.4922485c0.4196167,0,0.7460938-0.3300781,0.7460938-0.7545166v-1.6030884
			C72.395874,7.7824707,69.9708252,5.3302612,67.0327759,5.3302612z M82.3759766,5.3302612
			c-2.9846802,0-5.4098511,2.4522095-5.4098511,5.4224243v12.4484863c0,3.0181274,2.4251709,5.4697876,5.4098511,5.4697876
			c2.9383545,0,5.3635254-2.4516602,5.3635254-5.4697876V10.7526855C87.739502,7.7824707,85.3143311,5.3302612,82.3759766,5.3302612
			z M84.7546997,23.2011719c0,1.3676147-1.0728149,2.4520264-2.3787231,2.4520264
			c-1.352478,0-2.4250488-1.0844116-2.4250488-2.4520264V10.7526855c0-1.3200073,1.0725708-2.4047241,2.4250488-2.4047241
			c1.3059082,0,2.3787231,1.0847168,2.3787231,2.4047241V23.2011719z M98.1870728,5.3302612
			c-2.9853516,0-5.4106445,2.4522095-5.4106445,5.4224243v17.1638184c0,0.3775024,0.3262939,0.7544556,0.7463989,0.7544556
			h1.4922485c0.4200439,0,0.7463989-0.3769531,0.7463989-0.7544556V10.7526855c0-1.3200073,1.072937-2.4047241,2.4255981-2.4047241
			c1.3057251,0,2.3783569,1.0847168,2.3783569,2.4047241v17.1638184c0,0.3775024,0.3268433,0.7544556,0.7462769,0.7544556h1.4926758
			c0.4194946,0,0.7458496-0.3769531,0.7458496-0.7544556V10.7526855C103.5502319,7.7824707,101.125,5.3302612,98.1870728,5.3302612z
			 M110.8250732,5.3302612h-1.4920654c-0.4199829,0-0.7462769,0.3301392-0.7462769,0.7541504v21.8320923
			c0,0.4244995,0.3262939,0.7544556,0.7462769,0.7544556h1.4920654c0.4200439,0,0.7463989-0.3299561,0.7463989-0.7544556V6.0844116
			C111.5714722,5.6604004,111.1984863,5.3302612,110.8250732,5.3302612z M121.9708252,5.3302612
			c-2.9848022,0-5.3634033,2.4522095-5.3634033,5.4224243v12.4957275c0,2.9708862,2.3786011,5.4225464,5.3634033,5.4225464
			c2.9380493,0,5.3634033-2.4516602,5.3634033-5.4225464v-1.744751c0-0.4243774-0.3265381-0.7544556-0.7463989-0.7544556h-1.4921265
			c-0.4199219,0-0.7463989,0.3300781-0.7463989,0.7544556v1.744751c0,1.3203735-1.0726318,2.4047852-2.378479,2.4047852
			c-1.3059082,0-2.3786011-1.0844116-2.3786011-2.4047852V10.7526855c0-1.3200073,1.0726929-2.4047241,2.3786011-2.4047241
			c1.3058472,0,2.378479,1.0847168,2.378479,2.4047241v1.6032715c0,0.4244385,0.3264771,0.7545166,0.7463989,0.7545166h1.4921265
			c0.4198608,0,0.7463989-0.3300781,0.7463989-0.7545166v-1.6032715
			C127.3342285,7.7824707,124.9088745,5.3302612,121.9708252,5.3302612z M159.8861084,5.3302612
			c-1.4926147,0-2.8916016,0.6600952-3.8712158,1.6975098c-0.9790649-1.0374146-2.3781738-1.6975098-3.8706665-1.6975098
			c-2.9848022,0-5.4100342,2.4522095-5.4100342,5.4224243v17.1638184c0,0.3775024,0.3735352,0.7544556,0.7463379,0.7544556
			h1.4922485c0.4199219,0,0.7462158-0.3769531,0.7462158-0.7544556V10.7526855c0-1.3200073,1.0726318-2.4047241,2.4252319-2.4047241
			c1.3058472,0,2.3786011,1.0847168,2.3786011,2.4047241v17.1638184c0,0.3775024,0.3262939,0.7544556,0.7462769,0.7544556h1.4921265
			c0.4198608,0,0.7463989-0.3769531,0.7463989-0.7544556V10.7526855c0-1.3200073,1.0725708-2.4047241,2.378479-2.4047241
			c1.352478,0,2.4251099,1.0847168,2.4251099,2.4047241v17.1638184c0,0.3775024,0.326355,0.7544556,0.7459106,0.7544556h1.4925537
			c0.4194946,0,0.7463379-0.3769531,0.7463379-0.7544556V10.7526855
			C165.2960205,7.7824707,162.8709106,5.3302612,159.8861084,5.3302612z M172.5700073,5.3302612h-1.4921875
			c-0.4200439,0-0.7463379,0.3301392-0.7463379,0.7541504v21.8320923c0,0.4244995,0.3262939,0.7544556,0.7463379,0.7544556
			h1.4921875c0.4199219,0,0.7460938-0.3299561,0.7460938-0.7544556V6.0844116
			C173.3161011,5.6604004,172.9432983,5.3302612,172.5700073,5.3302612z M184.8817749,5.3302612h-7.182251
			c-0.4193115,0-0.7458496,0.3301392-0.7458496,0.7541504v1.5090942c0,0.4241943,0.3265381,0.7544556,0.7458496,0.7544556h2.0986938
			v19.5685425c0,0.3775024,0.3264771,0.7544556,0.7463989,0.7544556h1.4920654c0.4199219,0,0.7463989-0.3769531,0.7463989-0.7544556
			V8.3479614h2.0986938c0.4195557,0,0.7458496-0.3302612,0.7458496-0.7544556V6.0844116
			C185.6276245,5.6604004,185.3013306,5.3302612,184.8817749,5.3302612z M199.2454834,5.3302612h-1.4925537
			c-0.3729248,0-0.7463989,0.3301392-0.7463989,0.7541504v9.3837891h-4.7567139V6.0844116
			c0-0.4240112-0.3262939-0.7541504-0.7462158-0.7541504h-1.4926758c-0.4194946,0-0.7458496,0.3301392-0.7458496,0.7541504
			v21.8320923c0,0.4244995,0.326355,0.7544556,0.7458496,0.7544556h1.4926758c0.4199219,0,0.7462158-0.3299561,0.7462158-0.7544556
			v-9.430603h4.7567139v9.430603c0,0.4244995,0.3734741,0.7544556,0.7463989,0.7544556h1.4925537
			c0.4194946,0,0.7457886-0.3299561,0.7457886-0.7544556V6.0844116
			C199.991272,5.6604004,199.664978,5.3302612,199.2454834,5.3302612z M38.2692871,15.5650024H2.9962769L9.4796753,4.1704102
			c0.3800049-0.6675415,1.4591064-1.2985229,2.22052-1.2985229h3.2410889l6.8033447,8.0021973
			c1.0979614,1.2919922,3.1963501,2.2659912,4.8809814,2.2659912H38.142334c1.6792603,0,2.2909546-0.947876,2.4760742-1.3554077
			c0.1851196-0.4075928,0.4973755-1.4946899-0.597229-2.7822876l-5.7268677-6.7362671
			C33.196106,0.9743042,31.0977783,0,29.4130859,0H11.7001953c-1.7810059,0-3.7940674,1.1773682-4.682373,2.7381592
			L0.4584351,14.2664795c-0.560791,0.9852905-0.609314,2.0278931-0.1331177,2.8605347
			c0.4760742,0.8320923,1.394104,1.3093872,2.5184937,1.3093872h35.2728882l-6.4832153,11.394165
			c-0.3796997,0.6674194-1.4588013,1.2984009-2.2203979,1.2984009h-3.2426758l-6.8034058-8.0023804
			c-1.0982056-1.2918091-3.1964722-2.2658081-4.8812256-2.2658081H2.9708252c-1.6795044,0-2.2911377,0.9476929-2.4761353,1.3551025
			c-0.1851807,0.4077148-0.4974976,1.4949951,0.5971069,2.7825928l5.727417,6.7365112
			c1.0979614,1.2918091,3.1964111,2.2658691,4.8809814,2.2658691h17.7128906c1.7814331,0,3.7943115-1.177063,4.6824341-2.7381592
			l6.5592041-11.5275879c0.560791-0.9855957,0.6091919-2.0281982,0.1329956-2.8605957
			C40.3117065,16.0421143,39.3936768,15.5650024,38.2692871,15.5650024z M29.4130859,2.8718872
			c0.8486328,0,2.1740112,0.6154175,2.7269897,1.2658691l5.2119141,6.130127H26.6256104
			c-0.8486938,0-2.1738281-0.6149902-2.7269897-1.2655029l-5.211731-6.1304932H29.4130859z M11.7001953,31.1289673
			c-0.8486938,0-2.1737671-0.6151123-2.7271118-1.2658081l-5.2120972-6.1307983h10.7247925
			c0.8488159,0,2.1739502,0.6154175,2.7271118,1.2661133l5.2120361,6.1304932H11.7001953z"/>
	</g>
</g>
</svg>
