<?xml version="1.0" encoding="utf-8"?>
<!-- Generator: Adobe Illustrator 23.0.1, SVG Export Plug-In . SVG Version: 6.00 Build 0)  -->
<svg version="1.1" id="Layer_1" xmlns="http://www.w3.org/2000/svg" xmlns:xlink="http://www.w3.org/1999/xlink" x="0px" y="0px"
	 width="200px" height="45px" viewBox="0 0 200 45" enable-background="new 0 0 200 45" xml:space="preserve">
<g>
	<g>
		<path d="M57.4696045,18.5596924c0,0.8056641-0.1157227,1.3822021-0.3469238,1.7304077
			c-0.2313843,0.3475952-0.652771,0.5219727-1.2650757,0.5219727c-0.748291,0-1.5507202-0.2866821-2.4075928-0.8601685v3.09198
			c0.7752075,0.4915771,1.7272949,0.7374268,2.8565674,0.7374268c1.4147339,0,2.5097046-0.3786011,3.2852173-1.1364136
			c0.7752075-0.7579346,1.1630249-1.9216309,1.1630249-3.4918213v-8.1497803h-3.2852173V18.5596924z M70.0183716,11.0032959
			L65.2437744,23.576355h3.2443237l0.8773193-2.4365845h4.5501709l0.8980103,2.4365845h3.3259888l-4.7746582-12.5730591H70.0183716z
			 M70.3654175,18.4367676l1.2854614-3.5426025l1.2854004,3.5426025H70.3654175z M89.7700806,16.1223755l-3.4277954-5.1190796
			h-3.0405884V23.576355h3.2036133v-7.2081909l3.223999,4.5053101h0.081604l3.2036133-4.5053101v7.2081909h3.223877V11.0032959
			h-3.0198975L89.7700806,16.1223755z M111.1547241,20.7301025h-5.7336426v-2.1704102h5.2438354v-2.7650146h-5.2438354v-1.9655762
			h5.7336426v-2.8258057h-8.9575195V23.576355h8.9575195V20.7301025z M122.4790039,15.9995728l-1.8972778-0.572876
			c-0.3544312-0.109314-0.6160278-0.2359009-0.7861328-0.3792114c-0.1699829-0.1433716-0.2548218-0.3513184-0.2548218-0.6243896
			c0-0.6008301,0.5511475-0.9011841,1.6525269-0.9011841c1.333374,0,2.5980835,0.4164429,3.7954102,1.2492676v-3.0305786
			c-1.142334-0.6281128-2.4552002-0.9421387-3.9382324-0.9421387c-1.3742676,0-2.5065918,0.3413086-3.3971558,1.0241089
			c-0.8911133,0.6827393-1.3364258,1.6310425-1.3364258,2.8463135c0,1.010376,0.2684326,1.8092041,0.8057861,2.3956909
			c0.5375366,0.5870972,1.3569336,1.0377197,2.4589233,1.3518066l1.8973999,0.5523071
			c0.3809814,0.137207,0.6530762,0.2769165,0.8164063,0.420166c0.163269,0.1434326,0.244873,0.3581543,0.244873,0.6449585
			c0,0.6690674-0.6463013,1.0036011-1.9381714,1.0036011c-1.4014282,0-2.7416382-0.4370117-4.0198975-1.3109131v3.0307007
			c1.1286011,0.6826782,2.4959717,1.0241089,4.1015015,1.0241089c1.4960938,0,2.7235718-0.3308105,3.6828613-0.993103
			c0.9591064-0.6622314,1.4385376-1.6416016,1.4385376-2.9387207c0-0.9689331-0.269043-1.763916-0.8059082-2.3858032
			C124.4611816,16.8429565,123.6218872,16.3551636,122.4790039,15.9995728z M148.4747925,22.9210815v-3.1945801
			c-0.8571777,0.6691895-1.8300171,1.0036011-2.9177856,1.0036011c-1.0477295,0-1.8776245-0.3071899-2.4891968-0.9216309
			c-0.6123047-0.614502-0.918396-1.4536133-0.918396-2.5186157c0-1.078064,0.3060913-1.9246826,0.918396-2.5390625
			c0.6115723-0.614502,1.4414673-0.9216919,2.4891968-0.9216919c1.0606079,0,2.0335083,0.3413696,2.9177856,1.0241089v-3.194519
			c-0.8571777-0.5734863-1.918396-0.8602295-3.1831055-0.8602295c-1.918396,0-3.4688721,0.5939331-4.6525879,1.78125
			c-1.1831055,1.1878662-1.7749023,2.7581787-1.7749023,4.710144c0,1.9526367,0.5917969,3.5222168,1.7749023,4.7095337
			c1.1837158,1.1878662,2.7341919,1.7819214,4.6525879,1.7819214
			C146.5563965,23.781311,147.6176147,23.4945068,148.4747925,22.9210815z M159.8400269,10.7984619
			c-1.7953491,0-3.2617188,0.607605-4.3971558,1.8222046c-1.1361694,1.215332-1.7037964,2.7719116-1.7037964,4.6691895
			c0,1.883728,0.567627,3.4371338,1.7037964,4.6586304c1.135437,1.2221069,2.6018066,1.8328247,4.3971558,1.8328247
			c1.80896,0,3.2850952-0.6107178,4.4279785-1.8328247c1.1422729-1.2214966,1.7138062-2.7749023,1.7138062-4.6586304
			c0-1.8972778-0.5715332-3.4538574-1.7138062-4.6691895C163.1251221,11.4060669,161.6489868,10.7984619,159.8400269,10.7984619z
			 M161.890686,19.9008789c-0.5238037,0.6622925-1.2070923,0.993103-2.0506592,0.993103
			c-0.8436279,0-1.5201416-0.3276978-2.0304565-0.9830933c-0.5101929-0.6553955-0.7649536-1.5286865-0.7649536-2.6210327
			s0.2547607-1.9655762,0.7649536-2.6209717c0.5103149-0.6553955,1.1868286-0.9832153,2.0304565-0.9832153
			c0.8435669,0,1.5268555,0.331543,2.0506592,0.993103c0.5233154,0.6622314,0.7855225,1.53302,0.7855225,2.611084
			C162.6762085,18.3685913,162.4140015,19.2387085,161.890686,19.9008789z M177.1428833,10.7984619
			c-1.7952881,0-3.2616577,0.607605-4.3971558,1.8222046c-1.1361084,1.215332-1.7038574,2.7719116-1.7038574,4.6691895
			c0,1.883728,0.567749,3.4371338,1.7038574,4.6586304c1.135498,1.2221069,2.6018677,1.8328247,4.3971558,1.8328247
			c1.8088989,0,3.2850952-0.6107178,4.4280396-1.8328247c1.1422729-1.2214966,1.7138062-2.7749023,1.7138062-4.6586304
			c0-1.8972778-0.5715332-3.4538574-1.7138062-4.6691895C180.4279785,11.4060669,178.9517822,10.7984619,177.1428833,10.7984619z
			 M179.1936035,19.9008789c-0.5238037,0.6622925-1.2072144,0.993103-2.0507202,0.993103
			c-0.8435669,0-1.5202026-0.3276978-2.0303955-0.9830933s-0.7650146-1.5286865-0.7650146-2.6210327
			s0.2548218-1.9655762,0.7650146-2.6209717s1.1868286-0.9832153,2.0303955-0.9832153
			c0.8435059,0,1.5269165,0.331543,2.0507202,0.993103c0.5233154,0.6622314,0.7854004,1.53302,0.7854004,2.611084
			C179.9790039,18.3685913,179.7169189,19.2387085,179.1936035,19.9008789z M195.2009277,17.0235596l4.611084-6.0202637h-3.8157959
			l-3.9785156,5.3443604v-5.3443604h-3.2852173V23.576355h3.2852173v-5.6310425l4.1010132,5.6310425h3.8768921
			L195.2009277,17.0235596z M109.9525146,35.9522705l-2.953125-4.7653809h-1.439209v9.144104h1.5134277V33.927063
			l2.8342896,4.4382935h0.0593872l2.7897949-4.4382935v6.4039307h1.5140381v-9.144104h-1.3804321L109.9525146,35.9522705z
			 M117.6248779,40.3309937h5.9507446v-1.3853149h-4.437439V36.324707h4.0217896v-1.3549194h-4.0217896v-2.4130859h4.437439
			v-1.369812h-5.9507446V40.3309937z M129.65979,31.1868896h-3.0717773v9.144104h3.0717773
			c1.3450928,0,2.4188232-0.4146118,3.2203369-1.2438354c0.8009033-0.8285522,1.2015991-1.9382935,1.2015991-3.3285522
			c0-1.3896484-0.4006958-2.4993286-1.2015991-3.3285522C132.0786133,31.6015015,131.0048828,31.1868896,129.65979,31.1868896z
			 M131.774292,38.09729c-0.5095825,0.565979-1.234375,0.8483887-2.1738892,0.8483887h-1.4694214v-6.3889771h1.4694214
			c0.9395142,0,1.6643066,0.2854614,2.1738892,0.8565063c0.5095825,0.5709839,0.7644043,1.3529663,0.7644043,2.3453979
			C132.5386963,36.751709,132.2838745,37.531189,131.774292,38.09729z M136.9458008,40.3309937h1.5429688v-9.144104h-1.5429688
			V40.3309937z M144.6331177,31.1868896l-3.5023193,9.144104h1.5578003l0.9351196-2.5317383h3.4873657l0.9351196,2.5317383
			h1.5726929l-3.5021973-9.144104H144.6331177z M144.1135254,36.4588013l1.2467651-3.3807983l1.2462158,3.3807983H144.1135254z
			 M41.4346924,27.7738037c0-4.5007935-3.6151733-8.1434326-8.0900879-8.1759033v-4.6759033h-1.6160278v20.9022827h-4.5155029
			c-0.704895,1.2498779-2.0012817,2.138916-3.5130615,2.2349243h-4.2930298
			c5.1834106-0.585022,9.215332-4.9942017,9.215332-10.3539429c0-5.6513062-4.4871216-10.2453613-10.0786133-10.4108887v-0.031311
			c3.3129883-0.1624756,5.9506226-2.9007568,5.9506226-6.2659912c0-3.361084-2.6376343-6.1032104-5.9506226-6.2658691V3.6408081
			h2.8208008l-0.9069214-1.8203125L21.364502,0h-4.4367065v38.0517578
			c-2.3275757-0.0780029-4.1904907-1.9821777-4.2153931-4.3297729H7.7687988v-1.3546143h5.0374146l-5.0374146-5.0552979v-8.8125
			c1.026001-0.3416138,1.7713013-1.3009033,1.7713013-2.4451904H9.5294189v-1.1323853H4.3933716v1.1323853H4.3826904
			c0,1.1445313,0.7454834,2.1038818,1.7713013,2.4453735v7.1918335l-3.2456665-3.2573242v9.9331055h3.2456665v1.3546143H0v4.4057007
			l0.0021973,0.0040894c1.7158813,0,3.1870728,1.0001221,3.9003906,2.4487305l0.0192261,0.0126953
			c1.2005615,2.0407104,1.8403931,3.6364746,6.3358154,4.4016113c2.7921753-0.9764404,6.326355-1.8120117,10.0297852-2.9037476
			c7.1257935-2.102356,11.3240967-0.5618896,13.6084595,1.9721069c1.3348999-0.3182983,2.3312378-1.5126953,2.3312378-2.9486084
			V39.678894l8.4223633-2.6495361v-1.102478H33.7515259C38.0355835,35.6831055,41.4346924,32.1325073,41.4346924,27.7738037z
			 M18.5437012,6.7686768c1.0233154,1.1152954,1.6594849,2.5944824,1.6594849,4.2283936
			c0,1.6380005-0.6361694,3.1176147-1.6594849,4.2327271V6.7686768z M18.5437012,20.5250854
			c1.7827148,1.8703003,2.8953857,4.385376,2.8953857,7.1801758c0,2.7949219-1.1109009,5.3215942-2.8953857,7.1932373V20.5250854z
			 M33.3446045,33.3292847v-11.119812c1.3706055,1.454895,2.22052,3.4046021,2.22052,5.5643311
			C35.5651245,29.9290771,34.7130737,31.8765869,33.3446045,33.3292847z"/>
	</g>
</g>
</svg>
