<?xml version="1.0" encoding="utf-8"?>
<!-- Generator: Adobe Illustrator 22.1.0, SVG Export Plug-In . SVG Version: 6.00 Build 0)  -->
<svg version="1.1" id="Layer_1" xmlns="http://www.w3.org/2000/svg" xmlns:xlink="http://www.w3.org/1999/xlink" x="0px" y="0px"
	 width="200px" height="40px" viewBox="0 0 200 40" enable-background="new 0 0 200 40" xml:space="preserve">
<path fill-rule="evenodd" clip-rule="evenodd" fill="#0F141E" d="M199.1730957,14.3493996l-0.0328979,0.0456009h-0.055191
	h-0.3582001h-0.0510101l-0.0318909-0.0391006c-0.3609009-0.4335995-0.8348083-0.8464994-1.4112091-1.2284994
	c-0.566391-0.3744001-1.3470917-0.5649004-2.3188934-0.5649004c-0.8052063,0-1.5021057,0.1415997-2.0716095,0.4216003
	c-0.5678864,0.2805996-1.0429993,0.6782999-1.4101868,1.1829996c-0.3700104,0.5079002-0.6439056,1.1113005-0.8126068,1.7927999
	c-0.1703949,0.6837006-0.2574005,1.4309998-0.2574005,2.2220993c0,0.8134003,0.0870056,1.5834007,0.2574005,2.2894001
	c0.1687012,0.7032013,0.4425964,1.3240013,0.8135986,1.842701c0.3672943,0.5165997,0.8529968,0.9305992,1.4441986,1.2329006
	c0.5886078,0.3016987,1.3068085,0.4540997,2.134201,0.4540997c0.5695038,0,1.0875092-0.092701,1.5402985-0.2751007
	c0.4575043-0.1844006,0.8497009-0.3987999,1.1692963-0.6380997c0.3794098-0.2593994,0.7234039-0.5669994,1.0217133-0.9137001
	l0.0758972-0.0902004l0.0816956,0.0846996c0.1773071,0.1807003,0.4055023,0.4591007,0.678299,0.8270016
	c0.2850037,0.3846989,0.4293976,0.7487984,0.4293976,1.0830994c0,0.3526993-0.2357025,0.7329998-0.7191925,1.1632996
	c-0.421402,0.3908005-1.0323029,0.7283001-1.8141022,1.0028c-0.7796936,0.272501-1.7409058,0.4108009-2.8545074,0.4108009
	c-0.7015991,0-1.4823914-0.1020012-2.3214874-0.3033009c-0.8487091-0.2019005-1.6560059-0.6126995-2.3984985-1.2203999
	c-0.7436066-0.6082993-1.3790131-1.4678001-1.8880005-2.5536003c-0.5095062-1.0874004-0.7680054-2.5438995-0.7680054-4.3297005
	c0-1.6543999,0.2702026-3.0386992,0.802002-4.1147995c0.533493-1.0759993,1.1963959-1.9349995,1.969696-2.5529995
	c0.7733002-0.6164999,1.6049957-1.0549002,2.4727936-1.3024006C193.353302,10.0327997,194.1255951,9.908,194.7832031,9.908
	c0.7881927,0,1.5046997,0.0846004,2.1293945,0.2501001c0.6258087,0.1671,1.1719055,0.3803997,1.6220093,0.6349001
	c0.454895,0.2572002,0.8104858,0.5366001,1.0561981,0.8302002c0.2547913,0.3049994,0.3842926,0.6060991,0.3842926,0.8947992
	c0,0.2827005-0.0912933,0.6034002-0.2727966,0.9523001C199.5202026,13.8176003,199.3460999,14.1051998,199.1730957,14.3493996z
	 M184.266098,35.1897011v4.6513977c0,0.0511017-0.0419006,0.0945015-0.1118927,0.0945015h-0.1264038
	c-0.0498047,0-0.0923004-0.0433998-0.0923004-0.0945015v-4.6513977h-1.3428955
	c-0.0706024,0-0.0918121-0.0433998-0.0918121-0.1085014v-0.1085014c0-0.0575981,0.042511-0.0944977,0.0918121-0.0944977h3.0237885
	c0.0562134,0,0.0923004,0.043499,0.0923004,0.0944977v0.1226006c0,0.0510025-0.036087,0.0944023-0.0923004,0.0944023H184.266098z
	 M184.3977966,18.7653008l-0.0137939,0.0943985h-0.093399h-10.1524048c0.0785065,1.5270004,0.491394,2.7750015,1.2265015,3.710001
	c0.7447052,0.9500999,1.917099,1.4314003,3.4828949,1.4314003c0.6162109,0,1.1603088-0.0656013,1.6166992-0.1947002
	c0.4548035-0.1303005,0.8530121-0.2952003,1.179306-0.4895c0.3302002-0.1959,0.615799-0.3994007,0.8488007-0.6044998
	c0.2344971-0.207201,0.4277039-0.3999004,0.5753021-0.5719013l0.0854034-0.1008987l0.0806885,0.1051998
	c0.2398987,0.3109989,0.4575043,0.6522007,0.6475067,1.0158005c0.1947937,0.3776989,0.2892914,0.6674995,0.2892914,0.8850994
	c0,0.1968994-0.0593872,0.4030991-0.178299,0.6126003c-0.1172943,0.2056999-0.3126984,0.4151001-0.5822906,0.6240005
	c-0.5090027,0.3895988-1.1666107,0.7194996-1.9548035,0.9799995c-0.7891998,0.2609997-1.7546997,0.3934002-2.8677063,0.3934002
	c-1.0269928,0-2.009491-0.1529999-2.9180908-0.4553013c-0.9156036-0.3048992-1.7270966-0.8008995-2.4134064-1.4748001
	c-0.6900024-0.6750984-1.2424927-1.5688-1.6405029-2.6567001c-0.3975983-1.0830994-0.600296-2.4244995-0.600296-3.9867992
	c0-1.4074993,0.2059021-2.6430998,0.6108093-3.6730995c0.4055939-1.0304003,0.9453888-1.8893003,1.6055908-2.5536003
	c0.6587067-0.6619997,1.4235077-1.1584997,2.2711029-1.4737005C176.3482056,10.0669003,177.2330017,9.908,178.1316071,9.908
	c1.1177979,0,2.0916901,0.1936998,2.8968964,0.5767002c0.8040924,0.3842001,1.469101,0.9040995,1.9765015,1.5475998
	c0.5058899,0.6402998,0.8858948,1.3929996,1.1284943,2.2372999c0.2409058,0.8400002,0.3630066,1.7195997,0.3630066,2.6128006
	c0,0.3125-0.0053101,0.6310997-0.0169983,0.9538994C184.4689026,18.1548996,184.4412994,18.4678993,184.3977966,18.7653008z
	 M181.3330994,14.9761c-0.1145935-0.4932003-0.3110046-0.9333-0.5827026-1.3093996
	c-0.2680969-0.3711004-0.6311035-0.6679001-1.0764008-0.8812008c-0.4512024-0.2142992-1.0078888-0.3228998-1.6580963-0.3228998
	c-1.0895996,0-1.9967041,0.3696003-2.6967926,1.0988998c-0.6821136,0.7108002-1.0780029,1.7006006-1.1778107,2.9432001h7.3675079
	C181.5014038,15.9610004,181.4425049,15.4476995,181.3330994,14.9761z M168.2774963,25.9421997
	c-0.3535004,0.2028999-0.7946014,0.3744011-1.3135986,0.5100994c-0.5175934,0.1350002-1.0912933,0.2034016-1.7048035,0.2034016
	c-1.1454926,0-2.0758972-0.2306004-2.7642975-0.6843014c-0.6909943-0.4545994-1.1882935-1.0900993-1.4770966-1.8871994
	c-0.1544037-0.4298-0.25-0.9046001-0.2828979-1.4130001c-0.0328979-0.4948997-0.0498962-0.9962997-0.0498962-1.490099V5.5879998
	V5.4768h0.1093903h0.1947021c0.0393066,0,0.0935059-0.0054002,0.1645966-0.0156999
	c0.0817108-0.0120001,0.1571045-0.0179,0.2271118-0.0179c0.6056976,0,1.1416931,0.1627998,1.593399,0.4833999
	c0.4633942,0.3299999,0.6978912,0.9278998,0.6978912,1.7788v2.5362h4.7483063h0.1082001v0.1107998V12.7844v0.1118002h-0.1082001
	h-4.7483063v8.4846001c0,1.7630005,0.6576996,2.6203003,2.0106049,2.6203003c0.3327942,0,0.647995-0.0591011,0.9378052-0.1752014
	c0.2913971-0.1160984,0.5578918-0.2582989,0.7934875-0.4210987c0.2341003-0.1644001,0.4326019-0.3234005,0.5897064-0.4731998
	c0.1931915-0.1833,0.2664032-0.271801,0.2940979-0.3136005l0.0812073-0.1259003l0.093399,0.1182995
	c0.2578888,0.3288002,0.4860992,0.6582012,0.6761932,0.9778004c0.1936951,0.3299007,0.2924042,0.651701,0.2924042,0.957201
	c0,0.2300987-0.1051025,0.4655991-0.3190002,0.7217999C168.9190979,25.5091,168.6347046,25.7360001,168.2774963,25.9421997z
	 M159.5343018,38.7221985c0,0.7217026-0.723999,1.2849998-1.5334015,1.2849998
	c-0.8365021,0-1.3986053-0.5057983-1.4904022-0.5914993c-0.0424957-0.0368996-0.0774994-0.0727005-0.0213013-0.1518974
	l0.0632019-0.0868034c0.0498962-0.0575981,0.0982056-0.0792999,0.1555939-0.0293999
	c0.0695038,0.0652008,0.5907135,0.5568008,1.3003082,0.5568008c0.6405945,0,1.1815033-0.4405975,1.1815033-0.9680977
	c0-0.6435013-0.5138092-0.9322014-1.3641052-1.2285004c-0.8157959-0.2961998-1.3576965-0.5926018-1.3576965-1.422802
	c0-0.5415001,0.4225006-1.2784004,1.519104-1.2784004c0.6962891,0,1.2100983,0.3679008,1.2100983,0.3679008
	c0.0280914,0.0217018,0.076889,0.0727005,0.0280914,0.1520004c-0.0206909,0.0292015-0.0419006,0.0651016-0.0567932,0.0943985
	c-0.0424042,0.0575027-0.0843964,0.0792007-0.1544037,0.0357018c-0.0211945-0.0139999-0.4920959-0.3395996-1.0345001-0.3395996
	c-0.8639984,0-1.1882935,0.549099-1.1882935,0.9603996c0,0.6142998,0.457489,0.8812981,1.1675873,1.1200981
	C158.9223022,37.5371017,159.5343018,37.8833008,159.5343018,38.7221985z M153.3312073,26.1560001h-0.109314v-0.1107998v-1.0950012
	c-0.1390991,0.1341-0.297287,0.2778015-0.4723969,0.4287014c-0.2658997,0.2311001-0.5865021,0.4405994-0.9510956,0.6240997
	c-0.3641052,0.1823006-0.7808075,0.3386002-1.2425079,0.4627991c-0.4622955,0.1259003-0.9760895,0.1899014-1.5264893,0.1899014
	c-0.855011,0-1.6899109-0.1480999-2.481308-0.4400005c-0.7946014-0.2931004-1.5052032-0.7672997-2.1109009-1.4104004
	c-0.607193-0.6418991-1.0916901-1.4965992-1.4420013-2.5394993c-0.3497925-1.0391006-0.5280914-2.3234997-0.5280914-3.8174
	c0-1.4715996,0.1835938-2.7615004,0.5439911-3.8342009c0.3609009-1.0743999,0.8507996-1.9664993,1.4569092-2.6534996
	c0.6055908-0.6869001,1.3204956-1.2068005,2.1246948-1.5443001c0.8019104-0.3374996,1.6432037-0.5084,2.5014954-0.5084
	c0.9888,0,1.843811,0.1718998,2.5407104,0.5106001c0.5981903,0.2912998,1.1082001,0.6217995,1.5222931,0.9836998V2.4229V2.3117001
	h0.1092987h0.1953125c0.0392914,0,0.0928955-0.0049002,0.1628876-0.0153c0.0807037-0.0119002,0.1572113-0.0184,0.2282104-0.0184
	c0.6268921,0,1.1692963,0.1643999,1.611496,0.4872999c0.4510956,0.3325999,0.6797943,0.9463,0.6797943,1.8226998v21.457201
	v0.1107998h-0.1082001H153.3312073z M153.157196,14.1599998c-0.1199951-0.1204996-0.2675934-0.2642994-0.4405975-0.4314003
	c-0.2012024-0.1931992-0.4580994-0.3776999-0.7626953-0.5485992c-0.3084106-0.1725006-0.6703033-0.3207006-1.0753021-0.4390001
	c-0.4033966-0.1183004-0.8657074-0.1785002-1.376297-0.1785002c-1.2026978,0-2.1650085,0.4656-2.8587036,1.3848
	c-0.7021942,0.9284-1.0578003,2.3251991-1.0578003,4.151701c0,0.8550987,0.0657959,1.6533985,0.1932068,2.3723984
	c0.1294861,0.7140999,0.3550873,1.3439999,0.6734924,1.8719997c0.3164063,0.5242004,0.7382965,0.9355011,1.2532043,1.2231007
	c0.5164032,0.2887001,1.1644897,0.4346008,1.9272003,0.4346008c0.5126953,0,0.9919891-0.0656013,1.4261017-0.1947002
	c0.4367981-0.1292,0.8184967-0.2931004,1.135788-0.4868011c0.3122101-0.1892986,0.5536041-0.412899,0.7192993-0.6640987
	c0.1613007-0.2464008,0.243103-0.4944,0.243103-0.7364006V14.1599998z M139.9002991,38.1362h-1.2801971v1.7048988
	c0,0.0511017-0.0424042,0.0945015-0.1119995,0.0945015h-0.1269073c-0.0498962,0-0.0917969-0.0433998-0.0917969-0.0945015v-4.8684006
	c0-0.0509987,0.0419006-0.0944977,0.0917969-0.0944977h1.5117035c0.871994,0,1.5890961,0.7304001,1.5890961,1.6180992
	C141.4819946,37.3992996,140.7648926,38.1362,139.9002991,38.1362z M139.8721924,35.2178993h-1.2520905V37.8041h1.259491
	c0.6884003,0,1.2717133-0.5849991,1.2717133-1.3143005C141.1513062,35.7811012,140.5679932,35.2178993,139.8721924,35.2178993z
	 M135.7337952,26.1560001h-0.1092987v-0.1107998v-1.1606007c-0.4252014,0.4313011-0.9846039,0.8237-1.6676941,1.1681995
	c-0.7935028,0.4005013-1.8300018,0.6029015-3.0783997,0.6029015c-1.2738037,0-2.2785034-0.2067013-2.9860992-0.6137009
	c-0.710907-0.4081001-1.2457047-0.9382-1.5904007-1.5757999c-0.3426056-0.6315994-0.5496063-1.3353996-0.6162033-2.0935001
	c-0.0657959-0.7476997-0.0987015-1.4738007-0.0987015-2.1585999v-9.9953003v-0.1105995h0.1092987h0.1951065
	c0.0391998,0,0.093399-0.0054998,0.1633987-0.0163002c0.082901-0.0120001,0.1579971-0.0173998,0.2279968-0.0173998
	c0.6280975,0,1.170105,0.1639004,1.611702,0.4883995c0.450592,0.3321009,0.6799011,0.9463005,0.6799011,1.8271008v7.8480005
	c0,0.8529987,0.0594025,1.5410995,0.1761932,2.0446987c0.1130066,0.4840012,0.3455048,0.8556995,0.6926117,1.1058006
	c0.3125916,0.2355003,0.6554871,0.3971996,1.0190887,0.4818993c0.3694,0.0867996,0.8057098,0.1307011,1.2956085,0.1307011
	c0.5715942,0,1.1033936-0.0818996,1.5784912-0.2447014c0.4771118-0.1627998,0.8901062-0.3656998,1.2276001-0.6044998
	c0.3338013-0.2343998,0.5991974-0.489399,0.788208-0.7579994c0.1809998-0.2567005,0.2722931-0.4878006,0.2722931-0.6858997
	V10.2187996v-0.1105995h0.1092987h0.1952972c0.0393066,0,0.0935059-0.0054998,0.1635132-0.0163002
	c0.0827942-0.0120001,0.156601-0.0173998,0.2276917-0.0173998c0.6295013,0,1.171402,0.1703997,1.6123962,0.5052004
	c0.4512024,0.3423996,0.6794128,0.9615993,0.6794128,1.8383999v13.6271v0.1107998h-0.1082001H135.7337952z M125.7305984,34.9726982
	v0.1226006c0,0.0510025-0.0424957,0.0944023-0.0923996,0.0944023h-2.5737V37.1833h2.2293015
	c0.0497971,0,0.0923004,0.0433998,0.0923004,0.0932999v0.1226997c0,0.0509987-0.0425034,0.0943985-0.0923004,0.0943985h-2.2293015
	v2.1380005h2.5737c0.0499039,0,0.0923996,0.0433998,0.0923996,0.0944023v0.1149979
	c0,0.0511017-0.0424957,0.0945015-0.0923996,0.0945015h-2.8199005c-0.0483017,0-0.0907974-0.0433998-0.0907974-0.0945015v-4.8684006
	c0-0.0509987,0.0424957-0.0944977,0.0907974-0.0944977h2.8199005
	C125.6881027,34.8782005,125.7305984,34.9216995,125.7305984,34.9726982z M120.2912979,24.0461998
	c-0.5824966,0.7873993-1.3473969,1.4260006-2.2702942,1.8980999c-0.9238052,0.4721012-2.0580063,0.711401-3.3725052,0.711401
	c-1.3130951,0-2.4420013-0.2285004-3.3552017-0.6772003c-0.9123993-0.4487-1.6654968-1.0657005-2.2394943-1.8324013
	c-0.5698013-0.7629986-0.9928055-1.6669998-1.2561035-2.6876984c-0.2619019-1.0142002-0.3956985-2.0951004-0.3956985-3.2097015
	c0-1.1177998,0.1560974-2.1943989,0.4615021-3.1982994c0.3075943-1.0093002,0.7754974-1.9018993,1.389801-2.6539001
	c0.6151962-0.7515993,1.3884964-1.3614998,2.3008957-1.8113995c0.9123993-0.4487,1.9963989-0.6771002,3.2248993-0.6771002
	c1.2910004,0,2.403801,0.2284002,3.3066025,0.6777c0.9006958,0.4504004,1.6484985,1.0602999,2.2214966,1.8140001
	c0.571701,0.7547998,0.9949036,1.6371002,1.257103,2.6215c0.262001,0.9820995,0.3946991,2.0347996,0.3946991,3.1271
	c0,1.093399-0.1326981,2.1623993-0.3946991,3.1770992C121.3021011,22.343399,120.873497,23.2588005,120.2912979,24.0461998z
	 M118.663002,16.1194992c-0.1167984-0.6619987-0.3281021-1.2670994-0.625-1.7971992
	c-0.294899-0.5253-0.7117996-0.9539995-1.2381058-1.2757998C116.2750015,12.7247,115.5779037,12.5625,114.7302017,12.5625
	c-0.8061981,0-1.4860992,0.1632996-2.021904,0.4840002c-0.5386963,0.3233995-0.9714966,0.7537003-1.2878952,1.2789993
	c-0.3192062,0.5312004-0.551506,1.1363001-0.6893997,1.7972002c-0.1402054,0.6674004-0.2110062,1.3490009-0.2110062,2.0256004
	c0,0.6777992,0.0602036,1.3778,0.1791,2.0799999c0.116806,0.6940002,0.3373032,1.3260994,0.6565018,1.8785992
	c0.3163986,0.5480003,0.7461014,1.0065002,1.2751999,1.3630009c0.5242004,0.3526993,1.2083054,0.5312004,2.0335999,0.5312004
	c0.847702,0,1.5544052-0.1785011,2.1016006-0.5323009c0.5485001-0.3547993,0.9759979-0.8116989,1.2709045-1.3586998
	c0.2979965-0.5517998,0.508194-1.1845989,0.6260986-1.8817997c0.1184998-0.7021999,0.1780014-1.4022007,0.1780014-2.0799999
	C118.8410034,17.4722004,118.7815018,16.7896004,118.663002,16.1194992z M107.5662994,34.8065987h0.0774994
	c0.0345001,0,0.0557022,0.0141029,0.0695038,0.0499001l1.449501,4.4355011c0.0063934,0,0.0063934,0,0.0137939,0l1.4559021-4.4355011
	c0.0138016-0.0357971,0.0350037-0.0499001,0.0695038-0.0499001h0.078598c0.0270004,0,0.0557022,0.0217018,0.0620956,0.0499001
	l0.9994049,4.9846001c0.0138016,0.0727005-0.0149002,0.0945015-0.0780029,0.0945015h-0.1682968
	c-0.0419006,0-0.0780029-0.0368996-0.0843048-0.0792999l-0.7945938-4.2336006c-0.0074005,0-0.0149002,0-0.0149002,0
	l-1.4197006,4.3269997c-0.0149002,0.0433998-0.0563049,0.0574989-0.0983047,0.0574989h-0.028595
	c-0.0351028,0-0.0770035-0.0064964-0.0919037-0.0574989l-1.4197006-4.3269997c0,0-0.0074005,0-0.0138016,0l-0.7956009,4.2336006
	c-0.0063934,0.0424004-0.0424957,0.0792999-0.0832977,0.0792999h-0.1693954c-0.0631027,0-0.0918045-0.021801-0.0770035-0.0945015
	l0.998497-4.9846001C107.5094986,34.8283005,107.5375977,34.8065987,107.5662994,34.8065987z M104.3478012,26.2882996
	c-0.3404999,0.0445004-0.6800003,0.0673008-1.0076981,0.0673008c-0.6462021,0-1.1531067-0.1063004-1.5052032-0.3147011
	c-0.354599-0.2104988-0.620697-0.4958992-0.7917023-0.8458996c-0.1679993-0.344099-0.270401-0.7332001-0.3042984-1.1574993
	c-0.0329971-0.4134998-0.0494003-0.8253002-0.0494003-1.2242012V2.4229V2.3117001h0.1088028h0.1958008
	c0.039299,0,0.0936966-0.0049002,0.1637955-0.0158c0.0817032-0.0114002,0.1571045-0.0179,0.2271042-0.0179
	c0.6289978,0,1.171196,0.1703999,1.6124954,0.5056999c0.4509048,0.3424001,0.6799011,0.9605,0.6799011,1.8379002v18.2915993
	c0,0.3277988,0.0106049,0.6105003,0.0318985,0.8388996c0.0190048,0.2133007,0.0743027,0.3929005,0.1623993,0.5333996
	c0.0846024,0.1362,0.216301,0.2361012,0.4020004,0.3055c0.1929016,0.0727005,0.4817047,0.1096001,0.8593063,0.1096001h0.1079941
	V24.8118v1.1998005v0.0802994l-0.074295,0.0249996C104.9673996,26.1853008,104.7002029,26.2406006,104.3478012,26.2882996z
	 M101.2018967,39.7261009v0.1301994c0,0.0499992-0.0423965,0.0792999-0.0917969,0.0792999h-2.482399
	c-0.0487976,0-0.091301-0.0433998-0.091301-0.0945015v-4.8684006c0-0.0509987,0.0425034-0.0944977,0.091301-0.0944977h0.1549988
	c0.0419998,0,0.084404,0.043499,0.084404,0.0944977v4.6590004h2.2429962
	C101.1945038,39.6316986,101.2018967,39.6750984,101.2018967,39.7261009z M88.9748001,22.3141003
	c0.3675003,0.5154991,0.8528976,0.9305992,1.4431,1.2329006c0.5894012,0.3016987,1.3076019,0.4540997,2.135498,0.4540997
	c0.5698013,0,1.0877991-0.092701,1.5398026-0.2751007c0.4578018-0.1844006,0.8497009-0.3987999,1.1697998-0.6380997
	c0.3813019-0.2605,0.7245026-0.5681,1.0214005-0.9137001l0.0764999-0.0902004L96.4431,22.1686993
	c0.1764984,0.1807003,0.4047012,0.4591007,0.677803,0.8270016c0.2846985,0.3851986,0.4295959,0.7498989,0.4295959,1.0830994
	c0,0.3516006-0.2363968,0.7329998-0.7206955,1.1632996c-0.4212036,0.3913002-1.0318069,0.7283001-1.8136063,1.0028
	c-0.7796936,0.272501-1.7398987,0.4108009-2.8541946,0.4108009c-0.7017059,0-1.482399-0.1020012-2.3221054-0.3033009
	c-0.8475952-0.2019005-1.6543961-0.6126995-2.3973999-1.2203999c-0.7434006-0.6072006-1.3787003-1.4666996-1.8878937-2.5536003
	c-0.5098038-1.0868988-0.7686005-2.5432987-0.7686005-4.3297005c0-1.6549988,0.2698975-3.0386992,0.8024979-4.1147995
	c0.5326004-1.0759993,1.1949997-1.9349995,1.9693985-2.5529995c0.7723007-0.6164999,1.6044998-1.0549002,2.4728012-1.3024006
	C90.8947983,10.0327997,91.6664963,9.908,92.3248978,9.908c0.7882004,0,1.5046997,0.0846004,2.1292038,0.2501001
	c0.6257019,0.1671,1.1716003,0.3797998,1.6224976,0.6349001c0.4541016,0.2572002,0.8088989,0.5360994,1.0559998,0.8302002
	c0.2555008,0.3049994,0.3851013,0.6060991,0.3851013,0.8947992c0,0.2838001-0.0923996,0.6034002-0.2735977,0.9512005
	c-0.1772995,0.3396997-0.3554001,0.6355-0.5295029,0.8801994l-0.032402,0.0456009h-0.0551987h-0.3584976h-0.0503998
	l-0.032402-0.0391006c-0.3611984-0.4341002-0.8359985-0.8476-1.4107971-1.2284994
	C94.2082977,12.7530003,93.4281006,12.5625,92.4552002,12.5625c-0.8041,0-1.5009995,0.1415997-2.0707016,0.4216003
	c-0.5684967,0.2805996-1.0427017,0.6782999-1.410202,1.1829996c-0.3703003,0.5079002-0.6440964,1.1113005-0.8131943,1.7927999
	c-0.1709061,0.6858997-0.2574005,1.4330997-0.2574005,2.2220993c0,0.8112011,0.0864944,1.5812016,0.2578964,2.2894001
	C88.3302002,21.1756992,88.6039963,21.7959003,88.9748001,22.3141003z M53.8064995,40.0071983
	c-4.3840981,0-8.4316978-1.4748993-11.6942978-3.9655991c-0.351902-0.2799988-0.5780029-0.7150993-0.5780029-1.2056999
	c0-0.5676003,0.3036003-1.0624008,0.7537003-1.3261986L49.0572014,29.6777
	c0.3126984-0.1714993,0.6703987-0.2681007,1.0503998-0.2681007c0.2276993,0,0.447998,0.0347004,0.6549988,0.0998001H50.762001
	c0.9585991,0.3212013,1.9818993,0.4960003,3.0444984,0.4960003c5.3957024,0,9.7830009-4.4853992,9.7830009-10.0018005
	s-4.3872986-10.0017996-9.7830009-10.0017996c-1.6144981,0-3.1381989,0.4031-4.4820976,1.1140003
	c0.0003967-0.0012999,0.0030975-0.0010996,0.0029984-0.0026999c-0.0180016,0.0092001-0.0360985,0.0185003-0.0541,0.0282001
	c0,0-0.0196991,0.0114002-0.0578995,0.0332003c-0.0939026,0.0514994-0.1863022,0.1041994-0.2780991,0.1573
	c-2.5726013,1.4558992-19.0278015,10.7674999-19.0305023,10.7695999c-2.3628998,1.3381004-5.3421001,0.4645004-6.6508999-1.9507999
	c-1.3093987-2.4157009-0.4543991-5.4616003,1.9080009-6.7997007C25.1676006,13.3486996,44.0978012,2.6329,44.0978012,2.6329
	C46.9592018,0.9577,50.273201,0,53.8064995,0c10.5444984,0,19.1375999,8.5307999,19.546299,19.2087994
	c0.0117035,0.2639999,0.0196991,0.528801,0.0196991,0.7947998C73.3724976,31.0505009,64.6118011,40.0071983,53.8064995,40.0071983z
	 M24.3153,10.3290005C24.0025997,10.5004997,23.6448994,10.5976,23.2653999,10.5976
	c-0.228199,0-0.4484997-0.0347004-0.6555004-0.1004c0.0006008,0.0005999,0.0006008,0.0005999,0.0011005,0.0005999
	c-0.958601-0.3218002-1.9824009-0.4960003-3.0450001-0.4960003c-5.3951998,0-9.783,4.4854002-9.783,10.0017996
	s4.3878002,10.0018005,9.783,10.0018005c1.6145,0,3.1382008-0.4035988,4.4820995-1.1140995
	c-0.0002995,0.0012989-0.0030994,0.0011997-0.0030003,0.0028c0.0180016-0.0098,0.0361004-0.0184994,0.0541-0.0282001
	c0,0,0.0215015-0.0125008,0.0389004-0.0226002c-0.0035,0.0018997-0.0119991,0.0067997-0.0149994,0.0084
	c0.0091-0.0042992,0.0201988-0.0107994,0.0340004-0.0195007c0.0938988-0.0509987,0.1868-0.1041985,0.2780991-0.157299
	c-0.0482006,0.0272999-0.0814991,0.0461998-0.1198006,0.0678997c0.0401001-0.0228004,0.0806999-0.0450001,0.1204014-0.0678997
	c2.5719986-1.4554005,19.0272007-10.7674999,19.0304012-10.7691002c2.3624001-1.3386993,5.3415985-0.4645004,6.6509972,1.9507999
	c1.3087997,2.4151993,0.4542999,5.4615993-1.9085999,6.7996998c-0.0037003,0.0022011-18.9333992,10.7179985-18.9333992,10.7179985
	c-2.8612995,1.6746025-6.1758995,2.6329002-9.7091999,2.6329002c-10.5445004,0-19.1375008-8.5306988-19.5463009-19.2086983
	C0.008,20.5345001,0,20.2696991,0,20.0035992C0,8.9567003,8.7607002,0,19.566,0c4.3845997,0,8.4321995,1.4749,11.6942997,3.9656
	c0.3519001,0.2793999,0.5785007,0.7150998,0.5785007,1.2056999c0,0.5676003-0.3036003,1.0625-0.7537003,1.3257003
	L24.3153,10.3290005z M85.1399994,34.8782005c0.0494003,0,0.091301,0.043499,0.091301,0.0944977V38.0569
	c0,0.9323006,0.5700989,1.6181984,1.5053024,1.6181984c0.9425964,0,1.5189972-0.6793976,1.5189972-1.6104965v-3.0919037
	c0-0.0575981,0.0280991-0.0944977,0.0987015-0.0944977H88.4944c0.0494003,0,0.091301,0.043499,0.091301,0.0944977v3.1201019
	c0,1.1058006-0.7308044,1.9143982-1.8490982,1.9143982c-1.1109009,0-1.8354034-0.8085976-1.8354034-1.9143982v-3.1201019
	c0-0.0509987,0.0419006-0.0944977,0.091301-0.0944977H85.1399994z M91.7926025,34.8065987l3.3755951,4.5147018
	c0.0069046,0,0.0069046,0,0.0069046,0v-4.3486023c0-0.0509987,0.0419998-0.0944977,0.091301-0.0944977h0.1411972
	c0.0487976,0,0.091301,0.043499,0.091301,0.0944977v4.9411011c0,0.0652008-0.0568008,0.093399-0.1125031,0.093399h-0.091301
	c-0.0074005,0-0.0636978-0.021698-3.4042969-4.5580978h-0.006897v4.3919983c0,0.0511017-0.0425034,0.0945015-0.091301,0.0945015
	h-0.1338043c-0.0487976,0-0.091301-0.0433998-0.091301-0.0945015v-4.9412003c0-0.0574989,0.0489044-0.0932999,0.1057053-0.0932999
	H91.7926025z M103.7682037,34.8782005c0.0498962,0,0.0917969,0.043499,0.0917969,0.0944977v4.8684006
	c0,0.0576019-0.0494003,0.0945015-0.0981979,0.0945015h-0.1481018c-0.0493011,0-0.0918045-0.0433998-0.0918045-0.0945015v-4.8684006
	c0-0.0509987,0.0425034-0.0944977,0.0918045-0.0944977H103.7682037z M114.7315979,34.8782005
	c0.0499039,0,0.0923004,0.043499,0.0923004,0.0944977v4.8684006c0,0.0576019-0.0498962,0.0945015-0.0987015,0.0945015h-0.1474991
	c-0.0498962,0-0.0918961-0.0433998-0.0918961-0.0945015v-4.8684006c0-0.0509987,0.0419998-0.0944977,0.0918961-0.0944977
	H114.7315979z M120.2870026,34.8782005c0.0557938,0,0.0918961,0.043499,0.0918961,0.0944977v0.1226006
	c0,0.0510025-0.0361023,0.0944023-0.0918961,0.0944023h-1.3502045v4.6513977c0,0.0511017-0.0424957,0.0945015-0.1119995,0.0945015
	h-0.1268005c-0.0494003,0-0.0917969-0.0433998-0.0917969-0.0945015v-4.6513977h-1.3429031
	c-0.0705948,0-0.0917969-0.0433998-0.0917969-0.1085014v-0.1085014c0-0.0575981,0.0419006-0.0944977,0.0917969-0.0944977
	H120.2870026z M130.0547028,34.8782005c1.365097,0,2.4754028,1.1340981,2.4754028,2.5210991
	c0,1.408699-1.1103058,2.5363007-2.4754028,2.5363007h-1.4909058c-0.0419922,0-0.0843964-0.0433998-0.0843964-0.0945015v-4.8684006
	c0-0.0509987,0.0424042-0.0944977,0.0843964-0.0944977H130.0547028z M128.8099976,39.6251984h1.1889038
	c1.230896,0,2.179306-0.9615974,2.179306-2.2258987c0-1.2490997-0.94841-2.2095985-2.179306-2.2095985h-1.1889038V39.6251984z
	 M146.1941071,34.8065987c1.4138947,0,2.539093,1.1623001,2.539093,2.6079025c0,1.4520988-1.1251984,2.5926971-2.539093,2.5926971
	c-1.4071045,0-2.5323029-1.1405983-2.5323029-2.5926971C143.6618042,35.9688988,144.7870026,34.8065987,146.1941071,34.8065987z
	 M146.1941071,39.6892014c1.2307892,0,2.2296906-1.0104027,2.2296906-2.2747002
	c0-1.2643013-0.9989014-2.2899017-2.2296906-2.2899017c-1.2309113,0-2.2229004,1.0256004-2.2229004,2.2899017
	C143.9712067,38.6787987,144.9631958,39.6892014,146.1941071,39.6892014z M151.1875,39.1769981
	c0.0487976-0.0575981,0.0982056-0.0792999,0.1544037-0.0293999c0.0706024,0.0652008,0.5901947,0.5568008,1.3003998,0.5568008
	c0.6400909,0,1.1819916-0.4405975,1.1819916-0.9680977c0-0.6435013-0.5131989-0.9322014-1.3645935-1.2285004
	c-0.8157959-0.2961998-1.3565979-0.5926018-1.3565979-1.422802c0-0.5415001,0.421402-1.2784004,1.5189972-1.2784004
	c0.6952972,0,1.2086029,0.3679008,1.2086029,0.3679008c0.028595,0.0217018,0.0784912,0.0727005,0.028595,0.1520004
	c-0.0211945,0.0292015-0.0424042,0.0651016-0.0556946,0.0943985c-0.0424042,0.0575027-0.0848999,0.0792007-0.1555023,0.0357018
	c-0.0211945-0.0139999-0.4925995-0.3395996-1.0334015-0.3395996c-0.8652039,0-1.1884003,0.549099-1.1884003,0.9603996
	c0,0.6142998,0.4575043,0.8812981,1.167099,1.1200981c0.9638977,0.3396034,1.5753937,0.6858025,1.5753937,1.5247002
	c0,0.7217026-0.7244873,1.2849998-1.5328979,1.2849998c-0.8369904,0-1.3995972-0.5057983-1.4908905-0.5914993
	c-0.0419006-0.0368996-0.0780029-0.0727005-0.0212097-0.1518974L151.1875,39.1769981z M162.3961029,34.8782005
	c0.0498962,0,0.0917969,0.043499,0.0917969,0.0944977v4.8684006c0,0.0576019-0.0493011,0.0945015-0.0980988,0.0945015h-0.1475983
	c-0.0498962,0-0.0923004-0.0433998-0.0923004-0.0945015v-4.8684006c0-0.0509987,0.0424042-0.0944977,0.0923004-0.0944977
	H162.3961029z M167.1145935,34.8782005c0.8651123,0,1.4558105,0.513401,1.4558105,1.3077011
	c0,0.5709-0.3379974,0.9897995-0.7733002,1.1699982c0.4989014,0.1377983,0.9277954,0.5133018,0.9277954,1.2067986
	c0,0.8096008-0.633194,1.3729019-1.5466003,1.3729019h-1.5621033c-0.0482941,0-0.0906982-0.0433998-0.0906982-0.0945015v-4.8684006
	c0-0.0509987,0.0424042-0.0944977,0.0906982-0.0944977H167.1145935z M168.2111053,36.2000999
	c0-0.6283989-0.421402-1.0038986-1.0965118-1.0038986h-1.2584991v2.0228996h1.3084106
	C167.8247986,37.219101,168.2111053,36.7925987,168.2111053,36.2000999z M165.8486938,39.6316986h1.3577118
	c0.681488,0,1.1601868-0.447197,1.1601868-1.0765991c0-0.642498-0.5344849-1.0256004-1.2020874-1.0256004h-1.3158112V39.6316986z
	 M171.6997986,34.8782005c0.0489044,0,0.0908051,0.043499,0.0908051,0.0944977v4.8684006
	c0,0.0576019-0.0483093,0.0945015-0.0982056,0.0945015h-0.1474915c-0.0489044,0-0.0908051-0.0433998-0.0908051-0.0945015v-4.8684006
	c0-0.0509987,0.0419006-0.0944977,0.0908051-0.0944977H171.6997986z M175.0755005,34.8782005
	c0.0424042,0,0.0848999,0.043499,0.0848999,0.0944977v4.6590004h2.2429962c0.0843964,0,0.0917969,0.0433998,0.0917969,0.0944023
	v0.1301994c0,0.0499992-0.0424957,0.0792999-0.0917969,0.0792999h-2.4828949c-0.0487976,0-0.0913086-0.0433998-0.0913086-0.0945015
	v-4.8684006c0-0.0509987,0.042511-0.0944977,0.0913086-0.0944977H175.0755005z M180.0614014,34.8782005
	c0.0484009,0,0.0908051,0.043499,0.0908051,0.0944977v4.8684006c0,0.0576019-0.0488129,0.0945015-0.0982056,0.0945015h-0.1481018
	c-0.0482941,0-0.0906982-0.0433998-0.0906982-0.0945015v-4.8684006c0-0.0509987,0.0424042-0.0944977,0.0906982-0.0944977
	H180.0614014z M188.302597,34.8782005c0.0493011,0,0.0917969,0.043499,0.0917969,0.0944977v4.8684006
	c0,0.0576019-0.0498962,0.0945015-0.0981903,0.0945015h-0.1481018c-0.0498962,0-0.0917969-0.0433998-0.0917969-0.0945015v-4.8684006
	c0-0.0509987,0.0419006-0.0944977,0.0917969-0.0944977H188.302597z M194.3437042,34.8782005
	c0.0493011,0,0.0917969,0.043499,0.0917969,0.0944977v0.1226006c0,0.0510025-0.0424957,0.0944023-0.0917969,0.0944023h-2.5736084
	V37.1833h2.2291107c0.0482941,0,0.0907898,0.0433998,0.0907898,0.0932999v0.1226997
	c0,0.0509987-0.0424957,0.0943985-0.0907898,0.0943985h-2.2291107v2.1380005h2.5736084
	c0.0493011,0,0.0917969,0.0433998,0.0917969,0.0944023v0.1149979c0,0.0511017-0.0424957,0.0945015-0.0917969,0.0945015h-2.8200073
	c-0.0497894,0-0.0916901-0.0433998-0.0916901-0.0945015v-4.8684006c0-0.0509987,0.0419006-0.0944977,0.0916901-0.0944977
	H194.3437042z M196.9523926,39.1769981c0.049408-0.0575981,0.0982056-0.0792999,0.155014-0.0293999
	c0.0700989,0.0652008,0.5906982,0.5568008,1.3008881,0.5568008c0.6401062,0,1.1809082-0.4405975,1.1809082-0.9680977
	c0-0.6435013-0.5131989-0.9322014-1.3639984-1.2285004c-0.8158112-0.2961998-1.3577118-0.5926018-1.3577118-1.422802
	c0-0.5415001,0.4230042-1.2784004,1.5196075-1.2784004c0.6963043,0,1.2095947,0.3679008,1.2095947,0.3679008
	c0.0286102,0.0217018,0.0769043,0.0727005,0.0286102,0.1520004c-0.0212097,0.0292015-0.0424042,0.0651016-0.057312,0.0943985
	c-0.0419006,0.0575027-0.0843964,0.0792007-0.1539001,0.0357018c-0.0211945-0.0139999-0.4925995-0.3395996-1.0345001-0.3395996
	c-0.8639984,0-1.1888885,0.549099-1.1888885,0.9603996c0,0.6142998,0.457489,0.8812981,1.1676941,1.1200981
	c0.9633026,0.3396034,1.5753021,0.6858025,1.5753021,1.5247002c0,0.7217026-0.7239075,1.2849998-1.5328064,1.2849998
	c-0.8370972,0-1.3990936-0.5057983-1.4909973-0.5914993c-0.0424042-0.0368996-0.0769043-0.0727005-0.0211945-0.1518974
	L196.9523926,39.1769981z"/>
</svg>
