<?xml version="1.0" encoding="utf-8"?>
<!-- Generator: Adobe Illustrator 22.1.0, SVG Export Plug-In . SVG Version: 6.00 Build 0)  -->
<svg version="1.1" id="Layer_1" xmlns="http://www.w3.org/2000/svg" xmlns:xlink="http://www.w3.org/1999/xlink" x="0px" y="0px"
	 width="100px" height="96px" viewBox="0 0 100 96" enable-background="new 0 0 100 96" xml:space="preserve">
<g>
	<g>
		<path fill="#0F141E" d="M18.512207,87.574646c-1.2788696,0-2.2904053,0.4238892-2.9824219,1.1326294
			c-0.7279663,0.7432861-1.1898804,1.7692871-1.1898804,2.9920654c0,1.2915039,0.4276123,2.3900146,1.1898804,3.1339111
			c0.763855,0.7614746,1.8651123,1.1859741,3.2317505,1.1859741c1.1884766,0,2.395874-0.3717041,3.053772-0.8323975
			c0.1234131-0.088562,0.1760864-0.2293091,0.1234131-0.3535767l-0.6035156-1.1160889
			c-0.0886841-0.1237183-0.2128906-0.1759033-0.4085693-0.0698242c-0.5862427,0.3530273-1.206604,0.5657349-1.9889526,0.5657349
			c-0.6563721,0-1.2248535-0.2127075-1.5791016-0.6020508c-0.2840576-0.3012695-0.4801636-0.7075806-0.5501709-1.2392578h5.2890015
			c0.1607056,0,0.2678833-0.1061401,0.2678833-0.265625c0.1069946-1.2391968-0.1253052-2.3201904-0.7108765-3.116272
			C21.0159302,88.1239624,19.9849854,87.574646,18.512207,87.574646z M16.8084106,90.9554443
			c0.0529175-0.4255981,0.1947021-0.7973022,0.4434204-1.0803833c0.2658691-0.3182983,0.7456665-0.4942017,1.2774048-0.4942017
			c0.5160522,0,0.9419556,0.1939697,1.2075806,0.4942017c0.2481689,0.3018799,0.3729248,0.6378174,0.3903809,1.0803833H16.8084106z
			 M28.9143066,91.3622437c-0.6027222-0.2830811-1.2241211-0.4414063-1.7741089-0.6541748
			c-0.4271851-0.1782227-0.7282104-0.3723145-0.7282104-0.7258301c0-0.1956787,0.0700073-0.3364868,0.2317505-0.4606934
			c0.1939697-0.1049805,0.4246826-0.1583252,0.7442627-0.1583252c0.5151978,0,1.0831299,0.1225586,1.7932129,0.5124512
			c0.1419678,0.0702515,0.2659912,0.0526733,0.3198853-0.0891113l0.6036377-1.2393188
			c0.0706787-0.1226196,0.0706787-0.2644043-0.1070557-0.3535156c-0.6380615-0.3546753-1.4205933-0.6190796-2.7156982-0.6190796
			c-1.0473633,0-1.8647461,0.2473755-2.3973999,0.671814c-0.5147705,0.4255981-0.7809448,1.02771-0.7809448,1.7357788
			c0,1.0441284,0.4966431,1.751709,1.4023438,2.1586304c0.6394043,0.2666626,1.2437134,0.4260864,1.776001,0.6571045
			c0.442627,0.1939697,0.7267456,0.3704834,0.7267456,0.7597656c0,0.2485352-0.1055298,0.4606934-0.3013916,0.585022
			c-0.1938477,0.1242065-0.4619141,0.1759033-0.7809448,0.1759033c-0.7630615,0-1.3474731-0.211731-2.0418091-0.6542969
			c-0.142395-0.0709229-0.2843018-0.0357056-0.3369751,0.1060791l-0.6032715,1.2388306
			c-0.0715942,0.1247559-0.0358276,0.2484741,0.1229858,0.3363647c0.6220703,0.354126,1.4924927,0.671936,2.8950806,0.671936
			c0.9766235,0,1.774292-0.2286987,2.3607788-0.6543579c0.6572266-0.460144,1.0290527-1.1495972,1.0290527-1.9467773
			C30.3522339,92.4954224,29.9274902,91.8406372,28.9143066,91.3622437z M37.6486206,93.5940552
			c-0.0529175-0.1419067-0.2138062-0.1605835-0.3724976-0.0358276c-0.4257202,0.3359375-0.8168945,0.4421387-1.1542969,0.4421387
			c-0.4078369,0-0.675293-0.1419067-0.8173218-0.4251099c-0.1234741-0.2297974-0.1765747-0.5305176-0.1765747-0.9202881v-3.0801392
			h2.2359009c0.1600952,0,0.2669678-0.1231079,0.2669678-0.2843018v-1.2915039c0-0.1604614-0.1068726-0.2660522-0.2669678-0.2660522
			h-2.2359009v-1.5928345c0-0.1588745-0.1061401-0.2666626-0.2666016-0.2666626h-1.8099365
			c-0.1433716,0-0.2666626,0.1077881-0.2666626,0.2666626v1.5928345h-0.8884888
			c-0.1426392,0-0.2666016,0.1055908-0.2666016,0.2660522v1.2915039c0,0.1611938,0.1239624,0.2843018,0.2666016,0.2843018h0.8884888
			v3.3990479c0,0.8317871,0.1588745,1.6636963,0.6390991,2.265686c0.4077759,0.4777832,1.0650024,0.7796631,2.0765991,0.7796631
			c1.0466919,0,2.0061646-0.3018799,2.6625977-0.7625732c0.1245728-0.0869141,0.1778564-0.2286987,0.1065063-0.3535767
			L37.6486206,93.5940552z M41.9089355,87.7335205h-1.8114014c-0.1605225,0-0.2666016,0.1055298-0.2666016,0.2655029v7.5776367
			c0,0.140686,0.1060791,0.2655029,0.2666016,0.2655029h1.8114014c0.1416626,0,0.2667847-0.1248169,0.2667847-0.2655029v-7.5776367
			C42.1757202,87.8390503,42.0505981,87.7335205,41.9089355,87.7335205z M54.3356934,87.5928345
			c-0.5861816,0-1.1192627,0.1055298-1.545166,0.3165894c-0.4797363,0.2304077-0.8348389,0.5674438-1.0834351,0.8511353
			c-0.2297974-0.3359375-0.5675049-0.6207275-0.9934082-0.8323975c-0.4620972-0.2297974-0.9942627-0.3353271-1.5448608-0.3353271
			c-0.5159912,0-0.9934082,0.1055298-1.4385376,0.3529053c-0.2293701,0.1237183-0.4256592,0.3007202-0.567688,0.4954224h-0.0537109
			v-0.4421387c0-0.1599731-0.1246948-0.2660522-0.2666016-0.2660522h-1.7388916
			c-0.1590576,0-0.2664795,0.1060791-0.2664795,0.2660522v7.5776367c0,0.140686,0.1074219,0.2650146,0.2664795,0.2650146h1.8110962
			c0.1422119,0,0.2650146-0.1243286,0.2650146-0.2650146V91.628479c0-0.619751,0.1077881-1.1332397,0.3214111-1.5049438
			c0.2120972-0.3721924,0.5845947-0.6377563,1.1170654-0.6377563c0.5150146,0,0.8342285,0.1951904,1.0296021,0.4425659
			c0.2665405,0.354126,0.3552246,0.902832,0.3552246,1.4514771v4.1968384c0,0.140686,0.1063843,0.2650146,0.2669067,0.2650146
			h1.8098755c0.1437988,0,0.2670288-0.1243286,0.2670288-0.2650146v-3.734314c0-0.6928101,0.0888672-1.2778931,0.3200073-1.718811
			c0.2120972-0.3721924,0.5855713-0.6377563,1.1187134-0.6377563c0.5148926,0,0.8341675,0.1951904,1.0287476,0.4425659
			c0.2669067,0.354126,0.355835,0.902832,0.355835,1.4514771v4.1968384c0,0.140686,0.1055908,0.2650146,0.2661133,0.2650146
			h1.8096924c0.1437988,0,0.2677002-0.1243286,0.2677002-0.2650146v-4.7097168c0-1.1694946-0.3375244-1.982666-0.8881226-2.479187
			C56.0222168,87.8214722,55.187439,87.5928345,54.3356934,87.5928345z M63.9382935,87.5752563
			c-1.1884766,0-2.2721558,0.406311-3.0537109,1.1143799c-0.8343506,0.7263184-1.3499756,1.8232422-1.3499756,3.1152344
			c0,1.2926636,0.515625,2.3900757,1.3499756,3.1174927c0.7815552,0.7070923,1.8652344,1.0952148,3.0537109,1.0952148
			c1.1890869,0,2.2902222-0.3881226,3.071228-1.0952148c0.8339844-0.727417,1.3314819-1.8248291,1.3314819-3.1174927
			c0-1.2919922-0.4974976-2.388916-1.3314819-3.1152344C66.2285156,87.9815674,65.1273804,87.5752563,63.9382935,87.5752563z
			 M65.4110107,93.4873657c-0.3723145,0.3892822-0.8878784,0.6377563-1.4727173,0.6377563
			c-0.5866089,0-1.1005859-0.2484741-1.4730835-0.6377563c-0.3723755-0.4244995-0.6043091-1.0089111-0.6043091-1.6824951
			c0-0.6729126,0.2319336-1.2750244,0.6043091-1.6989136c0.3724976-0.3898315,0.8864746-0.6201782,1.4730835-0.6201782
			c0.5848389,0,1.1004028,0.2303467,1.4727173,0.6201782c0.3726196,0.4238892,0.6038818,1.026001,0.6038818,1.6989136
			C66.0148926,92.4784546,65.7836304,93.0628662,65.4110107,93.4873657z M75.6719971,93.5940552
			c-0.0531006-0.1419067-0.2130127-0.1605835-0.3731079-0.0358276c-0.4250488,0.3359375-0.8161621,0.4421387-1.1535034,0.4421387
			c-0.4087524,0-0.6746826-0.1419067-0.8161011-0.4251099c-0.1256714-0.2297974-0.1781006-0.5305176-0.1781006-0.9202881v-3.0801392
			h2.2364502c0.1590576,0,0.2670898-0.1231079,0.2670898-0.2843018v-1.2915039c0-0.1604614-0.1080322-0.2660522-0.2670898-0.2660522
			h-2.2364502v-1.5928345c0-0.1588745-0.1063843-0.2666626-0.2658691-0.2666626h-1.8121338
			c-0.1421509,0-0.2646484,0.1077881-0.2646484,0.2666626v1.5928345h-0.888916
			c-0.1420898,0-0.2659912,0.1055908-0.2659912,0.2660522v1.2915039c0,0.1611938,0.1239014,0.2843018,0.2659912,0.2843018h0.888916
			v3.3990479c0,0.8317871,0.1578979,1.6636963,0.638855,2.265686c0.4091187,0.4777832,1.0643921,0.7796631,2.0765991,0.7796631
			c1.0479126,0,2.0057983-0.3018799,2.6624146-0.7625732c0.1243286-0.0869141,0.1782227-0.2286987,0.1068115-0.3535767
			L75.6719971,93.5940552z M81.3516235,87.574646c-1.2781982,0-2.2902832,0.4238892-2.9821167,1.1326294
			c-0.7280273,0.7432861-1.1895142,1.7692871-1.1895142,2.9920654c0,1.2915039,0.4259033,2.3900146,1.1895142,3.1339111
			c0.7637939,0.7614746,1.8651123,1.1859741,3.2313232,1.1859741c1.1880493,0,2.3963013-0.3717041,3.053772-0.8323975
			c0.1240234-0.088562,0.1773071-0.2293091,0.1240234-0.3535767l-0.6036987-1.1160889
			c-0.0881958-0.1237183-0.2134399-0.1759033-0.4084473-0.0698242c-0.5853882,0.3530273-1.2067871,0.5657349-1.9876709,0.5657349
			c-0.6577759,0-1.225708-0.2127075-1.5808716-0.6020508c-0.2837524-0.3012695-0.4797974-0.7075806-0.550415-1.2392578h5.2910156
			c0.159668,0,0.2668457-0.1061401,0.2668457-0.265625c0.1057129-1.2391968-0.1248779-2.3201904-0.7113037-3.116272
			C83.8562012,88.1239624,82.824707,87.574646,81.3516235,87.574646z M79.647522,90.9554443
			c0.0532837-0.4255981,0.196106-0.7973022,0.4453125-1.0803833c0.2639771-0.3182983,0.744873-0.4942017,1.277771-0.4942017
			c0.5139771,0,0.9404907,0.1939697,1.2067871,0.4942017c0.2473145,0.3018799,0.3734131,0.6378174,0.3907471,1.0803833H79.647522z
			 M41.0098877,83.5390625c-0.7789917,0-1.3761597,0.612793-1.3761597,1.3709106c0,0.758667,0.597168,1.3720703,1.3761597,1.3720703
			c0.7607422,0,1.3591309-0.6134033,1.3591309-1.3720703C42.3690186,84.1518555,41.7706299,83.5390625,41.0098877,83.5390625z
			 M99.8455811,11.2595215L97.284729,7.9667358c-0.126709-0.1651001-0.314209-0.2752075-0.5162354-0.3081055L88.678894,4.3504639
			c-0.0917969-0.0698242-0.1923828-0.1242065-0.281311-0.1447144L70.8806152,0.0135498
			c-0.1793213-0.0407715-0.482605,0.0142212-0.6351929,0.114624L52.5325928,11.8463745l-1.5808105-0.9040527
			c-0.0911865-0.0464478-0.2240601-0.0793457-0.3283691-0.0799561L36.1351929,3.9725342l-6.8274536-2.6055908
			c-0.1876221-0.0709839-0.4006348-0.0556641-0.5773315,0.0435791l-2.7351074,1.5418091
			c-0.2099609,0.118042-0.3419189,0.3410034-0.3449707,0.581604l-0.1033325,8.9785156
			c-0.0437622,0.0499878-0.0824585,0.1072998-0.1151733,0.1691284l-12.642334,24.9705811l-3.0357056,1.3466187
			c-0.0719604,0.0339966-0.1604614,0.1003418-0.2351685,0.1729736c-0.0629272,0.055603-0.1143799,0.1226196-0.1530151,0.1964111
			l-2.1212769,4.0974121l-1.1744385,0.3483887c-0.0123901,0.0039673-0.0246582,0.0079956-0.0358887,0.0125122
			c-0.0128784,0.0039673-0.0241699,0.0073853-0.0355835,0.0119019l-5.5025024,2.1970825
			c-0.1348267,0.0584717-0.2487183,0.1503906-0.3399048,0.2865601c-0.0441895,0.0533447-0.0792236,0.1135254-0.1032715,0.175354
			c-0.0276489,0.0680542-0.0419922,0.1401978-0.0477295,0.2144775c-0.0057983,0.0562134-0.0072021,0.1157837-0.0007935,0.1674194
			l1.3494873,11.7091064c0.0048218,0.0526733,0.0177002,0.1048584,0.036499,0.1548462l2.2662354,6.1703491
			c0.0325928,0.0975952,0.117981,0.2365723,0.190979,0.3103638L15.8868408,77.40448
			c0.1139526,0.116394,0.3522949,0.229248,0.5158691,0.2428589l2.940918,0.2525024
			c0.0183716,0.0012207,0.0429688,0.0023193,0.0621948,0.0023193c0.187561,0,0.4672852-0.1213989,0.595459-0.2587891
			l4.0214233-4.2858276l9.2355347,0.1668091c0.3157959,0.0289917,0.6542969-0.203125,0.7594604-0.4851074l6.901001-18.1829834
			l4.1752319-2.7355957L65.064209,66.8609619c0.085022,0.2150879,0.2492065,0.3983765,0.4656982,0.5056152l7.9241333,3.9095459
			c0.1310425,0.0596313,0.2689819,0.090332,0.4104614,0.090332c0.0734863,0,0.2369385-0.0250244,0.3085327-0.0493774
			l3.0217896-1.0248413c0.1793823-0.0629883,0.3352051-0.1792603,0.4511108-0.3341675l4.3880615-5.9393921
			c0.0212402-0.027832,0.0483398-0.0800171,0.0726318-0.1294556l1.0830688-1.5535889
			c0.022522-0.02948,0.0443115-0.0606689,0.0628052-0.0924683l0.0072021-0.0068359
			c0.0009766-0.0056763,0.0037231-0.0095825,0.0057983-0.0141602c0.0148315-0.029541,0.02771-0.057312,0.0390015-0.085144
			l5.4810181-14.6681519l1.0338745-4.7296143l0.4957275-15.3327026v-0.0267334l9.5802612-15.1924438
			C100.0759277,11.8939209,100.0527344,11.5172729,99.8455811,11.2595215z M87.9237061,5.4853516
			c0.0444946,0.031189,0.0917969,0.0584717,0.1430054,0.0783081l7.8539429,3.2114868L84.1663208,30.1784668
			c-0.0001221,0.0001831,0,0.0004272-0.0001221,0.0006104c-0.0179443,0.0246582-0.0275269,0.0525513-0.0403442,0.0802612
			l-4.934082,1.4016113l0.1309204-1.6497803l1.5494385-19.5256348c0.0469971-0.0551147,0.074707-0.1097412,0.0799561-0.1812744
			l6.9094238-4.8338013L87.9237061,5.4853516z M72.0953979,34.0079956l-16.819519,5.616333l8.5584106-20.1825562
			c0.0895386-0.0183105,0.166687-0.0682373,0.2169189-0.1494751l16.1060181-8.3809204l-1.663208,20.9597778L72.0953979,34.0079956z
			 M78.3232422,32.642395l-3.7216187,13.9015503l-4.6213989,3.8034058l-15.0728149-9.8544312
			c0.00177-0.0012817,0.0025024-0.0030518,0.0042725-0.0043945l22.9317017-7.6859131L78.3232422,32.642395z M70.800293,1.3867798
			l16.1796265,3.8726807l-6.6176147,4.6303101c-0.0008545,0.0006104-0.0012817,0.001709-0.0021362,0.0023193
			c-0.0343018,0.0252075-0.0626221,0.0561523-0.0855713,0.0926514c-0.0042114,0.0064697-0.0102539,0.0112915-0.0140381,0.0180054
			c-0.0177612,0.0328979-0.0274048,0.0697021-0.0339355,0.1077881l-16.4078979,8.5386353
			c-0.005188-0.0025024-0.0085449-0.0072632-0.013916-0.0095215c-0.038208-0.0165405-0.0778809-0.0227051-0.1172485-0.0244141
			l-10.1520996-5.8065186L70.800293,1.3867798z M50.6606445,12.3366089l1.5604858,0.8925171
			c0.2106934,0.119812,0.4616699,0.1087646,0.6693115-0.008728l10.3374634,5.9101563l-8.7932739,20.7352905L44.2921143,37.944519
			c-0.0292358-0.0310669-0.0621338-0.0551758-0.0996704-0.0730591l-1.1486816-2.0831299
			c0.0009155-0.0142212-0.0045776-0.027832-0.0054321-0.0421143L50.6606445,12.3366089z M53.9502563,40.4605713
			l-3.1306152,1.2495728l-7.1345825-2.9539795l0.3251343-0.1773682L53.9502563,40.4605713z M43.5271606,38.069519
			l-0.5788574,0.3133545l-1.8014526-1.3147583l1.3867188-0.7990723L43.5271606,38.069519z M50.0291138,12.0799561
			l-7.6496582,23.4953613l-1.894043,1.0918579L26.5931396,19.2888184l9.2318726-13.9662476L50.0291138,12.0799561z
			 M26.5552368,13.520752c0.0118408-0.0067139,0.0241699-0.0128174,0.0351563-0.0203857
			c0.1907959-0.1237183,0.3082886-0.3336182,0.3105469-0.5617065l0.1032715-8.9996338l2.1174927-1.1915894l6.0643921,2.3104858
			l-8.6846924,13.1150513L26.5552368,13.520752z M26.4466553,20.1918945l13.4562988,16.8331299l-2.0100708,0.8484497
			c-0.0365601-0.0292969-0.0788574-0.0526123-0.1275024-0.0652466l-12.2616577-3.1546021L26.4466553,20.1918945z
			 M25.2935791,35.3429565c0.0130005-0.0073242,0.0294189-0.0073853,0.0413208-0.0162964
			c0.0100098-0.0004883,0.0187378-0.0076294,0.0287476-0.0089722l11.3555908,2.9208374l-8.1236572,4.4990234
			c-0.0129395,0.0073853-0.0215454,0.0192261-0.0335693,0.0276489l-5.3999023-3.1466064
			c0.005127-0.0244141,0.0057983-0.048645,0.0053711-0.0740967L25.2935791,35.3429565z M24.8244019,34.6576538l-7.137207,1.3843994
			l8.0360718-15.1849976L24.8244019,34.6576538z M29.0807495,43.2449951l8.3475342-4.6241455
			c0.0095825,0.0007935,0.0172119,0.0101929,0.0268555,0.0101929c0.0046387,0,0.0089111-0.0026855,0.0135498-0.0028687
			c0.0142822,0.0078735,0.0252686,0.0197754,0.0410156,0.0255737c0.0011597,0.0004272,0.0028687,0.0003052,0.0040894,0.0007324
			c0.059082,0.0443115,0.1259155,0.0752563,0.1990967,0.0752563c0.0429688,0,0.0849609-0.0162354,0.1260986-0.0328369
			l1.8873291,1.5950317c-0.0194702,0.0716553-0.0183105,0.1340942,0.0093384,0.2025146l0.0084839,0.6221313l-2.5066528,15.9508057
			l-4.6802368-3.1345215c-0.0147095-0.0478516-0.0397949-0.0889893-0.0709229-0.1244507l-3.40802-10.5455322
			C29.078125,43.2568359,29.0812988,43.2510376,29.0807495,43.2449951z M25.8604126,14.8422241l-0.0510864,4.4001465
			l-8.9946899,16.9957886l-2.3046875,1.0223999L25.8604126,14.8422241z M10.2925415,40.5296021l0.1919556-0.3710327
			l3.1011353-1.3760376c0.1414795-0.0629883,0.256958-0.2094116,0.3297729-0.3654785l0.0078125,0.0023193l0.1063843-0.210083
			l3.0949097-1.3770142l7.3739014-1.4213257l-1.9610596,3.875061l-12.244812,3.6304321V40.5296021z M9.612915,41.8432007v1.2747192
			l-0.7789917,0.230957L9.612915,41.8432007z M7.9085083,44.6815796c0.1768188-0.0516357,0.3242798-0.1742554,0.4102783-0.3370361
			l0.0836182-0.1615601l1.4368286-0.4259033c0.0358887,0.0128784,0.0733032,0.0228882,0.1135864,0.0228882
			c0.1091309,0,0.2018433-0.0548706,0.2640381-0.1348877l12.303894-3.6470947
			c0.0323486,0.0358276,0.0664673,0.0706787,0.1103516,0.0958862l5.802063,3.3800659l3.4373169,10.6380615l-1.9744873,5.2670288
			c-0.0065918,0.0064697-0.0100708,0.0150757-0.0161133,0.0219727l-15.9325562-6.4450684L6.909729,44.9788208L7.9085083,44.6815796z
			 M31.7749634,56.3013916l-0.3146973,5.9943848l-0.9490967-2.6236572L31.7749634,56.3013916z M1.4005127,47.1340332
			l4.8085938-1.9228516l7.1452026,8.0996094l-1.6303101,7.6622314L1.4134521,47.2461548L1.4005127,47.1340332z
			 M16.7175293,76.3150635L4.8981934,64.3568726l-2.2044678-6.00354l-1.1264648-9.7727051l10.0710449,13.4075928
			l6.9443359,14.486084L16.7175293,76.3150635z M23.9008789,72.0013428l-0.1549683-0.0028076
			c-0.2562866-0.0141602-0.3775024,0.0754395-0.5078125,0.2139282l-3.9361572,4.1936646l-7.0406494-14.6900635l1.7053223-8.0205688
			l15.8579712,6.4158325c0.0423584,0.0165405,0.0877686,0.0205078,0.1328125,0.0245972l1.4113159,3.9042358l-0.0001831,0.003418
			L23.9008789,72.0013428z M33.7463379,69.9300537l-0.847229,2.2329712l-8.0841675-0.1452637l7.0985718-7.5653076
			c0.0551147-0.0453491,0.0916138-0.1088867,0.1104126-0.1813965c0.0253906-0.0586548,0.0379639-0.1159058,0.0384521-0.1796875
			c0.006897-0.0455933,0.0048218-0.0917969-0.0081787-0.1387329l0.4841919-9.2177734l4.5352173,3.0385742L33.7463379,69.9300537z
			 M39.678833,54.2945557l-3.4074707,8.9806519l1.4672852-5.359375c0.0349731-0.0411987,0.057251-0.0904541,0.0693359-0.1447754
			c0.00177-0.0075684,0.0094604-0.0113525,0.0107422-0.019104l1.9805298-12.6097412l0.119873,8.7633057
			C39.8035278,54.0023193,39.7156982,54.142334,39.678833,54.2945557z M38.4886475,38.3574829l2.0752563-0.8757324
			l1.8596191,1.3587036l-2.1106567,1.0592041L38.4886475,38.3574829z M44.7427368,50.7287598l-4.1509399,2.7196045
			L40.423584,41.1668091l0.0962524-0.6126709l2.5928345-1.3013306l7.2055664,2.9841309l-5.1824951,8.3808594
			C45.000061,50.6137085,44.8630981,50.6503296,44.7427368,50.7287598z M66.0906372,65.9320679L45.7488403,50.9197388
			l5.2983398-8.5708008l0.3115234-0.1244507l3.0791016-1.2284546l8.5908813,5.6166992l6.7001343,4.3807373l4.5119019,10.9404297
			c-0.0772705,0.0915527-0.107666,0.2178345-0.0613403,0.3370361c0.0123291,0.031311,0.0387573,0.0521851,0.0568848,0.0797119
			l-7.9888916,3.7929688C66.2025146,66.067627,66.164856,65.9863281,66.0906372,65.9320679z M76.6251221,69.0552368
			l-2.7311401,0.9260254l-6.9401245-3.4226074l8.0123291-3.8031006c0.0861816-0.041687,0.142395-0.1152344,0.1708374-0.1990967
			l5.637207,0.8829346L76.6251221,69.0552368z M82.0516357,61.6053467l-0.8531494,1.2155762l-6.2615967-0.980835l-4.524231-10.97052
			l4.6002808-3.7869263l6.6428833,0.4837036l0.3971558,14.0361328
			C82.0524902,61.6033936,82.0522461,61.6044312,82.0516357,61.6053467z M81.8337402,46.8996582l-6.4976196-0.4721069
			l3.7570801-14.0339966l4.9912109-1.418396L81.8337402,46.8996582z M88.4772339,42.571228l-0.9911499,4.5162964
			l-4.8007202,12.8277588l-0.350647-12.394104c0.0656738-0.052124,0.1140747-0.1245117,0.12677-0.2140503l2.3286133-16.4771729
			c0.0195313-0.0082397,0.0452271-0.0154419,0.0577393-0.0239258l4.0858154-2.6405029L88.4772339,42.571228z M88.9949341,26.928772
			c-0.086853,0.1374512-0.0994263,0.2910767-0.0805054,0.4408569l-3.769104,2.4377441L96.4874878,9.1520386l2.0513916,2.6403809
			L88.9949341,26.928772z"/>
	</g>
</g>
</svg>
