<?xml version="1.0" encoding="utf-8"?>
<!-- Generator: Adobe Illustrator 23.0.1, SVG Export Plug-In . SVG Version: 6.00 Build 0)  -->
<svg version="1.1" id="Layer_1" xmlns="http://www.w3.org/2000/svg" xmlns:xlink="http://www.w3.org/1999/xlink" x="0px" y="0px"
	 width="120px" height="57px" viewBox="0 0 120 57" enable-background="new 0 0 120 57" xml:space="preserve">
<g>
	<g>
		<path d="M118.1864014,26.7775879c-0.2877197,0.2861938,0.2579956,0.2340698,0.2579956,0.642395
			c0,0.2567749-0.1494751,1.1975098-1.2473755,1.1975098c-0.7741089,0-1.0750122-1.1121216-1.0750122-1.9257813
			c0-3.9799194,2.2877808-4.8071289,2.2877808-7.5288086c0-0.689209-0.4442749-1.4860229-1.218811-1.4860229
			c-1.5773926,0-4.0626831,0.3233032-5.0141602,1.1389771c-0.7162476,0.6130371-1.8720093,2.6787109-2.4315186,2.6787109
			c-1.2044067,0,1.0756226-5.0078735,1.0756226-5.4360962c0-0.4281006-0.2149048-0.8566895-0.9475098-0.8566895
			c-5.0322876,0-7.0115356,6.1644287-8.1729126,6.1644287c-0.5159302,0,0.0864868-1.5411377,0.0864868-2.0117188
			c0-0.4710083-0.5158691-0.642395-0.9464722-0.642395c-3.0545044,0-6.3240356,7.6223755-7.743103,7.6223755
			c-0.2582397,0-0.9038086,0-0.9038086-0.8812866c0-2.4647827,2.151123-4.8118896,2.151123-5.8394775
			c0-1.0270996-0.8605347-1.7543945-1.6778564-2.2650146c-0.8174438-0.5106812-2.538147-1.0734253-2.2372437-2.1430054
			c0.3008423-1.0704956,1.2480469-4.9229736,1.2480469-5.5223999c0-0.5985107-0.1298828-1.116394-0.8606567-1.116394
			c-1.6780396,0-3.6137085,4.9688721-3.6137085,6.1668091c0,1.1994019,0.602478,1.6694946,0.9031982,1.883667
			c-1.677124,4.0668335-5.0325928,10.1452026-6.3234863,10.1452026c-0.9890137,0-1.147522-0.595459-1.147522-1.0313721
			c0-3.8447266,3.0407104-5.8892212,3.1696777-6.2314453c0.1292114-0.3426514-0.6987915-0.8562012-1.4193726-0.8562012
			c-1.1619263,0-2.6246948,0.4711304-4.1298828,2.1835327c-0.8309937,0.9439697-2.1600952,1.633667-3.5162354,2.0617676
			c0.0007324-0.0042725,0.0018921-0.008667,0.0025024-0.0124512c1.5913086-8.005249,5.2158203-18.1682129,6.5061035-18.1682129
			c0.7313232,0,0.7313232,0.2562866,0.7313232,0.5139771c0,0.8731079-2.4448242,9.8894043-3.8376465,11.2751465
			c-0.4751587,0.4733887-1.2471924,0.0853882-1.2471924,0.5139771c0,0.4281006,0.1717529,1.6264648,1.161499,1.6264648
			c1.4205933,0,6.9346313-15.085083,6.9346313-17.6541748C84.9909058,0.598877,84.0877686,0,82.3236084,0
			c-2.5866089,0-6.3942261,3.098999-9.8746338,16.3781128c-0.2772827-0.215332-0.6207886-0.355835-1.0456543-0.355835
			c-1.6513062,0-4.184021,0.5029907-4.184021,4.9752197c0,2.0723877,1.6967163,3.1264648,2.9061279,3.506897
			c-1.5203247,3.3475952-4.0294189,6.5794067-5.8963013,6.5794067c-1.4901123,0-1.6795044-0.8619995-1.6795044-2.1801147
			c0-2.8023071,2.8739014-5.2072754,2.8739014-5.5736084c0-0.2423096-0.7091064-0.7443237-2.4338989-0.7443237
			c-0.5198364,0-1.3168335,0.3543091-1.6552124,0.6907349c0,0-0.4334106-0.7543945-1.7327881-0.7543945
			c-5.1176147,0-7.2495117,4.5648804-7.2495117,8.7532959c0,0.142395,0.0081787,0.3121948,0.0281982,0.5004883
			c-0.742981,1.2814331-1.5145874,1.9475098-2.3828125,1.9475098c-1.480896,0-1.3302002-4.1743774,1.2221069-9.8546753
			c0.5686035-1.2650146,1.1378174-2.4012451,1.6940918-3.4191284c0.7684937,0.0482788,1.734314,0.0574951,3.1550903-0.0072021
			c8.2802124-0.3745117,11.527832-4.0692139,11.5297852-6.7946777c0.0008545-1.6487427-1.211792-2.3287354-2.4115601-2.3297119
			c-0.7277222-0.0004883-1.1086426,0.1669922-1.1086426,0.4088135c0,0.241272,0.1832275,0.3484497,0.3366089,0.3484497
			c0.2979126,0,0.4086304,0.2939453,0.4086304,0.5912476c-0.0012207,1.7543945-3.8457031,4.2588501-8.9382324,4.4900513
			c-0.322998,0.0144043-0.6419067,0.0072021-0.958252-0.0149536c2.1366577-3.144043,3.7296753-4.4085083,3.7296753-4.6478882
			c0-0.2418213-0.8432007-0.744751-2.5678101-0.744751c-1.7698975,0-3.723877,1.9417114-5.4404907,4.6376953
			c-0.5360107-0.0829468-1.0800781-0.1384888-1.6395264-0.1389771c-8.8352661-0.0057983-12.5112915,4.4558105-12.5126953,6.6099243
			c-0.0014648,2.15448,1.9929199,2.1862793,2.1729126,2.1862793c0.3215942,0,0.5385132-0.1992798,0.5385132-0.4144897
			c0.0003052-0.0584106-0.0455322-0.1105957-0.083374-0.1105957c-0.0751343,0-0.1262207,0.0477905-0.2302246,0.0477905
			c-0.2191772,0-0.3961792-0.1834106-0.3956909-0.6646118c0-0.7509766,1.7739868-4.0087891,7.3494873-4.0054932
			c1.1942139,0.0009766,2.107605,0.0333252,2.8479004,0.0820923c-1.6362305,3.5045166-2.7545166,7.3516235-2.7545166,9.8502808
			c0,0.6752319,0.0358276,1.3088989,0.1021118,1.899231c-2.3306274,4.1696167-5.0385742,7.47229-6.9649048,7.47229
			c-0.8413086,0-1.4415894-0.4942017-1.6773071-1.0270996c4.4996338-3.3930054,6.9414063-7.911499,6.9414063-9.8676147
			c0-1.5975952-0.819519-2.2738037-2.7819824-2.2738037c-3.7080078,0-7.5817261,5.8574219-7.5817261,11.4937134
			c0,0.3455811,0.0206909,0.6791382,0.0617065,0.9971924c-0.7130127,0.3624268-1.4727783,0.6950073-2.2770996,0.9851074
			c0.3999023-1.5053711,0.6188965-3.0845947,0.6188965-4.6947021c0-2.6521606-0.7301025-4.631958-1.8349609-6.0620728
			c3.3424683-3.1066895,4.7453613-7.6536865,4.7453613-11.1322021c0-4.9432373-4.0708618-9.052002-11.6306152-9.052002
			c-9.6417847,0-17.8271484,7.7166138-17.8271484,17.9674683c0,6.4051514,2.7163696,10.9912109,7.7417603,13.5309448
			c-0.4502563,1.8214722-0.9384766,3.5435791-1.461792,5.119873c-1.4187012-1.4971924-2.8908081-2.8615723-5.0349121-2.8615723
			C2.3303833,42.3236084,0,47.4429932,0,51.4677734c0,4.0261841,2.8588257,5.5205078,5.0324097,5.5205078
			c3.395813,0,6.1677856-2.6516724,8.7730713-7.8748169c1.4653931,1.2687988,3.1448364,2.3162231,5.2532959,2.3162231
			c5.0354004,0,9.8755493-4.2545166,12.0804443-9.9937134c1.1746826-0.3739624,2.2775879-0.8450928,3.3063965-1.3856812
			c0.5979614,1.3765869,1.7698975,2.2230835,3.5028687,2.2230835c2.192688,0,5.9082031-3.2733154,8.6885376-7.9182739
			c0.6062012,1.625061,1.548645,2.5304565,2.5819702,2.5304565c1.4714966,0,2.8475342-1.5081787,3.8436279-3.0463867
			c0.5123901,0.8026123,1.3706055,1.4508057,2.7825928,1.4508057c1.5177612,0,2.9440918-1.4193726,4.0499878-2.9725952
			c0.5805664,0.6824951,1.406189,1.4368286,3.0037842,1.4368286c1.6427002,0,3.8046265-1.456604,5.7518311-3.6739502
			c-2.1014404,3.5599976-5.2077026,9.5699463-5.2077026,13.9890137c0,0.899231,0.0429077,3.1865234,1.37677,3.1865234
			c1.3337402,0,4.2808838-1.2713013,5.5508423-3.2984009c1.5219727-2.4273071,3.4124756-15.1068115,4.1310425-19.6442261
			c0.9552002-0.2254028,1.9729004-0.5906982,2.9124146-1.1838989c-0.6477661,1.0826416-1.1322021,2.4847412-1.1322021,4.6691284
			c0,1.6033936,1.4573364,2.6873779,2.661499,2.6873779c3.8289185,0,7.8731079-7.3189087,10.1525269-12.4981079
			c0,0,1.3336182,0.4700928,1.3336182,1.4552002c0,0.9849854-2.1080322,4.4089355-2.1080322,6.9346313
			c0,2.5246582,1.4199219,3.2529907,2.3237305,3.2529907c3.897644,0,6.6676025-6.5736084,7.6143799-6.5736084
			c0.4298706,0,0.5158691,0.1920776,0.5158691,0.5081787c0,0.3157349-0.2929688,0.9489136-0.2929688,1.5913086
			c0,0.6414185,0.1633911,1.003418,0.6801147,1.003418c1.720459,0,4.7943726-5.6343994,5.6118774-5.6343994
			c0.3873901,0,0.4271851,0.2288208,0.4271851,0.7852783c0,0.5560303-0.9195557,2.1531372-0.9195557,3.864502
			c0,1.7125244,0.6445923,2.6541138,1.5910645,2.6541138c2.1080322,0,5.2664795-6.1837158,6.5139771-6.1837158
			c0.3007202,0,0.5346069,0.024231,0.5346069,0.5377197c0,1.6530762-1.5507813,2.4301147-1.5507813,6.5668945
			c0,2.9851074,2.2122803,4.1912842,4.4492798,4.1912842c2.2371216,0,4.1730957-2.2694092,4.1730957-4.3239746
			C119.9934692,26.5628052,118.3370972,26.6275024,118.1864014,26.7775879z M5.5452271,54.3579102
			c-1.1591187,0-1.8279419-1.3326416-1.8279419-2.8843384c0-2.0855103,0.7131348-6.7893677,4.0579224-6.7893677
			c1.2883911,0,2.4638062,1.0009766,3.7283936,2.2312622C9.8068237,51.4185791,7.788208,54.3579102,5.5452271,54.3579102z
			 M18.1618042,49.0178833c-1.4561157,0-2.6071167-0.5960693-3.6317749-1.4324951
			c0.8202515-1.8132935,1.6275635-3.8858032,2.4368896-6.2150269c2.3510742,0.6660156,5.0490723,1.0063477,8.0682983,1.0063477
			c0.0690918,0,0.137207-0.0005493,0.2056885-0.0015259C23.5662842,45.8825684,20.9854736,49.0178833,18.1618042,49.0178833z
			 M25.9727173,40.6738892c-0.3702393,0.0197754-0.7456055,0.0303955-1.126709,0.0303955
			c-2.8016357,0-5.184082-0.5343018-7.1618042-1.4614258c0.7006836-2.1390991,1.4055786-4.4692993,2.1251221-6.9881592
			c0.348999,0.031311,0.7138672,0.0481567,1.0951538,0.0481567c2.3057251,0,4.2947998-0.4318848,5.9951172-1.1674805
			c0.2393799,1.1936035,0.3004761,2.5971069,0.3004761,4.0499268
			C27.2000732,36.6529541,26.7501221,38.6520996,25.9727173,40.6738892z M20.798584,29.2139893
			c0-0.7509766,0.378418-1.5488281,2.7087402-1.5488281c1.2715454,0,2.1129761,0.5491943,2.6669922,1.4542236
			c-1.2267456,0.8643799-2.5046387,1.2592163-3.5757446,1.2592163C21.7189941,30.3786011,20.798584,29.9143066,20.798584,29.2139893
			z M23.9400024,25.6124878c-0.762085,0-1.4891968,0.0443726-2.1760254,0.125
			c1.9802246-5.3936157,4.5085449-8.0983276,4.5085449-8.4047852c0-0.3668213-0.6912231-0.6776123-1.4495239-0.6776123
			c-4.3887939,0-6.4584961,3.8399048-8.3214722,10.7904663c-0.8880005,0.5980225-1.3831177,1.2636108-1.3831177,1.8722534
			c0,0.4574585,0.2026978,0.9116821,0.5845947,1.322876c-0.453186,1.9213867-0.9121094,4.0233154-1.4083862,6.2955933
			c-2.7615356-2.6347046-4.0924072-6.355896-4.0924072-10.1895752c0-12.1495972,7.6708984-16.1536255,13.2995605-16.1536255
			c3.1162109,0,7.3688354,2.1954956,7.3688354,7.1397095c0,4.1107178-1.0325928,7.0877075-2.4611206,9.1166992
			C26.9766235,25.982666,25.3629761,25.6124878,23.9400024,25.6124878z M41.0570068,29.6623535
			c0.5717773,0,0.5717773,0.7437134,0.5717773,1.0497437c0,1.0704956-1.4920654,3.4870605-4.2529907,5.6749878
			C37.8613281,32.6117554,40.3062134,29.6623535,41.0570068,29.6623535z M58.1199951,27.5845947
			c0,0.322876,1.1102295,1.0506592,1.1102295,1.0506592c-0.3517456,1.401123-1.3544312,3.4215088-2.2474365,3.4215088
			c-0.5689697,0-0.9207153-1.0236816-0.9207153-2.0203857c0-3.765564,2.8624268-5.0899048,3.5665283-5.0899048
			c0.4058838,0,0.6497803,0,0.6497803,0.5665894C60.2783813,26.8866577,58.1199951,27.2606812,58.1199951,27.5845947z
			 M65.7227173,44.5596924c-0.6019287,0-0.9020996-0.4749146-0.1766968-3.3153076
			c0.7994995-3.1298828,2.2815552-6.2937012,3.6558838-8.9169312
			C68.0169678,38.9744873,66.9517822,44.5596924,65.7227173,44.5596924z M70.6605225,23.2103882
			c-0.9822388-0.3928833-1.8755493-1.3070068-1.8755493-2.2998047c0-2.1015015,0.9745483-2.6801758,1.6514282-2.6801758
			c0.677002,0,1.0286865,0.6192627,1.0286865,1.2930908C71.4650879,20.5678711,71.1607056,21.8656616,70.6605225,23.2103882z
			 M82.7028809,13.7741699c-0.8479614,0.8432007-1.2110596,1.7336426-0.3634033,2.5768433
			c0.8479004,0.8441772,1.9375,1.4083862,2.7850342,0.5646973c0.6673584-0.6641235,0.7423706-4.0663452,0.2744751-4.5320435
			C84.550415,11.539978,83.5504761,12.930481,82.7028809,13.7741699z"/>
	</g>
</g>
</svg>
