<?xml version="1.0" encoding="utf-8"?>
<!-- Generator: Adobe Illustrator 23.0.1, SVG Export Plug-In . SVG Version: 6.00 Build 0)  -->
<svg version="1.1" id="Layer_1" xmlns="http://www.w3.org/2000/svg" xmlns:xlink="http://www.w3.org/1999/xlink" x="0px" y="0px"
	 width="140px" height="48px" viewBox="0 0 140 48" enable-background="new 0 0 140 48" xml:space="preserve">
<g>
	<g>
		<path d="M53.6549683,31.9564819l-5.2714844-14.7340698h-1.4484863V4.352356C46.9349976,1.9486084,45.0302124,0,42.6804199,0
			H4.2546997C1.9049072,0,0,1.9486084,0,4.352356v39.3086548c0,2.4037476,1.9049072,4.352356,4.2546997,4.352356h38.4257202
			c2.3497925,0,4.2545776-1.9486084,4.2545776-4.352356V25.6929932l4.6784058,11.7318726h4.0465088l8.0186157-20.2024536h-4.7145996
			L53.6549683,31.9564819z M15.6856079,9.3264771c1.5603638,0,2.8673096,1.2507324,2.8673096,2.8892212
			c0,1.6395874-1.3069458,2.890564-2.8673096,2.890564c-1.5599976,0-2.8668213-1.2509766-2.8668213-2.890564
			C12.8187866,10.5772095,14.1256104,9.3264771,15.6856079,9.3264771z M34.8676147,36.9737549
			c-2.9093018,0-4.300415-1.767395-4.300415-4.1837769c0-0.68927,0.0839844-1.4232788,0.2947998-2.1566162l1.3916016-5.0894775
			c0.1685181-0.5609131,0.2108765-1.0780029,0.2108765-1.5527954c0-1.6384277-0.9697876-2.6309204-2.5299072-2.6309204
			c-1.9818726,0-3.2890015,1.4550171-3.963501,4.2589111l-2.6986694,11.0728149H18.550293l0.8475342-3.4797363
			c-1.3879395,2.3325195-3.3156128,3.7772217-5.6937256,3.7772217c-2.8671875,0-4.2164307-1.6896973-4.2164307-4.2349243
			c0-0.6459961,0.0845337-1.4378662,0.2530518-2.1712646l2.1502686-8.9863892H8.5601807l1.0120239-3.8193359h8.0109863
			l-3.1624756,12.8331299c-0.2109375,0.8200684-0.295105,1.5003662-0.295105,1.9740601
			c0,0.8206177,0.3947754,1.0605469,1.012207,1.2029419c0.3759766,0.0861816,3.3722534,0.026001,5.0037842-3.6834106
			l2.0769043-8.5073853h-3.3731079l1.0120239-3.8193359h7.2098999l-0.9274292,4.3361206
			c1.2647095-2.4158325,3.7946777-4.7111206,6.2822266-4.7111206c2.65625,0,4.8490601,1.935791,4.8490601,5.6453247
			c0,0.9484863-0.126709,1.9810791-0.4638672,3.1452637l-1.3494873,4.9586182
			c-0.1260986,0.5187988-0.2109375,0.949585-0.2109375,1.3377075c0,0.8623047,0.3375244,1.293396,0.9700928,1.293396
			c0.6324463,0,1.4335327-0.4754639,2.3612061-3.1052856l1.8550415,0.732666
			C39.3369751,35.3353882,37.3554077,36.9737549,34.8676147,36.9737549z M109.2645264,16.8039551
			c-6.0140991,0-10.4696045,4.7463989-10.4696045,10.5197144c0,5.7338257,4.4176025,10.4053345,10.3950806,10.4053345
			c6.0518799,0,10.5067139-4.7471313,10.5067139-10.4815063C119.6967163,21.4754028,115.2780151,16.8039551,109.2645264,16.8039551z
			 M109.2645264,33.7418823c-3.4903564,0-5.9775391-2.9246216-5.9775391-6.4943848
			c0-3.531189,2.3016357-6.418396,5.9030151-6.418396c3.5263062,0,6.0139771,2.9240723,6.0139771,6.4945679
			C115.2039795,30.8554077,112.9019165,33.7418823,109.2645264,33.7418823z M91.3704834,37.2736816h4.4927979V17.2224121h-4.4927979
			V37.2736816z M133.0228882,16.8039551c-3.0446167,0-4.8632813,1.6331177-6.1256714,3.5317383v-3.1132813h-4.4916382v20.0512695
			h4.4916382V25.9558716c0-3.1138916,1.8192749-4.9743652,4.4181519-4.9743652c2.6733398,0,4.1948242,1.7843018,4.1948242,4.8981934
			v11.3939819h4.4920044v-12.760498C140.0021973,19.8422852,137.4404907,16.8039551,133.0228882,16.8039551z M82.3135986,25.4249878
			c-2.3021851-0.7606201-4.4188232-1.3676147-4.4188232-2.8104248v-0.0761719c0-1.1771851,1.0025024-2.0128174,2.7473145-2.0128174
			c0.8511353,0,1.8035889,0.199707,2.7880859,0.5530396l-0.0005493-0.0025024c0,0,0.0095825,0.0048828,0.0281982,0.0135498
			c0.0846558,0.0306396,0.1705933,0.0651245,0.2564697,0.0982056c0.7105103,0.2299194,2.6271973,0.5370483,4.2421875-2.0288086
			c-2.0794067-1.4058838-4.7514648-2.27948-7.2033081-2.27948c-3.8974609,0-6.9786987,2.3164063-6.9786987,6.1148071v0.0761719
			c0,3.8352051,3.2296143,5.0505371,6.1252441,5.8862305c2.3021851,0.7213135,4.3815918,1.2528076,4.3815918,2.8098145v0.0755005
			c0,1.3297119-1.1141357,2.1652832-3.0446167,2.1652832c-1.2835083,0-2.6890259-0.3466187-4.0897217-1.0217896
			c-0.4029541-0.1738892-2.4997559-0.9075317-4.2926636,1.7006836c2.4428101,1.9514771,5.5029907,2.9671021,8.2713013,2.9671021
			c4.0824585,0,7.276001-2.0877686,7.276001-6.3046875v-0.0755005
			C88.4016113,27.6657715,85.1719971,26.3361816,82.3135986,25.4249878z M65.90448,37.2736816h4.4921265V17.2224121H65.90448
			V37.2736816z"/>
	</g>
</g>
</svg>
