<?xml version="1.0" encoding="utf-8"?>
<!-- Generator: Adobe Illustrator 22.1.0, SVG Export Plug-In . SVG Version: 6.00 Build 0)  -->
<svg version="1.1" id="Layer_1" xmlns="http://www.w3.org/2000/svg" xmlns:xlink="http://www.w3.org/1999/xlink" x="0px" y="0px"
	 width="180px" height="32px" viewBox="0 0 180 32" enable-background="new 0 0 180 32" xml:space="preserve">
<g>
	<g>
		<path fill="#0F141E" d="M4.7034302,26.1292725H3.4038086l-0.7451172,1.1116333l-0.7529907-1.1116333H0.5648193l1.4069824,2.017334
			l-1.5391846,2.2390747H1.748291l0.8942871-1.3408813l0.8937378,1.3408813h1.3410034l-1.5809937-2.2647095L4.7034302,26.1292725z
			 M6.2675171,29.6286621h4.1795654v-0.8811646H6.2675171V29.6286621z M6.2675171,27.8667603h4.1795654v-0.8811646H6.2675171
			V27.8667603z M12.4746094,25.470459h1.1751099v-0.963501h-1.1751099V25.470459z M12.4746094,30.3856812h1.1751099v-4.2564087
			h-1.1751099V30.3856812z M16.8612061,26.0136108c-0.496582,0-1.0095825,0.2302856-1.3078003,0.7092896h-0.0247192v-0.5936279
			h-1.1174927v4.2564087h1.1754761v-2.2305908c0-0.8654175,0.2732544-1.2189331,0.9104004-1.2189331
			c0.5463257,0,0.7532349,0.3456421,0.7532349,1.0452271v2.4042969h1.175293v-2.6182251
			C18.4255981,26.7131958,18.111084,26.0136108,16.8612061,26.0136108z M22.1499023,26.6480103h-0.0081177
			c-0.2733154-0.4194336-0.7697754-0.6343994-1.2749023-0.6343994c-1.2579956,0-1.8952637,1.0621948-1.8952637,2.206665
			c0,1.1779785,0.6289673,2.2817383,1.920166,2.2817383c0.5463257,0,1.0264893-0.1986084,1.2996216-0.6599121h0.0164795v0.5435791
			h1.1173096V24.506958h-1.175293V26.6480103z M21.1818237,29.6207886c-0.7290039,0-1.0349121-0.7008057-1.0349121-1.3676147
			c0-0.6990967,0.2647095-1.3583984,1.0349121-1.3583984c0.7609863,0,1.0095825,0.6593018,1.0095825,1.3505249
			C22.1914063,28.9454956,21.9594727,29.6207886,21.1818237,29.6207886z M26.0230103,26.0136108
			c-1.2996216,0-2.1849365,0.9719849-2.1849365,2.2480469c0,1.317627,0.8359375,2.2403564,2.1849365,2.2403564
			c0.9685669,0,1.6721802-0.4290161,2.0031128-1.4328003h-1.0345459c-0.0744629,0.2626953-0.4555054,0.5515747-0.9271851,0.5515747
			c-0.6538086,0-1.0180664-0.3381958-1.0509644-1.0786743h3.0870972
			C28.1834106,27.2323608,27.4796753,26.0136108,26.0230103,26.0136108z M25.0134277,27.8009644
			c0.0166626-0.3296509,0.2313843-0.906189,0.9762573-0.906189c0.5715332,0,0.828186,0.3126221,0.93573,0.906189H25.0134277z
			 M31.0385132,26.0136108c-0.5296021,0-0.993103,0.2058716-1.2745361,0.6593018h-0.0166626v-0.5436401H28.630127v5.7561035
			h1.1750488v-2.0263062h0.0168457c0.281189,0.4204102,0.7695923,0.6429443,1.2825928,0.6429443
			c1.25,0,1.8787842-1.0628052,1.8787842-2.1994019C32.9833984,27.0922852,32.3795166,26.0136108,31.0385132,26.0136108z
			 M30.7905273,29.6207886c-0.7618408,0-1.0265503-0.6588135-1.0265503-1.3499756
			c0-0.6917114,0.2484131-1.3760376,1.0182495-1.3760376c0.7529907,0,1.026062,0.699585,1.026062,1.3760376
			C31.8082886,28.9619751,31.5598755,29.6207886,30.7905273,29.6207886z M35.4995117,26.0136108
			c-1.2996216,0-2.1851196,0.9719849-2.1851196,2.2480469c0,1.317627,0.8359375,2.2403564,2.1851196,2.2403564
			c0.9685669,0,1.671875-0.4290161,2.0031128-1.4328003h-1.0345459c-0.0744629,0.2626953-0.4552612,0.5515747-0.9271851,0.5515747
			c-0.6539917,0-1.0180664-0.3381958-1.0509644-1.0786743h3.0869751
			C37.6599121,27.2323608,36.9562988,26.0136108,35.4995117,26.0136108z M34.4899292,27.8009644
			c0.0161743-0.3296509,0.2314453-0.906189,0.9765625-0.906189c0.5709839,0,0.8276978,0.3126221,0.9351196,0.906189H34.4899292z
			 M40.5562744,26.0136108c-0.496582,0-1.0095825,0.2302856-1.3075562,0.7092896h-0.0249023v-0.5936279h-1.1173096v4.2564087
			h1.175293v-2.2305908c0-0.8654175,0.2731934-1.2189331,0.9104004-1.2189331c0.5463257,0,0.7529907,0.3456421,0.7529907,1.0452271
			v2.4042969h1.1755371v-2.6182251C42.1207275,26.7131958,41.8062134,26.0136108,40.5562744,26.0136108z M45.8449707,26.6480103
			h-0.0083008c-0.2732544-0.4194336-0.7697754-0.6343994-1.2744751-0.6343994c-1.2581787,0-1.8953247,1.0621948-1.8953247,2.206665
			c0,1.1779785,0.6288452,2.2817383,1.9200439,2.2817383c0.5462646,0,1.0264893-0.1986084,1.2993774-0.6599121h0.0167236v0.5435791
			h1.1174927V24.506958h-1.1755371V26.6480103z M44.8765259,29.6207886c-0.7284546,0-1.0345459-0.7008057-1.0345459-1.3676147
			c0-0.6990967,0.2647095-1.3583984,1.0345459-1.3583984c0.7613525,0,1.0097656,0.6593018,1.0097656,1.3505249
			C45.8862915,28.9454956,45.6546021,29.6207886,44.8765259,29.6207886z M49.7180786,26.0136108
			c-1.2995605,0-2.1850586,0.9719849-2.1850586,2.2480469c0,1.317627,0.8358765,2.2403564,2.1850586,2.2403564
			c0.9686279,0,1.6722412-0.4290161,2.0031128-1.4328003h-1.0344849c-0.0745239,0.2626953-0.4553223,0.5515747-0.9271851,0.5515747
			c-0.6540527,0-1.0181274-0.3381958-1.0510254-1.0786743h3.0870972
			C51.878479,27.2323608,51.1748047,26.0136108,49.7180786,26.0136108z M48.7084961,27.8009644
			c0.0162964-0.3296509,0.2313843-0.906189,0.9765015-0.906189c0.571106,0,0.8278198,0.3126221,0.9351196,0.906189H48.7084961z
			 M54.7750244,26.0136108c-0.4967041,0-1.0096436,0.2302856-1.3077393,0.7092896h-0.0249023v-0.5936279h-1.1173706v4.2564087
			h1.175293v-2.2305908c0-0.8654175,0.2733154-1.2189331,0.9105225-1.2189331c0.5462646,0,0.7533569,0.3456421,0.7533569,1.0452271
			v2.4042969h1.1751099v-2.6182251C56.3392944,26.7131958,56.0247803,26.0136108,54.7750244,26.0136108z M58.557312,24.8532104
			h-1.1755371v1.276062h-0.711853v0.7814331h0.711853v2.5113525c0,0.848938,0.6292114,1.0129395,1.3492432,1.0129395
			c0.2317505,0,0.4884644-0.0073853,0.6868896-0.0402832v-0.9135132c-0.1240845,0.0231934-0.2398071,0.0322876-0.3641357,0.0322876
			c-0.3972778,0-0.49646-0.0993042-0.49646-0.4942017v-2.1085815h0.8605957v-0.7814331H58.557312V24.8532104z
			 M59.8480835,30.3856812h1.175293V24.506958h-1.175293V30.3856812z M63.5313721,29.0447998h-0.0167847l-0.9680786-2.9155273
			h-1.2579956l1.5058594,3.993103c0.1327515,0.3381958,0,0.7575073-0.4052734,0.7988892
			c-0.2318115,0.0079956-0.4633789-0.024353-0.6868896-0.0413818v0.963501
			c0.2399902,0.0250244,0.4799805,0.0419922,0.7197876,0.0419922c0.8114014,0,1.2166748-0.2802734,1.4733276-0.9641113
			l1.7880859-4.7919922h-1.2167358L63.5313721,29.0447998z M70.1276855,26.0136108
			c-1.3407593,0-2.2099609,0.8896484-2.2099609,2.2480469c0,1.3505249,0.8692017,2.2403564,2.2099609,2.2403564
			c1.348999,0,2.2181396-0.8898315,2.2181396-2.2403564C72.3458252,26.9032593,71.4766846,26.0136108,70.1276855,26.0136108z
			 M70.1276855,29.6207886c-0.7944946,0-1.0344849-0.6832275-1.0344849-1.3591309
			c0-0.6825562,0.2399902-1.3668823,1.0344849-1.3668823c0.8030396,0,1.0430298,0.6843262,1.0430298,1.3668823
			C71.1707153,28.937561,70.9307251,29.6207886,70.1276855,29.6207886z M73.909668,26.9197998h-0.0164795v-0.7905273h-1.1173096
			v4.2564087h1.1755371v-1.9174194c0-0.7501831,0.2979126-1.3686523,1.1585083-1.3686523
			c0.140564,0,0.3144531,0.0175781,0.421875,0.0426025v-1.0872192c-0.0740967-0.0250244-0.1735229-0.0413818-0.2562256-0.0413818
			C74.7042236,26.0136108,74.125,26.3840942,73.909668,26.9197998z M78.8261108,26.6972656h-0.0164185
			c-0.2816162-0.4942017-0.7119751-0.6836548-1.2749023-0.6836548c-1.2000122,0-1.8374634,1.0042725-1.8374634,2.1073608
			c0,1.170105,0.5462646,2.1420898,1.8291626,2.1420898c0.5130005,0,1.0264893-0.2144775,1.2832031-0.6593628h0.0164185v0.5600586
			c0.0083008,0.609436-0.2896118,1.0543213-0.9435425,1.0543213c-0.4138794,0-0.7697754-0.1480713-0.8773804-0.585022h-1.1668701
			C75.895874,31.6051025,76.8812256,32,77.7254028,32c1.9697876,0,2.2182007-1.1854248,2.2182007-1.8850098v-3.9857178h-1.1174927
			V26.6972656z M77.8247681,29.3812866c-0.7203979,0-0.9519653-0.666687-0.9519653-1.2755737
			c0-0.6343994,0.2896118-1.2109375,0.9519653-1.2109375c0.7611084,0,1.0013428,0.6174316,1.0013428,1.3085327
			C78.8261108,28.8132935,78.4949951,29.3812866,77.8247681,29.3812866z M84.3961792,27.2244873
			c0-1.0214233-1.0264893-1.2108765-1.8790894-1.2108765c-0.960022,0-1.9448853,0.3295898-2.0109863,1.425354h1.1751099
			c0.0413818-0.461853,0.3309937-0.6434937,0.7780762-0.6434937c0.4138794,0,0.7614136,0.0743408,0.7614136,0.5770874
			c0,0.4772339-0.6704102,0.4528198-1.390625,0.5595093c-0.7282715,0.0993042-1.456665,0.3295898-1.456665,1.2930908
			c0,0.8728027,0.6456909,1.2768555,1.456665,1.2768555c0.5217285,0,1.0678101-0.1407471,1.4404297-0.5272217
			c0.0079956,0.1401978,0.0412598,0.2797852,0.0825195,0.4108887h1.1921997
			c-0.1077271-0.1724854-0.1490479-0.5595093-0.1490479-0.9464722V27.2244873z M83.2207031,28.739502
			c0,0.2553711-0.03302,0.9793701-0.9520264,0.9793701c-0.3803711,0-0.7197876-0.1066895-0.7197876-0.5424805
			c0-0.428894,0.3309937-0.5526123,0.6951294-0.6257935c0.3640747-0.0670166,0.7781982-0.0748901,0.9766846-0.2479858V28.739502z
			 M87.5908813,26.0136108c-0.4968872,0-1.0100098,0.2302856-1.3078613,0.7092896h-0.0249023v-0.5936279h-1.1173096v4.2564087
			h1.175293v-2.2305908c0-0.8654175,0.2731934-1.2189331,0.9104004-1.2189331c0.5463257,0,0.753418,0.3456421,0.753418,1.0452271
			v2.4042969h1.1750488v-2.6182251C89.1549683,26.7131958,88.840271,26.0136108,87.5908813,26.0136108z M89.7506714,30.3856812
			h1.1752319v-4.2564087h-1.1752319V30.3856812z M89.7506714,25.470459h1.1752319v-0.963501h-1.1752319V25.470459z
			 M95.1967163,27.0100098v-0.8807373h-3.6086426v0.8807373h2.0606079l-2.2265015,2.4943848v0.8812866h3.9318237v-0.8812866
			h-2.3839111L95.1967163,27.0100098z M97.7954102,26.0136108c-1.2994385,0-2.1853027,0.9719849-2.1853027,2.2480469
			c0,1.317627,0.8359985,2.2403564,2.1853027,2.2403564c0.9683838,0,1.671875-0.4290161,2.0026855-1.4328003h-1.0343018
			c-0.0745239,0.2626953-0.4553223,0.5515747-0.927124,0.5515747c-0.6536865,0-1.0181885-0.3381958-1.0510864-1.0786743h3.0874023
			C99.9553833,27.2323608,99.2521973,26.0136108,97.7954102,26.0136108z M96.7855835,27.8009644
			c0.0166016-0.3296509,0.2319336-0.906189,0.9766235-0.906189c0.571167,0,0.8278809,0.3126221,0.9353027,0.906189H96.7855835z
			 M103.3986816,26.6480103h-0.0083618c-0.2730103-0.4194336-0.7698364-0.6343994-1.2747192-0.6343994
			c-1.2576904,0-1.8953247,1.0621948-1.8953247,2.206665c0,1.1779785,0.6288452,2.2817383,1.9204102,2.2817383
			c0.5460205,0,1.0261841-0.1986084,1.2990112-0.6599121h0.0170898v0.5435791h1.1171875V24.506958h-1.175293V26.6480103z
			 M102.4302979,29.6207886c-0.7280884,0-1.0344849-0.7008057-1.0344849-1.3676147
			c0-0.6990967,0.2647095-1.3583984,1.0344849-1.3583984c0.7614746,0,1.0093994,0.6593018,1.0093994,1.3505249
			C103.4396973,28.9454956,103.2080688,29.6207886,102.4302979,29.6207886z M107.0897217,25.593689h1.7711792v4.7919922h1.2996216
			V25.593689h1.7711792v-1.086731h-4.84198V25.593689z M113.7437744,27.8582764h2.8639526v-1.0043945h-2.8639526V25.593689
			h3.1204224v-1.086731h-4.4197998v5.8787231h4.4859009v-1.0861206h-3.1865234V27.8582764z M120.0258179,24.506958h-2.5491333
			v5.8787231h2.5491333c1.8042603,0,2.6818848-1.2677002,2.6818848-2.97229
			C122.7077026,25.4619751,121.5570068,24.506958,120.0258179,24.506958z M119.9348145,29.2995605h-1.1588135V25.593689h0.927002
			c1.2911987,0,1.7053223,0.7575073,1.7053223,1.9434204C121.4083252,28.8382568,120.6879272,29.2995605,119.9348145,29.2995605z
			 M127.4329834,26.0136108c-1.2993774,0-2.1850586,0.9719849-2.1850586,2.2480469
			c0,1.317627,0.8358765,2.2403564,2.1850586,2.2403564c0.9685059,0,1.6719971-0.4290161,2.0028076-1.4328003h-1.0343018
			c-0.074585,0.2626953-0.4555054,0.5515747-0.927063,0.5515747c-0.6537476,0-1.0180054-0.3381958-1.0512085-1.0786743h3.0874634
			C129.5932007,27.2323608,128.8898926,26.0136108,127.4329834,26.0136108z M126.4232178,27.8009644
			c0.0166626-0.3296509,0.2317505-0.906189,0.9766846-0.906189c0.571167,0,0.8280029,0.3126221,0.9353027,0.906189H126.4232178z
			 M132.5231934,26.1292725l-0.9025269,2.9058838h-0.0162964l-0.9019775-2.9058838h-1.2332764l1.4649048,4.2564087h1.3078613
			l1.4484253-4.2564087H132.5231934z M135.8251953,26.0136108c-1.2993774,0-2.1848755,0.9719849-2.1848755,2.2480469
			c0,1.317627,0.8358765,2.2403564,2.1848755,2.2403564c0.9683838,0,1.6721191-0.4290161,2.0031128-1.4328003h-1.034729
			c-0.0740967,0.2626953-0.454895,0.5515747-0.927063,0.5515747c-0.6533203,0-1.0178223-0.3381958-1.0511475-1.0786743h3.0874023
			C137.9855957,27.2323608,137.2819824,26.0136108,135.8251953,26.0136108z M134.8153687,27.8009644
			c0.0168457-0.3296509,0.2319336-0.906189,0.9770508-0.906189c0.5709839,0,0.8276978,0.3126221,0.9350586,0.906189H134.8153687z
			 M140.8823242,26.0136108c-0.496521,0-1.0095215,0.2302856-1.3077393,0.7092896h-0.0249023v-0.5936279h-1.1173096v4.2564087
			h1.1751099v-2.2305908c0-0.8654175,0.2734375-1.2189331,0.9105835-1.2189331c0.5463257,0,0.753418,0.3456421,0.753418,1.0452271
			v2.4042969h1.1751099v-2.6182251C142.4465942,26.7131958,142.131897,26.0136108,140.8823242,26.0136108z M144.6641846,24.8532104
			h-1.1751099v1.276062h-0.711792v0.7814331h0.711792v2.5113525c0,0.848938,0.6292114,1.0129395,1.3492432,1.0129395
			c0.2317505,0,0.4882813-0.0073853,0.6868896-0.0402832v-0.9135132c-0.1240845,0.0231934-0.2399902,0.0322876-0.3641357,0.0322876
			c-0.3974609,0-0.4968872-0.0993042-0.4968872-0.4942017v-2.1085815h0.8610229v-0.7814331h-0.8610229V24.8532104z
			 M17.0858154,0.0374756H0v5.0178223h5.5144043V19.614563h6.0587769V5.0552979h5.5126343V0.0374756z M34.616272,14.59729H24.09021
			v-2.4400024h10.5231934V7.4946899H24.09021V5.0552979h10.5231934V0.0374756H18.0275269V19.614563H34.616272V14.59729z
			 M45.5825195,0.0374756h-9.9490356V19.614563h8.7651367c6.862793,0,10.0593872-3.8108521,10.0593872-9.8171997
			C54.4580078,4.8640747,52.1403198,0.0374756,45.5825195,0.0374756z M44.0667725,14.59729h-2.3709717V5.0552979h1.9293213
			c4.3824463,0,4.7706909,3.4267578,4.7706909,4.6580811C48.395813,11.5523682,47.8436279,14.59729,44.0667725,14.59729z
			 M67.4547729,0h-4.4420776l-1.692688,2.9171753L59.6746216,0h-4.4435425l4.0604248,5.9013672l-4.21698,6.1685181h4.4419556
			l1.8035278-3.0499268l1.8493652,3.0499268h4.4431152l-4.2171021-6.1685181L67.4547729,0z M74.6627808,12.5971069
			l1.7759399-2.012146l6.0372925,8.9972534h2.8139038L78.1051025,9.036377l6.6658936-7.7733154h-2.9506226l-5.6275024,6.8768311
			c-0.4646606,0.5974731-0.956543,1.25-1.4481812,1.9564819h-0.0819092v-8.833313h-2.376709v18.3191528h2.376709V12.5971069z
			 M86.4364014,16.1032715c0,1.9020386,1.3659058,3.7774048,4.0432739,3.7774048
			c1.8850098,0,3.3328247-0.9243164,4.0432129-1.9558716h0.0820923l0.2184448,1.6574097h2.1584473
			c-0.1366577-0.8971558-0.1913452-2.0110474-0.1913452-3.1532593v-4.9190674c0-2.6362915-0.9835205-5.3815918-5.0540161-5.3815918
			c-1.666626,0-3.2783203,0.4624634-4.3713989,1.1416626l0.5466919,1.6036377
			c0.9287109-0.6248169,2.2127686-0.9783325,3.4694824-0.9783325c2.7045898-0.0271606,3.005127,1.956543,3.005127,3.0443115
			v0.2713013C89.2775879,11.1835938,86.4364014,12.9234009,86.4364014,16.1032715z M94.4411011,12.8682861v2.2839966
			c0,0.2440186-0.02771,0.5158081-0.1094971,0.7609253c-0.3823853,1.1143799-1.5025024,2.2010498-3.2509155,2.2010498
			c-1.2019653,0-2.2401733-0.7064819-2.2401733-2.2821655C88.8405151,13.2763062,91.8181763,12.8143921,94.4411011,12.8682861z
			 M109.8754272,17.6795654h-7.7312012v-0.053894c0.6011963-0.6524658,1.147644-1.3322754,1.6939697-2.0387573l5.9282837-7.6643066
			v-1.494751H99.6856689v1.9020996h7.1848145v0.0550537c-0.6283569,0.7064819-1.1472778,1.3311768-1.7481689,2.0648804
			l-5.9829102,7.7460938v1.3862305h10.7360229V17.6795654z M113.4810181,4.0083618h0.0276489
			c0.9561157,0,1.5571289-0.7069702,1.5571289-1.5490723c0-0.8427124-0.6010132-1.5219116-1.5300903-1.5219116
			c-0.928894,0-1.5571289,0.6791992-1.5571289,1.5219116C111.9785767,3.3013916,112.5795898,4.0083618,113.4810181,4.0083618z
			 M114.7376099,6.4278564h-2.4038086v13.1543579h2.4038086V6.4278564z M127.0037231,11.7005005v7.8817139h2.3492432v-8.1535034
			c0-0.4085083,0.0821533-0.84375,0.1914063-1.196106c0.4370117-1.1411133,1.4752197-2.1466064,2.8683472-2.1466064
			c1.9125977,0,2.8686523,1.4939575,2.8686523,4.0491943v7.4470215h2.3495483v-7.7460327
			c0-4.5662231-2.5953369-5.7078857-4.3712158-5.7078857c-1.2565918,0-2.1038208,0.3269043-2.895813,0.9243774
			c-0.5462646,0.4074097-1.0930176,0.9515991-1.5023804,1.7125244h-0.0548096
			c-0.5739746-1.5496826-1.9396973-2.6369019-3.71521-2.6369019c-2.2130737,0-3.4425049,1.1688843-4.1801758,2.4190063h-0.081604
			l-0.1094971-2.1194458h-2.1033936c0.0543823,1.0861206,0.1090698,2.1733398,0.1090698,3.56073v9.5936279h2.3494263v-7.9361572
			c0-0.407959,0.0545044-0.8153687,0.1911621-1.1688843c0.3825073-1.196167,1.5028076-2.3911743,2.9778442-2.3911743
			C126.0748901,8.0859985,127.0037231,9.5799561,127.0037231,11.7005005z M141.5092163,19.5822144h2.4038696V6.4278564h-2.4038696
			V19.5822144z M142.6564941,4.0083618h0.0274048c0.9561157,0,1.557312-0.7069702,1.557312-1.5490723
			c0-0.8427124-0.6011963-1.5219116-1.5300903-1.5219116c-0.928833,0-1.5570068,0.6791992-1.5570068,1.5219116
			C141.1541138,3.3013916,141.7550049,4.0083618,142.6564941,4.0083618z M153.1738892,6.1016846
			c-3.8516846,0-6.2285156,3.1248169-6.2285156,7.1207275c0,3.9408569,2.4587402,6.6304932,6.5018311,6.6304932
			c2.1033936,0,3.5787964-0.4608154,4.4259644-0.8414917l-0.4369507-1.6853027
			c-0.8745117,0.3534546-1.9401245,0.6525879-3.6611328,0.6525879c-2.4041138,0-4.4528809-1.3317871-4.5076904-4.5662231
			l9.2614136,0.027832c0.0546875-0.2723999,0.081665-0.6537476,0.081665-1.1422119
			C158.6104736,9.8790894,157.4906006,6.1016846,153.1738892,6.1016846z M149.2946167,11.7005005
			c0.1911621-1.6574097,1.2293701-3.8869019,3.6882935-3.8869019c2.6773682,0,3.3330078,2.3922729,3.3057861,3.8869019H149.2946167z
			 M163.800293,9.0091553h-0.0819092l-0.1094971-2.5812988h-2.1033936c0.0820923,1.2223511,0.1091309,2.5546265,0.1091309,4.1036987
			l-0.0270386,9.0506592h2.4039307v-7.0118408c0-0.407959,0.0274048-0.7880859,0.0819702-1.1416626
			c0.3278809-1.7664185,1.5300903-3.0437012,3.2236938-3.0437012c0.3279419,0,0.5739136,0.0266724,0.8468018,0.053894V6.2105713
			c-0.2183838-0.0549927-0.4096069-0.0822754-0.6555786-0.0822754C165.87677,6.1282959,164.4013672,7.2427979,163.800293,9.0091553z
			 M172.2686157,17.6795654v-0.053894c0.6008911-0.6524658,1.1473999-1.3322754,1.6937866-2.0387573l5.9284058-7.6643066v-1.494751
			h-10.0808105v1.9020996h7.1851196v0.0550537c-0.628418,0.7064819-1.1477051,1.3311768-1.7487183,2.0648804l-5.9827271,7.7460938
			v1.3862305h10.7362061v-1.9026489H172.2686157z"/>
	</g>
</g>
</svg>
